<?xml version="1.0" encoding="UTF-8" standalone="no"?>
<!DOCTYPE svg PUBLIC "-//W3C//DTD SVG 1.1//EN"
 "http://www.w3.org/Graphics/SVG/1.1/DTD/svg11.dtd">
<!-- Generated by graphviz version 9.0.0 (0)
 -->
<!-- Title: root Pages: 1 -->
<svg width="815pt" height="1406pt"
 viewBox="0.00 0.00 814.50 1406.00" xmlns="http://www.w3.org/2000/svg" xmlns:xlink="http://www.w3.org/1999/xlink">
<g id="graph0" class="graph" transform="scale(1 1) rotate(0) translate(4 1402)">
<title>root</title>
<polygon fill="white" stroke="none" points="-4,4 -4,-1402 810.5,-1402 810.5,4 -4,4"/>
<g id="clust2" class="cluster">
<title>cluster_node_modules</title>
<path fill="#ffffff" stroke="black" stroke-width="2" d="M565.5,-8C565.5,-8 629.75,-8 629.75,-8 635.75,-8 641.75,-14 641.75,-20 641.75,-20 641.75,-204 641.75,-204 641.75,-210 635.75,-216 629.75,-216 629.75,-216 565.5,-216 565.5,-216 559.5,-216 553.5,-210 553.5,-204 553.5,-204 553.5,-20 553.5,-20 553.5,-14 559.5,-8 565.5,-8"/>
<text text-anchor="middle" x="597.62" y="-203.45" font-family="Helvetica,sans-Serif" font-weight="bold" font-size="9.00">node_modules</text>
</g>
<g id="clust3" class="cluster">
<title>cluster_src</title>
<path fill="#ffffff" stroke="black" stroke-width="2" d="M20,-224C20,-224 786.5,-224 786.5,-224 792.5,-224 798.5,-230 798.5,-236 798.5,-236 798.5,-484 798.5,-484 798.5,-490 792.5,-496 786.5,-496 786.5,-496 20,-496 20,-496 14,-496 8,-490 8,-484 8,-484 8,-236 8,-236 8,-230 14,-224 20,-224"/>
<text text-anchor="middle" x="403.25" y="-483.45" font-family="Helvetica,sans-Serif" font-weight="bold" font-size="9.00">src</text>
</g>
<g id="clust4" class="cluster">
<title>cluster_src/clientShared</title>
<path fill="#ffffff" stroke="black" stroke-width="2" d="M52,-416C52,-416 123.75,-416 123.75,-416 129.75,-416 135.75,-422 135.75,-428 135.75,-428 135.75,-457 135.75,-457 135.75,-463 129.75,-469 123.75,-469 123.75,-469 52,-469 52,-469 46,-469 40,-463 40,-457 40,-457 40,-428 40,-428 40,-422 46,-416 52,-416"/>
<text text-anchor="middle" x="87.88" y="-456.45" font-family="Helvetica,sans-Serif" font-weight="bold" font-size="9.00">clientShared</text>
</g>
<g id="clust5" class="cluster">
<title>cluster_src/controller</title>
<path fill="#ffffff" stroke="black" stroke-width="2" d="M50.5,-263C50.5,-263 125.25,-263 125.25,-263 131.25,-263 137.25,-269 137.25,-275 137.25,-275 137.25,-304 137.25,-304 137.25,-310 131.25,-316 125.25,-316 125.25,-316 50.5,-316 50.5,-316 44.5,-316 38.5,-310 38.5,-304 38.5,-304 38.5,-275 38.5,-275 38.5,-269 44.5,-263 50.5,-263"/>
<text text-anchor="middle" x="87.88" y="-303.45" font-family="Helvetica,sans-Serif" font-weight="bold" font-size="9.00">controller</text>
</g>
<g id="clust6" class="cluster">
<title>cluster_src/core</title>
<path fill="#ffffff" stroke="black" stroke-width="2" d="M179.75,-355C179.75,-355 439.38,-355 439.38,-355 445.38,-355 451.38,-361 451.38,-367 451.38,-367 451.38,-457 451.38,-457 451.38,-463 445.38,-469 439.38,-469 439.38,-469 179.75,-469 179.75,-469 173.75,-469 167.75,-463 167.75,-457 167.75,-457 167.75,-367 167.75,-367 167.75,-361 173.75,-355 179.75,-355"/>
<text text-anchor="middle" x="309.56" y="-456.45" font-family="Helvetica,sans-Serif" font-weight="bold" font-size="9.00">core</text>
</g>
<g id="clust7" class="cluster">
<title>cluster_src/core/configuration</title>
<path fill="#ffffff" stroke="black" stroke-width="2" d="M187.75,-389C187.75,-389 296.25,-389 296.25,-389 302.25,-389 308.25,-395 308.25,-401 308.25,-401 308.25,-430 308.25,-430 308.25,-436 302.25,-442 296.25,-442 296.25,-442 187.75,-442 187.75,-442 181.75,-442 175.75,-436 175.75,-430 175.75,-430 175.75,-401 175.75,-401 175.75,-395 181.75,-389 187.75,-389"/>
<text text-anchor="middle" x="242" y="-429.45" font-family="Helvetica,sans-Serif" font-weight="bold" font-size="9.00">configuration</text>
</g>
<g id="clust8" class="cluster">
<title>cluster_src/data</title>
<path fill="#ffffff" stroke="black" stroke-width="2" d="M351.12,-232C351.12,-232 479.88,-232 479.88,-232 485.88,-232 491.88,-238 491.88,-244 491.88,-244 491.88,-335 491.88,-335 491.88,-341 485.88,-347 479.88,-347 479.88,-347 351.12,-347 351.12,-347 345.12,-347 339.12,-341 339.12,-335 339.12,-335 339.12,-244 339.12,-244 339.12,-238 345.12,-232 351.12,-232"/>
<text text-anchor="middle" x="415.5" y="-334.45" font-family="Helvetica,sans-Serif" font-weight="bold" font-size="9.00">data</text>
</g>
<g id="clust9" class="cluster">
<title>cluster_src/middleware</title>
<path fill="#ffffff" stroke="black" stroke-width="2" d="M28,-324C28,-324 147.75,-324 147.75,-324 153.75,-324 159.75,-330 159.75,-336 159.75,-336 159.75,-396 159.75,-396 159.75,-402 153.75,-408 147.75,-408 147.75,-408 28,-408 28,-408 22,-408 16,-402 16,-396 16,-396 16,-336 16,-336 16,-330 22,-324 28,-324"/>
<text text-anchor="middle" x="87.88" y="-395.45" font-family="Helvetica,sans-Serif" font-weight="bold" font-size="9.00">middleware</text>
</g>
<g id="clust10" class="cluster">
<title>cluster_src/misc</title>
<path fill="#ffffff" stroke="black" stroke-width="2" d="M526.5,-258C526.5,-258 778.5,-258 778.5,-258 784.5,-258 790.5,-264 790.5,-270 790.5,-270 790.5,-423 790.5,-423 790.5,-429 784.5,-435 778.5,-435 778.5,-435 526.5,-435 526.5,-435 520.5,-435 514.5,-429 514.5,-423 514.5,-423 514.5,-270 514.5,-270 514.5,-264 520.5,-258 526.5,-258"/>
<text text-anchor="middle" x="652.5" y="-422.45" font-family="Helvetica,sans-Serif" font-weight="bold" font-size="9.00">misc</text>
</g>
<g id="clust12" class="cluster">
<title>cluster_node_modules_gv1</title>
<path fill="#ffffff" stroke="black" stroke-width="2" d="M694.38,-504C694.38,-504 785.62,-504 785.62,-504 791.62,-504 797.62,-510 797.62,-516 797.62,-516 797.62,-1003 797.62,-1003 797.62,-1009 791.62,-1015 785.62,-1015 785.62,-1015 694.38,-1015 694.38,-1015 688.38,-1015 682.38,-1009 682.38,-1003 682.38,-1003 682.38,-516 682.38,-516 682.38,-510 688.38,-504 694.38,-504"/>
<text text-anchor="middle" x="740" y="-1002.45" font-family="Helvetica,sans-Serif" font-weight="bold" font-size="9.00">node_modules</text>
</g>
<g id="clust13" class="cluster">
<title>cluster_node_modules/@mui</title>
<path fill="#ffffff" stroke="black" stroke-width="2" d="M707.12,-904C707.12,-904 772.88,-904 772.88,-904 778.88,-904 784.88,-910 784.88,-916 784.88,-916 784.88,-976 784.88,-976 784.88,-982 778.88,-988 772.88,-988 772.88,-988 707.12,-988 707.12,-988 701.12,-988 695.12,-982 695.12,-976 695.12,-976 695.12,-916 695.12,-916 695.12,-910 701.12,-904 707.12,-904"/>
<text text-anchor="middle" x="740" y="-975.45" font-family="Helvetica,sans-Serif" font-weight="bold" font-size="9.00">@mui</text>
</g>
<g id="clust14" class="cluster">
<title>cluster_node_modules/@testing&#45;library</title>
<path fill="#ffffff" stroke="black" stroke-width="2" d="M710,-631C710,-631 771,-631 771,-631 777,-631 783,-637 783,-643 783,-643 783,-703 783,-703 783,-709 777,-715 771,-715 771,-715 710,-715 710,-715 704,-715 698,-709 698,-703 698,-703 698,-643 698,-643 698,-637 704,-631 710,-631"/>
<text text-anchor="middle" x="740.5" y="-702.45" font-family="Helvetica,sans-Serif" font-weight="bold" font-size="9.00">@testing&#45;library</text>
</g>
<g id="clust15" class="cluster">
<title>cluster_src_gv1</title>
<path fill="#ffffff" stroke="black" stroke-width="2" d="M28.5,-932C28.5,-932 662.38,-932 662.38,-932 668.38,-932 674.38,-938 674.38,-944 674.38,-944 674.38,-1378 674.38,-1378 674.38,-1384 668.38,-1390 662.38,-1390 662.38,-1390 28.5,-1390 28.5,-1390 22.5,-1390 16.5,-1384 16.5,-1378 16.5,-1378 16.5,-944 16.5,-944 16.5,-938 22.5,-932 28.5,-932"/>
<text text-anchor="middle" x="345.44" y="-1377.45" font-family="Helvetica,sans-Serif" font-weight="bold" font-size="9.00">src</text>
</g>
<g id="clust16" class="cluster">
<title>cluster_src/clientShared_gv1</title>
<path fill="#ffffff" stroke="black" stroke-width="2" d="M52,-1294C52,-1294 123.75,-1294 123.75,-1294 129.75,-1294 135.75,-1300 135.75,-1306 135.75,-1306 135.75,-1335 135.75,-1335 135.75,-1341 129.75,-1347 123.75,-1347 123.75,-1347 52,-1347 52,-1347 46,-1347 40,-1341 40,-1335 40,-1335 40,-1306 40,-1306 40,-1300 46,-1294 52,-1294"/>
<text text-anchor="middle" x="87.88" y="-1334.45" font-family="Helvetica,sans-Serif" font-weight="bold" font-size="9.00">clientShared</text>
</g>
<g id="clust17" class="cluster">
<title>cluster_src/components</title>
<path fill="#ffffff" stroke="black" stroke-width="2" d="M328.5,-940C328.5,-940 654.38,-940 654.38,-940 660.38,-940 666.38,-946 666.38,-952 666.38,-952 666.38,-1325 666.38,-1325 666.38,-1331 660.38,-1337 654.38,-1337 654.38,-1337 328.5,-1337 328.5,-1337 322.5,-1337 316.5,-1331 316.5,-1325 316.5,-1325 316.5,-952 316.5,-952 316.5,-946 322.5,-940 328.5,-940"/>
<text text-anchor="middle" x="491.44" y="-1324.45" font-family="Helvetica,sans-Serif" font-weight="bold" font-size="9.00">components</text>
</g>
<g id="clust18" class="cluster">
<title>cluster_src/components/buildingblocks</title>
<path fill="#ffffff" stroke="black" stroke-width="2" d="M548.88,-1140C548.88,-1140 646.38,-1140 646.38,-1140 652.38,-1140 658.38,-1146 658.38,-1152 658.38,-1152 658.38,-1242 658.38,-1242 658.38,-1248 652.38,-1254 646.38,-1254 646.38,-1254 548.88,-1254 548.88,-1254 542.88,-1254 536.88,-1248 536.88,-1242 536.88,-1242 536.88,-1152 536.88,-1152 536.88,-1146 542.88,-1140 548.88,-1140"/>
<text text-anchor="middle" x="597.62" y="-1241.45" font-family="Helvetica,sans-Serif" font-weight="bold" font-size="9.00">buildingblocks</text>
</g>
<g id="clust19" class="cluster">
<title>cluster_src/components/buildingblocks/layout</title>
<path fill="#ffffff" stroke="black" stroke-width="2" d="M556.88,-1174C556.88,-1174 638.38,-1174 638.38,-1174 644.38,-1174 650.38,-1180 650.38,-1186 650.38,-1186 650.38,-1215 650.38,-1215 650.38,-1221 644.38,-1227 638.38,-1227 638.38,-1227 556.88,-1227 556.88,-1227 550.88,-1227 544.88,-1221 544.88,-1215 544.88,-1215 544.88,-1186 544.88,-1186 544.88,-1180 550.88,-1174 556.88,-1174"/>
<text text-anchor="middle" x="597.62" y="-1214.45" font-family="Helvetica,sans-Serif" font-weight="bold" font-size="9.00">layout</text>
</g>
<g id="clust20" class="cluster">
<title>cluster_src/components/hooks</title>
<path fill="#ffffff" stroke="black" stroke-width="2" d="M336.5,-948C336.5,-948 494.5,-948 494.5,-948 500.5,-948 506.5,-954 506.5,-960 506.5,-960 506.5,-1237 506.5,-1237 506.5,-1243 500.5,-1249 494.5,-1249 494.5,-1249 336.5,-1249 336.5,-1249 330.5,-1249 324.5,-1243 324.5,-1237 324.5,-1237 324.5,-960 324.5,-960 324.5,-954 330.5,-948 336.5,-948"/>
<text text-anchor="middle" x="415.5" y="-1236.45" font-family="Helvetica,sans-Serif" font-weight="bold" font-size="9.00">hooks</text>
</g>
<g id="clust21" class="cluster">
<title>cluster_src/components/pages</title>
<path fill="#ffffff" stroke="black" stroke-width="2" d="M381.5,-1257C381.5,-1257 449.5,-1257 449.5,-1257 455.5,-1257 461.5,-1263 461.5,-1269 461.5,-1269 461.5,-1298 461.5,-1298 461.5,-1304 455.5,-1310 449.5,-1310 449.5,-1310 381.5,-1310 381.5,-1310 375.5,-1310 369.5,-1304 369.5,-1298 369.5,-1298 369.5,-1269 369.5,-1269 369.5,-1263 375.5,-1257 381.5,-1257"/>
<text text-anchor="middle" x="415.5" y="-1297.45" font-family="Helvetica,sans-Serif" font-weight="bold" font-size="9.00">pages</text>
</g>
<g id="clust22" class="cluster">
<title>cluster_src/global</title>
<path fill="#ffffff" stroke="black" stroke-width="2" d="M36.5,-1121C36.5,-1121 139.25,-1121 139.25,-1121 145.25,-1121 151.25,-1127 151.25,-1133 151.25,-1133 151.25,-1259 151.25,-1259 151.25,-1265 145.25,-1271 139.25,-1271 139.25,-1271 36.5,-1271 36.5,-1271 30.5,-1271 24.5,-1265 24.5,-1259 24.5,-1259 24.5,-1133 24.5,-1133 24.5,-1127 30.5,-1121 36.5,-1121"/>
<text text-anchor="middle" x="87.88" y="-1258.45" font-family="Helvetica,sans-Serif" font-weight="bold" font-size="9.00">global</text>
</g>
<g id="clust23" class="cluster">
<title>cluster_src/global/navigator</title>
<path fill="#ffffff" stroke="black" stroke-width="2" d="M44.5,-1129C44.5,-1129 131.25,-1129 131.25,-1129 137.25,-1129 143.25,-1135 143.25,-1141 143.25,-1141 143.25,-1232 143.25,-1232 143.25,-1238 137.25,-1244 131.25,-1244 131.25,-1244 44.5,-1244 44.5,-1244 38.5,-1244 32.5,-1238 32.5,-1232 32.5,-1232 32.5,-1141 32.5,-1141 32.5,-1135 38.5,-1129 44.5,-1129"/>
<text text-anchor="middle" x="87.88" y="-1231.45" font-family="Helvetica,sans-Serif" font-weight="bold" font-size="9.00">navigator</text>
</g>
<!-- node_modules/cookie&#45;parser -->
<g id="node1" class="node">
<title>node_modules/cookie&#45;parser</title>
<g id="a_node1"><a xlink:href="node_modules/cookie-parser" xlink:title="cookie&#45;parser">
<polygon fill="#c40b0a" fill-opacity="0.101961" stroke="black" points="633.75,-96.25 563.56,-96.25 561.5,-94.19 561.5,-77.75 631.69,-77.75 633.75,-79.81 633.75,-96.25"/>
<polyline fill="none" stroke="black" points="631.69,-94.19 561.5,-94.19"/>
<polyline fill="none" stroke="black" points="631.69,-94.19 631.69,-77.75"/>
<polyline fill="none" stroke="black" points="631.69,-94.19 633.75,-96.25"/>
<text text-anchor="start" x="569.5" y="-83.7" font-family="Helvetica,sans-Serif" font-size="9.00" fill="#c40b0a">cookie&#45;parser</text>
</a>
</g>
</g>
<!-- node_modules/express -->
<g id="node2" class="node">
<title>node_modules/express</title>
<g id="a_node2"><a xlink:href="node_modules/express" xlink:title="express">
<polygon fill="#c40b0a" fill-opacity="0.101961" stroke="black" points="624.62,-65.25 572.68,-65.25 570.62,-63.19 570.62,-46.75 622.57,-46.75 624.62,-48.81 624.62,-65.25"/>
<polyline fill="none" stroke="black" points="622.57,-63.19 570.62,-63.19"/>
<polyline fill="none" stroke="black" points="622.57,-63.19 622.57,-46.75"/>
<polyline fill="none" stroke="black" points="622.57,-63.19 624.62,-65.25"/>
<text text-anchor="start" x="581.5" y="-52.7" font-family="Helvetica,sans-Serif" font-size="9.00" fill="#c40b0a">express</text>
</a>
</g>
</g>
<!-- node_modules/express&#45;ws -->
<g id="node3" class="node">
<title>node_modules/express&#45;ws</title>
<g id="a_node3"><a xlink:href="node_modules/express-ws" xlink:title="express&#45;ws">
<polygon fill="#c40b0a" fill-opacity="0.101961" stroke="black" points="628.88,-34.25 568.43,-34.25 566.38,-32.19 566.38,-15.75 626.82,-15.75 628.88,-17.81 628.88,-34.25"/>
<polyline fill="none" stroke="black" points="626.82,-32.19 566.38,-32.19"/>
<polyline fill="none" stroke="black" points="626.82,-32.19 626.82,-15.75"/>
<polyline fill="none" stroke="black" points="626.82,-32.19 628.88,-34.25"/>
<text text-anchor="start" x="574.38" y="-21.7" font-family="Helvetica,sans-Serif" font-size="9.00" fill="#c40b0a">express&#45;ws</text>
</a>
</g>
</g>
<!-- node_modules/mongodb -->
<g id="node4" class="node">
<title>node_modules/mongodb</title>
<g id="a_node4"><a xlink:href="node_modules/mongodb" xlink:title="mongodb">
<polygon fill="#c40b0a" fill-opacity="0.101961" stroke="black" points="625.12,-158.25 572.18,-158.25 570.12,-156.19 570.12,-139.75 623.07,-139.75 625.12,-141.81 625.12,-158.25"/>
<polyline fill="none" stroke="black" points="623.07,-156.19 570.12,-156.19"/>
<polyline fill="none" stroke="black" points="623.07,-156.19 623.07,-139.75"/>
<polyline fill="none" stroke="black" points="623.07,-156.19 625.12,-158.25"/>
<text text-anchor="start" x="578.12" y="-145.7" font-family="Helvetica,sans-Serif" font-size="9.00" fill="#c40b0a">mongodb</text>
</a>
</g>
</g>
<!-- node_modules/pino -->
<g id="node5" class="node">
<title>node_modules/pino</title>
<g id="a_node5"><a xlink:href="node_modules/pino" xlink:title="pino">
<polygon fill="#c40b0a" fill-opacity="0.101961" stroke="black" points="624.62,-189.25 572.68,-189.25 570.62,-187.19 570.62,-170.75 622.57,-170.75 624.62,-172.81 624.62,-189.25"/>
<polyline fill="none" stroke="black" points="622.57,-187.19 570.62,-187.19"/>
<polyline fill="none" stroke="black" points="622.57,-187.19 622.57,-170.75"/>
<polyline fill="none" stroke="black" points="622.57,-187.19 624.62,-189.25"/>
<text text-anchor="start" x="588.62" y="-176.7" font-family="Helvetica,sans-Serif" font-size="9.00" fill="#c40b0a">pino</text>
</a>
</g>
</g>
<!-- node_modules/redis -->
<g id="node6" class="node">
<title>node_modules/redis</title>
<g id="a_node6"><a xlink:href="node_modules/redis" xlink:title="redis">
<polygon fill="#c40b0a" fill-opacity="0.101961" stroke="black" points="624.62,-127.25 572.68,-127.25 570.62,-125.19 570.62,-108.75 622.57,-108.75 624.62,-110.81 624.62,-127.25"/>
<polyline fill="none" stroke="black" points="622.57,-125.19 570.62,-125.19"/>
<polyline fill="none" stroke="black" points="622.57,-125.19 622.57,-108.75"/>
<polyline fill="none" stroke="black" points="622.57,-125.19 624.62,-127.25"/>
<text text-anchor="start" x="587.5" y="-114.7" font-family="Helvetica,sans-Serif" font-size="9.00" fill="#c40b0a">redis</text>
</a>
</g>
</g>
<!-- src/clientShared/UserInterface.ts -->
<g id="node7" class="node">
<title>src/clientShared/UserInterface.ts</title>
<g id="a_node7"><a xlink:href="src/clientShared/UserInterface.ts" xlink:title="UserInterface.ts">
<path fill="#ccffcc" stroke="black" d="M121.58,-442.25C121.58,-442.25 54.17,-442.25 54.17,-442.25 51.08,-442.25 48,-439.17 48,-436.08 48,-436.08 48,-429.92 48,-429.92 48,-426.83 51.08,-423.75 54.17,-423.75 54.17,-423.75 121.58,-423.75 121.58,-423.75 124.67,-423.75 127.75,-426.83 127.75,-429.92 127.75,-429.92 127.75,-436.08 127.75,-436.08 127.75,-439.17 124.67,-442.25 121.58,-442.25"/>
<text text-anchor="start" x="56" y="-429.7" font-family="Helvetica,sans-Serif" font-size="9.00">UserInterface.ts</text>
</a>
</g>
</g>
<!-- src/controller/userController.ts -->
<g id="node8" class="node">
<title>src/controller/userController.ts</title>
<g id="a_node8"><a xlink:href="src/controller/userController.ts" xlink:title="userController.ts">
<path fill="#ddfeff" stroke="black" d="M123.08,-289.25C123.08,-289.25 52.67,-289.25 52.67,-289.25 49.58,-289.25 46.5,-286.17 46.5,-283.08 46.5,-283.08 46.5,-276.92 46.5,-276.92 46.5,-273.83 49.58,-270.75 52.67,-270.75 52.67,-270.75 123.08,-270.75 123.08,-270.75 126.17,-270.75 129.25,-273.83 129.25,-276.92 129.25,-276.92 129.25,-283.08 129.25,-283.08 129.25,-286.17 126.17,-289.25 123.08,-289.25"/>
<text text-anchor="start" x="54.5" y="-276.7" font-family="Helvetica,sans-Serif" font-size="9.00">userController.ts</text>
</a>
</g>
</g>
<!-- src/core/configuration/ConfigurationManager.ts -->
<g id="node9" class="node">
<title>src/core/configuration/ConfigurationManager.ts</title>
<g id="a_node9"><a xlink:href="src/core/configuration/ConfigurationManager.ts" xlink:title="ConfigurationManager.ts">
<path fill="#ddfeff" stroke="black" d="M294.08,-415.25C294.08,-415.25 189.92,-415.25 189.92,-415.25 186.83,-415.25 183.75,-412.17 183.75,-409.08 183.75,-409.08 183.75,-402.92 183.75,-402.92 183.75,-399.83 186.83,-396.75 189.92,-396.75 189.92,-396.75 294.08,-396.75 294.08,-396.75 297.17,-396.75 300.25,-399.83 300.25,-402.92 300.25,-402.92 300.25,-409.08 300.25,-409.08 300.25,-412.17 297.17,-415.25 294.08,-415.25"/>
<text text-anchor="start" x="191.75" y="-402.7" font-family="Helvetica,sans-Serif" font-size="9.00">ConfigurationManager.ts</text>
</a>
</g>
</g>
<!-- src/controller/userController.ts&#45;&gt;src/core/configuration/ConfigurationManager.ts -->
<g id="edge1" class="edge">
<title>src/controller/userController.ts&#45;&gt;src/core/configuration/ConfigurationManager.ts</title>
<path fill="none" stroke="#000000" stroke-width="2" stroke-opacity="0.200000" d="M118.29,-289.69C133.18,-296.16 150.11,-306.24 159.75,-321 168.55,-334.48 156.74,-381.25 167.75,-393 170.05,-395.45 172.64,-397.54 175.43,-399.32"/>
<polygon fill="#000000" fill-opacity="0.200000" stroke="#000000" stroke-width="2" stroke-opacity="0.200000" points="174.27,-401.08 180.56,-401.93 176.17,-397.33 174.27,-401.08"/>
</g>
<!-- src/core/express.ts -->
<g id="node10" class="node">
<title>src/core/express.ts</title>
<g id="a_node10"><a xlink:href="src/core/express.ts" xlink:title="express.ts">
<path fill="#ddfeff" stroke="black" d="M264.46,-381.25C264.46,-381.25 219.54,-381.25 219.54,-381.25 216.46,-381.25 213.38,-378.17 213.38,-375.08 213.38,-375.08 213.38,-368.92 213.38,-368.92 213.38,-365.83 216.46,-362.75 219.54,-362.75 219.54,-362.75 264.46,-362.75 264.46,-362.75 267.54,-362.75 270.62,-365.83 270.62,-368.92 270.62,-368.92 270.62,-375.08 270.62,-375.08 270.62,-378.17 267.54,-381.25 264.46,-381.25"/>
<text text-anchor="start" x="221.38" y="-368.7" font-family="Helvetica,sans-Serif" font-size="9.00">express.ts</text>
</a>
</g>
</g>
<!-- src/controller/userController.ts&#45;&gt;src/core/express.ts -->
<g id="edge2" class="edge">
<title>src/controller/userController.ts&#45;&gt;src/core/express.ts</title>
<path fill="none" stroke="#000000" stroke-width="2" stroke-opacity="0.200000" d="M105.87,-289.6C120.29,-297.81 141.49,-309.99 159.75,-321 179.85,-333.12 202.45,-347.35 218.7,-357.7"/>
<polygon fill="#000000" fill-opacity="0.200000" stroke="#000000" stroke-width="2" stroke-opacity="0.200000" points="217.39,-359.35 223.57,-360.81 219.64,-355.81 217.39,-359.35"/>
</g>
<!-- src/core/configuration/ConfigurationManager.ts&#45;&gt;node_modules/mongodb -->
<g id="edge3" class="edge">
<title>src/core/configuration/ConfigurationManager.ts&#45;&gt;node_modules/mongodb</title>
<path fill="none" stroke="#000000" stroke-opacity="0.200000" d="M300.7,-399.65C303.59,-397.83 306.23,-395.63 308.5,-393 320.42,-379.19 304.14,-242.42 316.5,-229 374.2,-166.35 444.16,-262.03 506.5,-204 519.45,-191.94 501.93,-177.45 514.5,-165 526.94,-152.68 545.87,-148.42 562.43,-147.35"/>
<polygon fill="#000000" fill-opacity="0.200000" stroke="#000000" stroke-opacity="0.200000" points="562.41,-149.45 568.32,-147.13 562.25,-145.26 562.41,-149.45"/>
</g>
<!-- src/core/logging.ts -->
<g id="node11" class="node">
<title>src/core/logging.ts</title>
<g id="a_node11"><a xlink:href="src/core/logging.ts" xlink:title="logging.ts">
<path fill="#ddfeff" stroke="black" d="M437.21,-428.25C437.21,-428.25 393.79,-428.25 393.79,-428.25 390.71,-428.25 387.62,-425.17 387.62,-422.08 387.62,-422.08 387.62,-415.92 387.62,-415.92 387.62,-412.83 390.71,-409.75 393.79,-409.75 393.79,-409.75 437.21,-409.75 437.21,-409.75 440.29,-409.75 443.38,-412.83 443.38,-415.92 443.38,-415.92 443.38,-422.08 443.38,-422.08 443.38,-425.17 440.29,-428.25 437.21,-428.25"/>
<text text-anchor="start" x="395.62" y="-415.7" font-family="Helvetica,sans-Serif" font-size="9.00">logging.ts</text>
</a>
</g>
</g>
<!-- src/core/configuration/ConfigurationManager.ts&#45;&gt;src/core/logging.ts -->
<g id="edge7" class="edge">
<title>src/core/configuration/ConfigurationManager.ts&#45;&gt;src/core/logging.ts</title>
<path fill="none" stroke="#000000" stroke-width="2" stroke-opacity="0.200000" d="M300.58,-410.36C326.41,-412.32 356.08,-414.57 378.66,-416.28"/>
<polygon fill="#000000" fill-opacity="0.200000" stroke="#000000" stroke-width="2" stroke-opacity="0.200000" points="378.4,-418.37 384.54,-416.73 378.72,-414.18 378.4,-418.37"/>
</g>
<!-- src/data/MongoConnectionManager.ts -->
<g id="node12" class="node">
<title>src/data/MongoConnectionManager.ts</title>
<g id="a_node12"><a xlink:href="src/data/MongoConnectionManager.ts" xlink:title="MongoConnectionManager.ts">
<path fill="#ddfeff" stroke="black" d="M477.71,-320.25C477.71,-320.25 353.29,-320.25 353.29,-320.25 350.21,-320.25 347.12,-317.17 347.12,-314.08 347.12,-314.08 347.12,-307.92 347.12,-307.92 347.12,-304.83 350.21,-301.75 353.29,-301.75 353.29,-301.75 477.71,-301.75 477.71,-301.75 480.79,-301.75 483.88,-304.83 483.88,-307.92 483.88,-307.92 483.88,-314.08 483.88,-314.08 483.88,-317.17 480.79,-320.25 477.71,-320.25"/>
<text text-anchor="start" x="355.12" y="-307.7" font-family="Helvetica,sans-Serif" font-size="9.00">MongoConnectionManager.ts</text>
</a>
</g>
</g>
<!-- src/core/configuration/ConfigurationManager.ts&#45;&gt;src/data/MongoConnectionManager.ts -->
<g id="edge5" class="edge">
<title>src/core/configuration/ConfigurationManager.ts&#45;&gt;src/data/MongoConnectionManager.ts</title>
<path fill="none" stroke="#000000" stroke-width="2" stroke-opacity="0.200000" d="M300.5,-396.68C303.26,-395.59 305.94,-394.37 308.5,-393 312.94,-390.63 312.71,-388.3 316.5,-385 341.74,-363.04 372.87,-340.19 393.18,-325.8"/>
<polygon fill="#000000" fill-opacity="0.200000" stroke="#000000" stroke-width="2" stroke-opacity="0.200000" points="394.22,-327.63 397.92,-322.46 391.8,-324.19 394.22,-327.63"/>
</g>
<!-- src/misc/hash.ts -->
<g id="node17" class="node">
<title>src/misc/hash.ts</title>
<g id="a_node17"><a xlink:href="src/misc/hash.ts" xlink:title="hash.ts">
<path fill="#ddfeff" stroke="black" d="M618.46,-377.25C618.46,-377.25 576.79,-377.25 576.79,-377.25 573.71,-377.25 570.62,-374.17 570.62,-371.08 570.62,-371.08 570.62,-364.92 570.62,-364.92 570.62,-361.83 573.71,-358.75 576.79,-358.75 576.79,-358.75 618.46,-358.75 618.46,-358.75 621.54,-358.75 624.62,-361.83 624.62,-364.92 624.62,-364.92 624.62,-371.08 624.62,-371.08 624.62,-374.17 621.54,-377.25 618.46,-377.25"/>
<text text-anchor="start" x="583" y="-364.7" font-family="Helvetica,sans-Serif" font-size="9.00">hash.ts</text>
</a>
</g>
</g>
<!-- src/core/configuration/ConfigurationManager.ts&#45;&gt;src/misc/hash.ts -->
<g id="edge6" class="edge">
<title>src/core/configuration/ConfigurationManager.ts&#45;&gt;src/misc/hash.ts</title>
<path fill="none" stroke="#000000" stroke-width="2" stroke-opacity="0.200000" d="M299.92,-396.31C305.52,-395.47 311.11,-394.69 316.5,-394 404.43,-382.75 508.49,-374.39 561.6,-370.47"/>
<polygon fill="#000000" fill-opacity="0.200000" stroke="#000000" stroke-width="2" stroke-opacity="0.200000" points="561.45,-372.58 567.28,-370.05 561.14,-368.4 561.45,-372.58"/>
</g>
<!-- os -->
<g id="node27" class="node">
<title>os</title>
<g id="a_node27"><a xlink:title="os">
<path fill="#ffffcc" stroke="grey" d="M436.33,-198.25C436.33,-198.25 394.67,-198.25 394.67,-198.25 391.58,-198.25 388.5,-195.17 388.5,-192.08 388.5,-192.08 388.5,-185.92 388.5,-185.92 388.5,-182.83 391.58,-179.75 394.67,-179.75 394.67,-179.75 436.33,-179.75 436.33,-179.75 439.42,-179.75 442.5,-182.83 442.5,-185.92 442.5,-185.92 442.5,-192.08 442.5,-192.08 442.5,-195.17 439.42,-198.25 436.33,-198.25"/>
<text text-anchor="middle" x="415.5" y="-185.7" font-family="Helvetica,sans-Serif" font-size="9.00" fill="grey">os</text>
</a>
</g>
</g>
<!-- src/core/configuration/ConfigurationManager.ts&#45;&gt;os -->
<g id="edge4" class="edge">
<title>src/core/configuration/ConfigurationManager.ts&#45;&gt;os</title>
<path fill="none" stroke="#000000" stroke-dasharray="5,2" stroke-opacity="0.200000" d="M300.72,-399.67C303.6,-397.84 306.24,-395.64 308.5,-393 321.97,-377.3 302.92,-222.61 316.5,-207 332.04,-189.14 358.98,-185.23 380.68,-185.46"/>
<polygon fill="#000000" fill-opacity="0.200000" stroke="#000000" stroke-opacity="0.200000" points="380.53,-187.56 386.6,-185.65 380.67,-183.36 380.53,-187.56"/>
</g>
<!-- src/core/express.ts&#45;&gt;node_modules/cookie&#45;parser -->
<g id="edge8" class="edge">
<title>src/core/express.ts&#45;&gt;node_modules/cookie&#45;parser</title>
<path fill="none" stroke="#000000" stroke-opacity="0.200000" d="M248.15,-362.49C260.52,-339.22 292.09,-277.3 308.5,-222 314.65,-201.27 302.63,-190.6 316.5,-174 374.01,-105.18 422.29,-136.86 506.5,-106 510.07,-104.69 510.85,-104.03 514.5,-103 527.12,-99.43 541.05,-96.39 553.8,-93.95"/>
<polygon fill="#000000" fill-opacity="0.200000" stroke="#000000" stroke-opacity="0.200000" points="554.15,-96.02 559.67,-92.86 553.38,-91.89 554.15,-96.02"/>
</g>
<!-- src/core/express.ts&#45;&gt;node_modules/express -->
<g id="edge9" class="edge">
<title>src/core/express.ts&#45;&gt;node_modules/express</title>
<path fill="none" stroke="#000000" stroke-opacity="0.200000" d="M248.49,-362.58C261.62,-339.52 294.76,-278.02 308.5,-222 311.55,-209.56 307.89,-116.49 316.5,-107 345.27,-75.29 465.15,-86.12 506.5,-75 510.17,-74.01 510.85,-73.03 514.5,-72 530.36,-67.52 548.29,-63.86 563.34,-61.19"/>
<polygon fill="#000000" fill-opacity="0.200000" stroke="#000000" stroke-opacity="0.200000" points="563.43,-63.3 568.98,-60.21 562.71,-59.16 563.43,-63.3"/>
</g>
<!-- src/core/express.ts&#45;&gt;node_modules/express&#45;ws -->
<g id="edge10" class="edge">
<title>src/core/express.ts&#45;&gt;node_modules/express&#45;ws</title>
<path fill="none" stroke="#000000" stroke-opacity="0.200000" d="M248.55,-362.59C261.79,-339.56 295.17,-278.12 308.5,-222 312.25,-206.19 305.75,-88.19 316.5,-76 377.3,-7.06 497.56,-11.36 558.83,-18.88"/>
<polygon fill="#000000" fill-opacity="0.200000" stroke="#000000" stroke-opacity="0.200000" points="558.28,-20.93 564.5,-19.61 558.82,-16.76 558.28,-20.93"/>
</g>
<!-- src/core/logging.ts&#45;&gt;node_modules/pino -->
<g id="edge15" class="edge">
<title>src/core/logging.ts&#45;&gt;node_modules/pino</title>
<path fill="none" stroke="#000000" stroke-opacity="0.200000" d="M437.41,-409.45C458.83,-398.43 491.1,-378.16 506.5,-350 526.83,-312.82 495.79,-293.02 514.5,-255 527.52,-228.54 554.24,-206.96 573.67,-193.85"/>
<polygon fill="#000000" fill-opacity="0.200000" stroke="#000000" stroke-opacity="0.200000" points="574.82,-195.61 578.69,-190.56 572.52,-192.1 574.82,-195.61"/>
</g>
<!-- src/data/MongoConnectionManager.ts&#45;&gt;node_modules/mongodb -->
<g id="edge12" class="edge">
<title>src/data/MongoConnectionManager.ts&#45;&gt;node_modules/mongodb</title>
<path fill="none" stroke="#000000" stroke-opacity="0.200000" d="M484.19,-309.27C492.68,-306.29 500.48,-301.75 506.5,-295 525.76,-273.4 495.42,-186.76 514.5,-165 526.32,-151.53 545.82,-147.32 562.85,-146.58"/>
<polygon fill="#000000" fill-opacity="0.200000" stroke="#000000" stroke-opacity="0.200000" points="562.5,-148.69 568.46,-146.49 562.42,-144.49 562.5,-148.69"/>
</g>
<!-- src/misc/TypedEventListener.ts -->
<g id="node18" class="node">
<title>src/misc/TypedEventListener.ts</title>
<g id="a_node18"><a xlink:href="src/misc/TypedEventListener.ts" xlink:title="TypedEventListener.ts">
<path fill="#ddfeff" stroke="black" d="M644.46,-315.25C644.46,-315.25 550.79,-315.25 550.79,-315.25 547.71,-315.25 544.62,-312.17 544.62,-309.08 544.62,-309.08 544.62,-302.92 544.62,-302.92 544.62,-299.83 547.71,-296.75 550.79,-296.75 550.79,-296.75 644.46,-296.75 644.46,-296.75 647.54,-296.75 650.62,-299.83 650.62,-302.92 650.62,-302.92 650.62,-309.08 650.62,-309.08 650.62,-312.17 647.54,-315.25 644.46,-315.25"/>
<text text-anchor="start" x="552.62" y="-302.7" font-family="Helvetica,sans-Serif" font-size="9.00">TypedEventListener.ts</text>
</a>
</g>
</g>
<!-- src/data/MongoConnectionManager.ts&#45;&gt;src/misc/TypedEventListener.ts -->
<g id="edge13" class="edge">
<title>src/data/MongoConnectionManager.ts&#45;&gt;src/misc/TypedEventListener.ts</title>
<path fill="none" stroke="#000000" stroke-width="2" stroke-opacity="0.200000" d="M484.34,-309.12C501.09,-308.65 518.92,-308.16 535.34,-307.7"/>
<polygon fill="#000000" fill-opacity="0.200000" stroke="#000000" stroke-width="2" stroke-opacity="0.200000" points="535.33,-309.8 541.27,-307.54 535.21,-305.6 535.33,-309.8"/>
</g>
<!-- events -->
<g id="node25" class="node">
<title>events</title>
<g id="a_node25"><a xlink:title="events">
<path fill="#ffffcc" stroke="grey" d="M760.83,-185.25C760.83,-185.25 719.17,-185.25 719.17,-185.25 716.08,-185.25 713,-182.17 713,-179.08 713,-179.08 713,-172.92 713,-172.92 713,-169.83 716.08,-166.75 719.17,-166.75 719.17,-166.75 760.83,-166.75 760.83,-166.75 763.92,-166.75 767,-169.83 767,-172.92 767,-172.92 767,-179.08 767,-179.08 767,-182.17 763.92,-185.25 760.83,-185.25"/>
<text text-anchor="middle" x="740" y="-172.7" font-family="Helvetica,sans-Serif" font-size="9.00" fill="grey">events</text>
</a>
</g>
</g>
<!-- src/data/MongoConnectionManager.ts&#45;&gt;events -->
<g id="edge11" class="edge">
<title>src/data/MongoConnectionManager.ts&#45;&gt;events</title>
<path fill="none" stroke="#000000" stroke-dasharray="5,2" stroke-opacity="0.200000" d="M484.29,-308.19C492.55,-305.33 500.26,-301.11 506.5,-295 519.46,-282.32 501.84,-267.97 514.5,-255 565.38,-202.88 621.19,-268.76 674.38,-219 683.51,-210.45 673.47,-200.79 682.38,-192 688.56,-185.89 696.89,-182.08 705.25,-179.71"/>
<polygon fill="#000000" fill-opacity="0.200000" stroke="#000000" stroke-opacity="0.200000" points="705.73,-181.75 711.08,-178.32 704.76,-177.66 705.73,-181.75"/>
</g>
<!-- src/data/RedisConnectionManager.ts -->
<g id="node13" class="node">
<title>src/data/RedisConnectionManager.ts</title>
<g id="a_node13"><a xlink:href="src/data/RedisConnectionManager.ts" xlink:title="RedisConnectionManager.ts">
<path fill="#ddfeff" stroke="black" d="M475.46,-289.25C475.46,-289.25 355.54,-289.25 355.54,-289.25 352.46,-289.25 349.38,-286.17 349.38,-283.08 349.38,-283.08 349.38,-276.92 349.38,-276.92 349.38,-273.83 352.46,-270.75 355.54,-270.75 355.54,-270.75 475.46,-270.75 475.46,-270.75 478.54,-270.75 481.62,-273.83 481.62,-276.92 481.62,-276.92 481.62,-283.08 481.62,-283.08 481.62,-286.17 478.54,-289.25 475.46,-289.25"/>
<text text-anchor="start" x="357.38" y="-276.7" font-family="Helvetica,sans-Serif" font-size="9.00">RedisConnectionManager.ts</text>
</a>
</g>
</g>
<!-- src/data/RedisConnectionManager.ts&#45;&gt;node_modules/redis -->
<g id="edge17" class="edge">
<title>src/data/RedisConnectionManager.ts&#45;&gt;node_modules/redis</title>
<path fill="none" stroke="#000000" stroke-opacity="0.200000" d="M481.94,-279.01C491.3,-276.07 499.95,-271.34 506.5,-264 525.76,-242.4 495.42,-155.76 514.5,-134 526.4,-120.43 546.09,-116.26 563.21,-115.57"/>
<polygon fill="#000000" fill-opacity="0.200000" stroke="#000000" stroke-opacity="0.200000" points="562.88,-117.67 568.85,-115.49 562.82,-113.47 562.88,-117.67"/>
</g>
<!-- src/data/WeakRefCache.ts -->
<g id="node14" class="node">
<title>src/data/WeakRefCache.ts</title>
<g id="a_node14"><a xlink:href="src/data/WeakRefCache.ts" xlink:title="WeakRefCache.ts">
<path fill="#ccffcc" stroke="black" d="M454.08,-258.25C454.08,-258.25 376.92,-258.25 376.92,-258.25 373.83,-258.25 370.75,-255.17 370.75,-252.08 370.75,-252.08 370.75,-245.92 370.75,-245.92 370.75,-242.83 373.83,-239.75 376.92,-239.75 376.92,-239.75 454.08,-239.75 454.08,-239.75 457.17,-239.75 460.25,-242.83 460.25,-245.92 460.25,-245.92 460.25,-252.08 460.25,-252.08 460.25,-255.17 457.17,-258.25 454.08,-258.25"/>
<text text-anchor="start" x="378.75" y="-245.7" font-family="Helvetica,sans-Serif" font-size="9.00">WeakRefCache.ts</text>
</a>
</g>
</g>
<!-- src/middleware/expressPinoLogger.ts -->
<g id="node15" class="node">
<title>src/middleware/expressPinoLogger.ts</title>
<g id="a_node15"><a xlink:href="src/middleware/expressPinoLogger.ts" xlink:title="expressPinoLogger.ts">
<path fill="#ddfeff" stroke="black" d="M133.96,-381.25C133.96,-381.25 41.79,-381.25 41.79,-381.25 38.71,-381.25 35.62,-378.17 35.62,-375.08 35.62,-375.08 35.62,-368.92 35.62,-368.92 35.62,-365.83 38.71,-362.75 41.79,-362.75 41.79,-362.75 133.96,-362.75 133.96,-362.75 137.04,-362.75 140.12,-365.83 140.12,-368.92 140.12,-368.92 140.12,-375.08 140.12,-375.08 140.12,-378.17 137.04,-381.25 133.96,-381.25"/>
<text text-anchor="start" x="43.62" y="-368.7" font-family="Helvetica,sans-Serif" font-size="9.00">expressPinoLogger.ts</text>
</a>
</g>
</g>
<!-- src/middleware/expressPinoLogger.ts&#45;&gt;src/core/express.ts -->
<g id="edge21" class="edge">
<title>src/middleware/expressPinoLogger.ts&#45;&gt;src/core/express.ts</title>
<path fill="none" stroke="#000000" stroke-width="2" stroke-opacity="0.200000" d="M140.38,-372C161.27,-372 184.92,-372 204.05,-372"/>
<polygon fill="#000000" fill-opacity="0.200000" stroke="#000000" stroke-width="2" stroke-opacity="0.200000" points="204.02,-374.1 210.02,-372 204.02,-369.9 204.02,-374.1"/>
</g>
<!-- src/middleware/expressPinoLogger.ts&#45;&gt;src/core/logging.ts -->
<g id="edge22" class="edge">
<title>src/middleware/expressPinoLogger.ts&#45;&gt;src/core/logging.ts</title>
<path fill="none" stroke="#000000" stroke-width="2" stroke-opacity="0.200000" d="M117.23,-381.6C132.2,-388.13 149.53,-398.29 159.75,-413 171.84,-430.4 151.56,-446.33 167.75,-460 233.15,-515.21 344.11,-461.1 391.71,-433.28"/>
<polygon fill="#000000" fill-opacity="0.200000" stroke="#000000" stroke-width="2" stroke-opacity="0.200000" points="392.64,-435.17 396.71,-430.29 390.49,-431.57 392.64,-435.17"/>
</g>
<!-- src/middleware/responseStandardization.ts -->
<g id="node16" class="node">
<title>src/middleware/responseStandardization.ts</title>
<g id="a_node16"><a xlink:href="src/middleware/responseStandardization.ts" xlink:title="responseStandardization.ts">
<path fill="#ddfeff" stroke="black" d="M145.58,-350.25C145.58,-350.25 30.17,-350.25 30.17,-350.25 27.08,-350.25 24,-347.17 24,-344.08 24,-344.08 24,-337.92 24,-337.92 24,-334.83 27.08,-331.75 30.17,-331.75 30.17,-331.75 145.58,-331.75 145.58,-331.75 148.67,-331.75 151.75,-334.83 151.75,-337.92 151.75,-337.92 151.75,-344.08 151.75,-344.08 151.75,-347.17 148.67,-350.25 145.58,-350.25"/>
<text text-anchor="start" x="32" y="-337.7" font-family="Helvetica,sans-Serif" font-size="9.00">responseStandardization.ts</text>
</a>
</g>
</g>
<!-- src/middleware/responseStandardization.ts&#45;&gt;src/core/express.ts -->
<g id="edge23" class="edge">
<title>src/middleware/responseStandardization.ts&#45;&gt;src/core/express.ts</title>
<path fill="none" stroke="#000000" stroke-width="2" stroke-opacity="0.200000" d="M136.59,-350.72C158.45,-355.18 183.96,-360.38 204.29,-364.52"/>
<polygon fill="#000000" fill-opacity="0.200000" stroke="#000000" stroke-width="2" stroke-opacity="0.200000" points="203.68,-366.54 209.98,-365.68 204.52,-362.42 203.68,-366.54"/>
</g>
<!-- crypto -->
<g id="node24" class="node">
<title>crypto</title>
<g id="a_node24"><a xlink:title="crypto">
<path fill="#ffffcc" stroke="grey" d="M760.83,-216.25C760.83,-216.25 719.17,-216.25 719.17,-216.25 716.08,-216.25 713,-213.17 713,-210.08 713,-210.08 713,-203.92 713,-203.92 713,-200.83 716.08,-197.75 719.17,-197.75 719.17,-197.75 760.83,-197.75 760.83,-197.75 763.92,-197.75 767,-200.83 767,-203.92 767,-203.92 767,-210.08 767,-210.08 767,-213.17 763.92,-216.25 760.83,-216.25"/>
<text text-anchor="middle" x="740" y="-203.7" font-family="Helvetica,sans-Serif" font-size="9.00" fill="grey">crypto</text>
</a>
</g>
</g>
<!-- src/misc/hash.ts&#45;&gt;crypto -->
<g id="edge14" class="edge">
<title>src/misc/hash.ts&#45;&gt;crypto</title>
<path fill="none" stroke="#000000" stroke-dasharray="5,2" stroke-opacity="0.200000" d="M624.99,-369.79C641.66,-369.37 662.29,-365.71 674.38,-352 688.68,-335.77 672.48,-274.23 682.38,-255 689.7,-240.75 703.27,-229.02 715.28,-220.72"/>
<polygon fill="#000000" fill-opacity="0.200000" stroke="#000000" stroke-opacity="0.200000" points="716.27,-222.59 720.12,-217.54 713.96,-219.08 716.27,-222.59"/>
</g>
<!-- src/misc/TypedEventListener.ts&#45;&gt;events -->
<g id="edge16" class="edge">
<title>src/misc/TypedEventListener.ts&#45;&gt;events</title>
<path fill="none" stroke="#000000" stroke-dasharray="5,2" stroke-opacity="0.200000" d="M651.02,-304C659.92,-301.33 668.25,-296.96 674.38,-290 688.82,-273.6 668.49,-208.87 682.38,-192 688.1,-185.04 696.62,-180.97 705.31,-178.64"/>
<polygon fill="#000000" fill-opacity="0.200000" stroke="#000000" stroke-opacity="0.200000" points="705.7,-180.7 711.12,-177.38 704.81,-176.6 705.7,-180.7"/>
</g>
<!-- src/misc/ExhaustiveCodePathChecking.ts -->
<g id="node19" class="node">
<title>src/misc/ExhaustiveCodePathChecking.ts</title>
<g id="a_node19"><a xlink:href="src/misc/ExhaustiveCodePathChecking.ts" xlink:title="ExhaustiveCodePathChecking.ts">
<path fill="#ccffcc" stroke="black" d="M666.58,-346.25C666.58,-346.25 528.67,-346.25 528.67,-346.25 525.58,-346.25 522.5,-343.17 522.5,-340.08 522.5,-340.08 522.5,-333.92 522.5,-333.92 522.5,-330.83 525.58,-327.75 528.67,-327.75 528.67,-327.75 666.58,-327.75 666.58,-327.75 669.67,-327.75 672.75,-330.83 672.75,-333.92 672.75,-333.92 672.75,-340.08 672.75,-340.08 672.75,-343.17 669.67,-346.25 666.58,-346.25"/>
<text text-anchor="start" x="530.5" y="-333.7" font-family="Helvetica,sans-Serif" font-size="9.00">ExhaustiveCodePathChecking.ts</text>
</a>
</g>
</g>
<!-- src/misc/WaitFor.ts -->
<g id="node20" class="node">
<title>src/misc/WaitFor.ts</title>
<g id="a_node20"><a xlink:href="src/misc/WaitFor.ts" xlink:title="WaitFor.ts">
<path fill="#ddfeff" stroke="black" d="M619.33,-408.25C619.33,-408.25 575.92,-408.25 575.92,-408.25 572.83,-408.25 569.75,-405.17 569.75,-402.08 569.75,-402.08 569.75,-395.92 569.75,-395.92 569.75,-392.83 572.83,-389.75 575.92,-389.75 575.92,-389.75 619.33,-389.75 619.33,-389.75 622.42,-389.75 625.5,-392.83 625.5,-395.92 625.5,-395.92 625.5,-402.08 625.5,-402.08 625.5,-405.17 622.42,-408.25 619.33,-408.25"/>
<text text-anchor="start" x="577.75" y="-395.7" font-family="Helvetica,sans-Serif" font-size="9.00">WaitFor.ts</text>
</a>
</g>
</g>
<!-- src/misc/yieldExecution.ts -->
<g id="node21" class="node">
<title>src/misc/yieldExecution.ts</title>
<g id="a_node21"><a xlink:href="src/misc/yieldExecution.ts" xlink:title="yieldExecution.ts">
<path fill="#ddfeff" stroke="black" d="M776.33,-408.25C776.33,-408.25 703.67,-408.25 703.67,-408.25 700.58,-408.25 697.5,-405.17 697.5,-402.08 697.5,-402.08 697.5,-395.92 697.5,-395.92 697.5,-392.83 700.58,-389.75 703.67,-389.75 703.67,-389.75 776.33,-389.75 776.33,-389.75 779.42,-389.75 782.5,-392.83 782.5,-395.92 782.5,-395.92 782.5,-402.08 782.5,-402.08 782.5,-405.17 779.42,-408.25 776.33,-408.25"/>
<text text-anchor="start" x="705.5" y="-395.7" font-family="Helvetica,sans-Serif" font-size="9.00">yieldExecution.ts</text>
</a>
</g>
</g>
<!-- src/misc/WaitFor.ts&#45;&gt;src/misc/yieldExecution.ts -->
<g id="edge24" class="edge">
<title>src/misc/WaitFor.ts&#45;&gt;src/misc/yieldExecution.ts</title>
<path fill="none" stroke="#000000" stroke-width="2" stroke-opacity="0.200000" d="M625.69,-399C643.4,-399 667.08,-399 688.22,-399"/>
<polygon fill="#000000" fill-opacity="0.200000" stroke="#000000" stroke-width="2" stroke-opacity="0.200000" points="688.07,-401.1 694.07,-399 688.07,-396.9 688.07,-401.1"/>
</g>
<!-- src/misc/delay.ts -->
<g id="node22" class="node">
<title>src/misc/delay.ts</title>
<g id="a_node22"><a xlink:href="src/misc/delay.ts" xlink:title="delay.ts">
<path fill="#ccffcc" stroke="black" d="M618.46,-284.25C618.46,-284.25 576.79,-284.25 576.79,-284.25 573.71,-284.25 570.62,-281.17 570.62,-278.08 570.62,-278.08 570.62,-271.92 570.62,-271.92 570.62,-268.83 573.71,-265.75 576.79,-265.75 576.79,-265.75 618.46,-265.75 618.46,-265.75 621.54,-265.75 624.62,-268.83 624.62,-271.92 624.62,-271.92 624.62,-278.08 624.62,-278.08 624.62,-281.17 621.54,-284.25 618.46,-284.25"/>
<text text-anchor="start" x="582.25" y="-271.7" font-family="Helvetica,sans-Serif" font-size="9.00">delay.ts</text>
</a>
</g>
</g>
<!-- src/entryPoint.ts -->
<g id="node23" class="node">
<title>src/entryPoint.ts</title>
<g id="a_node23"><a xlink:href="src/entryPoint.ts" xlink:title="entryPoint.ts">
<path fill="#ddfeff" stroke="black" d="M114.83,-255.25C114.83,-255.25 60.92,-255.25 60.92,-255.25 57.83,-255.25 54.75,-252.17 54.75,-249.08 54.75,-249.08 54.75,-242.92 54.75,-242.92 54.75,-239.83 57.83,-236.75 60.92,-236.75 60.92,-236.75 114.83,-236.75 114.83,-236.75 117.92,-236.75 121,-239.83 121,-242.92 121,-242.92 121,-249.08 121,-249.08 121,-252.17 117.92,-255.25 114.83,-255.25"/>
<text text-anchor="start" x="62.75" y="-242.7" font-family="Helvetica,sans-Serif" font-size="9.00">entryPoint.ts</text>
</a>
</g>
</g>
<!-- src/entryPoint.ts&#45;&gt;src/core/express.ts -->
<g id="edge19" class="edge">
<title>src/entryPoint.ts&#45;&gt;src/core/express.ts</title>
<path fill="none" stroke="#000000" stroke-width="2" stroke-opacity="0.200000" d="M121.47,-247.36C134.21,-249.14 148.44,-252.77 159.75,-260 196.13,-283.28 221.49,-329.1 233.36,-354.32"/>
<polygon fill="#000000" fill-opacity="0.200000" stroke="#000000" stroke-width="2" stroke-opacity="0.200000" points="231.35,-354.97 235.74,-359.56 235.17,-353.23 231.35,-354.97"/>
</g>
<!-- src/entryPoint.ts&#45;&gt;src/core/logging.ts -->
<g id="edge20" class="edge">
<title>src/entryPoint.ts&#45;&gt;src/core/logging.ts</title>
<path fill="none" stroke="#000000" stroke-width="2" stroke-opacity="0.200000" d="M121.14,-244.1C135.1,-245.12 150.35,-249.06 159.75,-260 173.15,-275.61 152.89,-430.77 167.75,-445 190.34,-466.63 277.45,-448.75 308.5,-445 332.26,-442.13 358.38,-435.76 378.74,-430.05"/>
<polygon fill="#000000" fill-opacity="0.200000" stroke="#000000" stroke-width="2" stroke-opacity="0.200000" points="379.28,-432.08 384.47,-428.4 378.12,-428.04 379.28,-432.08"/>
</g>
<!-- fs -->
<g id="node26" class="node">
<title>fs</title>
<g id="a_node26"><a xlink:title="fs">
<path fill="#ffffcc" stroke="grey" d="M262.83,-216.25C262.83,-216.25 221.17,-216.25 221.17,-216.25 218.08,-216.25 215,-213.17 215,-210.08 215,-210.08 215,-203.92 215,-203.92 215,-200.83 218.08,-197.75 221.17,-197.75 221.17,-197.75 262.83,-197.75 262.83,-197.75 265.92,-197.75 269,-200.83 269,-203.92 269,-203.92 269,-210.08 269,-210.08 269,-213.17 265.92,-216.25 262.83,-216.25"/>
<text text-anchor="middle" x="242" y="-203.7" font-family="Helvetica,sans-Serif" font-size="9.00" fill="grey">fs</text>
</a>
</g>
</g>
<!-- src/entryPoint.ts&#45;&gt;fs -->
<g id="edge18" class="edge">
<title>src/entryPoint.ts&#45;&gt;fs</title>
<path fill="none" stroke="#000000" stroke-dasharray="5,2" stroke-opacity="0.200000" d="M121.14,-237.73C146.65,-231.19 182.13,-222.09 207.87,-215.49"/>
<polygon fill="#000000" fill-opacity="0.200000" stroke="#000000" stroke-opacity="0.200000" points="208.09,-217.6 213.38,-214.08 207.05,-213.54 208.09,-217.6"/>
</g>
<!-- node_modules/@mui/icons&#45;material -->
<g id="node28" class="node">
<title>node_modules/@mui/icons&#45;material</title>
<g id="a_node28"><a xlink:href="node_modules/@mui/icons-material" xlink:title="icons&#45;material">
<polygon fill="#c40b0a" fill-opacity="0.101961" stroke="black" points="776.88,-930.25 705.18,-930.25 703.12,-928.19 703.12,-911.75 774.82,-911.75 776.88,-913.81 776.88,-930.25"/>
<polyline fill="none" stroke="black" points="774.82,-928.19 703.12,-928.19"/>
<polyline fill="none" stroke="black" points="774.82,-928.19 774.82,-911.75"/>
<polyline fill="none" stroke="black" points="774.82,-928.19 776.88,-930.25"/>
<text text-anchor="start" x="711.12" y="-917.7" font-family="Helvetica,sans-Serif" font-size="9.00" fill="#c40b0a">icons&#45;material</text>
</a>
</g>
</g>
<!-- node_modules/@mui/material -->
<g id="node29" class="node">
<title>node_modules/@mui/material</title>
<g id="a_node29"><a xlink:href="node_modules/@mui/material" xlink:title="material">
<polygon fill="#c40b0a" fill-opacity="0.101961" stroke="black" points="767,-961.25 715.06,-961.25 713,-959.19 713,-942.75 764.94,-942.75 767,-944.81 767,-961.25"/>
<polyline fill="none" stroke="black" points="764.94,-959.19 713,-959.19"/>
<polyline fill="none" stroke="black" points="764.94,-959.19 764.94,-942.75"/>
<polyline fill="none" stroke="black" points="764.94,-959.19 767,-961.25"/>
<text text-anchor="start" x="723.5" y="-948.7" font-family="Helvetica,sans-Serif" font-size="9.00" fill="#c40b0a">material</text>
</a>
</g>
</g>
<!-- node_modules/@testing&#45;library/jest&#45;dom -->
<g id="node30" class="node">
<title>node_modules/@testing&#45;library/jest&#45;dom</title>
<g id="a_node30"><a xlink:href="node_modules/@testing-library/jest-dom" xlink:title="jest&#45;dom">
<polygon fill="#c40b0a" fill-opacity="0.101961" stroke="black" points="767,-657.25 715.06,-657.25 713,-655.19 713,-638.75 764.94,-638.75 767,-640.81 767,-657.25"/>
<polyline fill="none" stroke="black" points="764.94,-655.19 713,-655.19"/>
<polyline fill="none" stroke="black" points="764.94,-655.19 764.94,-638.75"/>
<polyline fill="none" stroke="black" points="764.94,-655.19 767,-657.25"/>
<text text-anchor="start" x="722.38" y="-644.7" font-family="Helvetica,sans-Serif" font-size="9.00" fill="#c40b0a">jest&#45;dom</text>
</a>
</g>
</g>
<!-- node_modules/@testing&#45;library/react -->
<g id="node31" class="node">
<title>node_modules/@testing&#45;library/react</title>
<g id="a_node31"><a xlink:href="node_modules/@testing-library/react" xlink:title="react">
<polygon fill="#c40b0a" fill-opacity="0.101961" stroke="black" points="767,-688.25 715.06,-688.25 713,-686.19 713,-669.75 764.94,-669.75 767,-671.81 767,-688.25"/>
<polyline fill="none" stroke="black" points="764.94,-686.19 713,-686.19"/>
<polyline fill="none" stroke="black" points="764.94,-686.19 764.94,-669.75"/>
<polyline fill="none" stroke="black" points="764.94,-686.19 767,-688.25"/>
<text text-anchor="start" x="729.88" y="-675.7" font-family="Helvetica,sans-Serif" font-size="9.00" fill="#c40b0a">react</text>
</a>
</g>
</g>
<!-- node_modules/react -->
<g id="node32" class="node">
<title>node_modules/react</title>
<g id="a_node32"><a xlink:href="node_modules/react" xlink:title="react">
<polygon fill="#c40b0a" fill-opacity="0.101961" stroke="black" points="767,-896.25 715.06,-896.25 713,-894.19 713,-877.75 764.94,-877.75 767,-879.81 767,-896.25"/>
<polyline fill="none" stroke="black" points="764.94,-894.19 713,-894.19"/>
<polyline fill="none" stroke="black" points="764.94,-894.19 764.94,-877.75"/>
<polyline fill="none" stroke="black" points="764.94,-894.19 767,-896.25"/>
<text text-anchor="start" x="729.88" y="-883.7" font-family="Helvetica,sans-Serif" font-size="9.00" fill="#c40b0a">react</text>
</a>
</g>
</g>
<!-- node_modules/react&#45;dom -->
<g id="node33" class="node">
<title>node_modules/react&#45;dom</title>
<g id="a_node33"><a xlink:href="node_modules/react-dom" xlink:title="react&#45;dom">
<polygon fill="#c40b0a" fill-opacity="0.101961" stroke="black" points="768.62,-803.25 713.43,-803.25 711.38,-801.19 711.38,-784.75 766.57,-784.75 768.62,-786.81 768.62,-803.25"/>
<polyline fill="none" stroke="black" points="766.57,-801.19 711.38,-801.19"/>
<polyline fill="none" stroke="black" points="766.57,-801.19 766.57,-784.75"/>
<polyline fill="none" stroke="black" points="766.57,-801.19 768.62,-803.25"/>
<text text-anchor="start" x="719.38" y="-790.7" font-family="Helvetica,sans-Serif" font-size="9.00" fill="#c40b0a">react&#45;dom</text>
</a>
</g>
</g>
<!-- node_modules/react&#45;router&#45;dom -->
<g id="node34" class="node">
<title>node_modules/react&#45;router&#45;dom</title>
<g id="a_node34"><a xlink:href="node_modules/react-router-dom" xlink:title="react&#45;router&#45;dom">
<polygon fill="#c40b0a" fill-opacity="0.101961" stroke="black" points="782.12,-865.25 699.93,-865.25 697.88,-863.19 697.88,-846.75 780.07,-846.75 782.12,-848.81 782.12,-865.25"/>
<polyline fill="none" stroke="black" points="780.07,-863.19 697.88,-863.19"/>
<polyline fill="none" stroke="black" points="780.07,-863.19 780.07,-846.75"/>
<polyline fill="none" stroke="black" points="780.07,-863.19 782.12,-865.25"/>
<text text-anchor="start" x="705.88" y="-852.7" font-family="Helvetica,sans-Serif" font-size="9.00" fill="#c40b0a">react&#45;router&#45;dom</text>
</a>
</g>
</g>
<!-- node_modules/react&#45;scripts -->
<g id="node35" class="node">
<title>node_modules/react&#45;scripts</title>
<g id="a_node35"><a xlink:href="node_modules/react-scripts" xlink:title="react&#45;scripts">
<polygon fill="#c40b0a" fill-opacity="0.101961" stroke="black" points="772.75,-772.25 709.31,-772.25 707.25,-770.19 707.25,-753.75 770.69,-753.75 772.75,-755.81 772.75,-772.25"/>
<polyline fill="none" stroke="black" points="770.69,-770.19 707.25,-770.19"/>
<polyline fill="none" stroke="black" points="770.69,-770.19 770.69,-753.75"/>
<polyline fill="none" stroke="black" points="770.69,-770.19 772.75,-772.25"/>
<text text-anchor="start" x="715.25" y="-759.7" font-family="Helvetica,sans-Serif" font-size="9.00" fill="#c40b0a">react&#45;scripts</text>
</a>
</g>
</g>
<!-- node_modules/web&#45;vitals -->
<g id="node36" class="node">
<title>node_modules/web&#45;vitals</title>
<g id="a_node36"><a xlink:href="node_modules/web-vitals" xlink:title="web&#45;vitals">
<polygon fill="#c40b0a" fill-opacity="0.101961" stroke="black" points="768.62,-834.25 713.43,-834.25 711.38,-832.19 711.38,-815.75 766.57,-815.75 768.62,-817.81 768.62,-834.25"/>
<polyline fill="none" stroke="black" points="766.57,-832.19 711.38,-832.19"/>
<polyline fill="none" stroke="black" points="766.57,-832.19 766.57,-815.75"/>
<polyline fill="none" stroke="black" points="766.57,-832.19 768.62,-834.25"/>
<text text-anchor="start" x="719.38" y="-821.7" font-family="Helvetica,sans-Serif" font-size="9.00" fill="#c40b0a">web&#45;vitals</text>
</a>
</g>
</g>
<!-- node_modules/workbox&#45;core -->
<g id="node37" class="node">
<title>node_modules/workbox&#45;core</title>
<g id="a_node37"><a xlink:href="node_modules/workbox-core" xlink:title="workbox&#45;core">
<polygon fill="#c40b0a" fill-opacity="0.101961" stroke="black" points="775.75,-741.25 706.31,-741.25 704.25,-739.19 704.25,-722.75 773.69,-722.75 775.75,-724.81 775.75,-741.25"/>
<polyline fill="none" stroke="black" points="773.69,-739.19 704.25,-739.19"/>
<polyline fill="none" stroke="black" points="773.69,-739.19 773.69,-722.75"/>
<polyline fill="none" stroke="black" points="773.69,-739.19 775.75,-741.25"/>
<text text-anchor="start" x="712.25" y="-728.7" font-family="Helvetica,sans-Serif" font-size="9.00" fill="#c40b0a">workbox&#45;core</text>
</a>
</g>
</g>
<!-- node_modules/workbox&#45;expiration -->
<g id="node38" class="node">
<title>node_modules/workbox&#45;expiration</title>
<g id="a_node38"><a xlink:href="node_modules/workbox-expiration" xlink:title="workbox&#45;expiration">
<polygon fill="#c40b0a" fill-opacity="0.101961" stroke="black" points="787,-623.25 695.06,-623.25 693,-621.19 693,-604.75 784.94,-604.75 787,-606.81 787,-623.25"/>
<polyline fill="none" stroke="black" points="784.94,-621.19 693,-621.19"/>
<polyline fill="none" stroke="black" points="784.94,-621.19 784.94,-604.75"/>
<polyline fill="none" stroke="black" points="784.94,-621.19 787,-623.25"/>
<text text-anchor="start" x="701" y="-610.7" font-family="Helvetica,sans-Serif" font-size="9.00" fill="#c40b0a">workbox&#45;expiration</text>
</a>
</g>
</g>
<!-- node_modules/workbox&#45;precaching -->
<g id="node39" class="node">
<title>node_modules/workbox&#45;precaching</title>
<g id="a_node39"><a xlink:href="node_modules/workbox-precaching" xlink:title="workbox&#45;precaching">
<polygon fill="#c40b0a" fill-opacity="0.101961" stroke="black" points="789.62,-592.25 692.43,-592.25 690.38,-590.19 690.38,-573.75 787.57,-573.75 789.62,-575.81 789.62,-592.25"/>
<polyline fill="none" stroke="black" points="787.57,-590.19 690.38,-590.19"/>
<polyline fill="none" stroke="black" points="787.57,-590.19 787.57,-573.75"/>
<polyline fill="none" stroke="black" points="787.57,-590.19 789.62,-592.25"/>
<text text-anchor="start" x="698.38" y="-579.7" font-family="Helvetica,sans-Serif" font-size="9.00" fill="#c40b0a">workbox&#45;precaching</text>
</a>
</g>
</g>
<!-- node_modules/workbox&#45;routing -->
<g id="node40" class="node">
<title>node_modules/workbox&#45;routing</title>
<g id="a_node40"><a xlink:href="node_modules/workbox-routing" xlink:title="workbox&#45;routing">
<polygon fill="#c40b0a" fill-opacity="0.101961" stroke="black" points="781,-561.25 701.06,-561.25 699,-559.19 699,-542.75 778.94,-542.75 781,-544.81 781,-561.25"/>
<polyline fill="none" stroke="black" points="778.94,-559.19 699,-559.19"/>
<polyline fill="none" stroke="black" points="778.94,-559.19 778.94,-542.75"/>
<polyline fill="none" stroke="black" points="778.94,-559.19 781,-561.25"/>
<text text-anchor="start" x="707" y="-548.7" font-family="Helvetica,sans-Serif" font-size="9.00" fill="#c40b0a">workbox&#45;routing</text>
</a>
</g>
</g>
<!-- node_modules/workbox&#45;strategies -->
<g id="node41" class="node">
<title>node_modules/workbox&#45;strategies</title>
<g id="a_node41"><a xlink:href="node_modules/workbox-strategies" xlink:title="workbox&#45;strategies">
<polygon fill="#c40b0a" fill-opacity="0.101961" stroke="black" points="786.62,-530.25 695.43,-530.25 693.38,-528.19 693.38,-511.75 784.57,-511.75 786.62,-513.81 786.62,-530.25"/>
<polyline fill="none" stroke="black" points="784.57,-528.19 693.38,-528.19"/>
<polyline fill="none" stroke="black" points="784.57,-528.19 784.57,-511.75"/>
<polyline fill="none" stroke="black" points="784.57,-528.19 786.62,-530.25"/>
<text text-anchor="start" x="701.38" y="-517.7" font-family="Helvetica,sans-Serif" font-size="9.00" fill="#c40b0a">workbox&#45;strategies</text>
</a>
</g>
</g>
<!-- src/clientShared/UserInterface.ts_gv1 -->
<g id="node42" class="node">
<title>src/clientShared/UserInterface.ts_gv1</title>
<g id="a_node42"><a xlink:href="src/clientShared/UserInterface.ts" xlink:title="UserInterface.ts">
<path fill="#ccffcc" stroke="black" d="M121.58,-1320.25C121.58,-1320.25 54.17,-1320.25 54.17,-1320.25 51.08,-1320.25 48,-1317.17 48,-1314.08 48,-1314.08 48,-1307.92 48,-1307.92 48,-1304.83 51.08,-1301.75 54.17,-1301.75 54.17,-1301.75 121.58,-1301.75 121.58,-1301.75 124.67,-1301.75 127.75,-1304.83 127.75,-1307.92 127.75,-1307.92 127.75,-1314.08 127.75,-1314.08 127.75,-1317.17 124.67,-1320.25 121.58,-1320.25"/>
<text text-anchor="start" x="56" y="-1307.7" font-family="Helvetica,sans-Serif" font-size="9.00">UserInterface.ts</text>
</a>
</g>
</g>
<!-- src/components/buildingblocks/layout/HorizontalSplit.tsx -->
<g id="node43" class="node">
<title>src/components/buildingblocks/layout/HorizontalSplit.tsx</title>
<g id="a_node43"><a xlink:href="src/components/buildingblocks/layout/HorizontalSplit.tsx" xlink:title="HorizontalSplit.tsx">
<path fill="#bbfeff" stroke="black" d="M636.21,-1200.25C636.21,-1200.25 559.04,-1200.25 559.04,-1200.25 555.96,-1200.25 552.88,-1197.17 552.88,-1194.08 552.88,-1194.08 552.88,-1187.92 552.88,-1187.92 552.88,-1184.83 555.96,-1181.75 559.04,-1181.75 559.04,-1181.75 636.21,-1181.75 636.21,-1181.75 639.29,-1181.75 642.38,-1184.83 642.38,-1187.92 642.38,-1187.92 642.38,-1194.08 642.38,-1194.08 642.38,-1197.17 639.29,-1200.25 636.21,-1200.25"/>
<text text-anchor="start" x="560.88" y="-1187.7" font-family="Helvetica,sans-Serif" font-size="9.00">HorizontalSplit.tsx</text>
</a>
</g>
</g>
<!-- src/components/buildingblocks/layout/HorizontalSplit.tsx&#45;&gt;node_modules/@mui/material -->
<g id="edge35" class="edge">
<title>src/components/buildingblocks/layout/HorizontalSplit.tsx&#45;&gt;node_modules/@mui/material</title>
<path fill="none" stroke="#000000" stroke-opacity="0.200000" d="M642.78,-1191.62C654.22,-1189.74 665.73,-1185.75 674.38,-1178 736.59,-1122.2 740.62,-1011.04 739.74,-968.81"/>
<polygon fill="#000000" fill-opacity="0.200000" stroke="#000000" stroke-opacity="0.200000" points="741.85,-968.98 739.57,-963.05 737.65,-969.11 741.85,-968.98"/>
</g>
<!-- src/components/buildingblocks/Header.tsx -->
<g id="node44" class="node">
<title>src/components/buildingblocks/Header.tsx</title>
<g id="a_node44"><a xlink:href="src/components/buildingblocks/Header.tsx" xlink:title="Header.tsx">
<path fill="#bbfeff" stroke="black" d="M621.21,-1166.25C621.21,-1166.25 574.04,-1166.25 574.04,-1166.25 570.96,-1166.25 567.88,-1163.17 567.88,-1160.08 567.88,-1160.08 567.88,-1153.92 567.88,-1153.92 567.88,-1150.83 570.96,-1147.75 574.04,-1147.75 574.04,-1147.75 621.21,-1147.75 621.21,-1147.75 624.29,-1147.75 627.38,-1150.83 627.38,-1153.92 627.38,-1153.92 627.38,-1160.08 627.38,-1160.08 627.38,-1163.17 624.29,-1166.25 621.21,-1166.25"/>
<text text-anchor="start" x="575.88" y="-1153.7" font-family="Helvetica,sans-Serif" font-size="9.00">Header.tsx</text>
</a>
</g>
</g>
<!-- src/components/buildingblocks/Header.tsx&#45;&gt;node_modules/@mui/icons&#45;material -->
<g id="edge32" class="edge">
<title>src/components/buildingblocks/Header.tsx&#45;&gt;node_modules/@mui/icons&#45;material</title>
<path fill="none" stroke="#000000" stroke-opacity="0.200000" d="M627.64,-1156.44C644.04,-1154.47 663.4,-1149.02 674.38,-1135 687.95,-1117.66 668.74,-954.29 682.38,-937 685.93,-932.49 690.66,-929.19 695.88,-926.78"/>
<polygon fill="#000000" fill-opacity="0.200000" stroke="#000000" stroke-opacity="0.200000" points="696.41,-928.83 701.27,-924.73 694.92,-924.9 696.41,-928.83"/>
</g>
<!-- src/components/buildingblocks/Header.tsx&#45;&gt;node_modules/@mui/material -->
<g id="edge33" class="edge">
<title>src/components/buildingblocks/Header.tsx&#45;&gt;node_modules/@mui/material</title>
<path fill="none" stroke="#000000" stroke-opacity="0.200000" d="M627.68,-1154.91C643.29,-1152.36 661.83,-1146.85 674.38,-1135 722.88,-1089.18 735.01,-1004.75 738.02,-968.86"/>
<polygon fill="#000000" fill-opacity="0.200000" stroke="#000000" stroke-opacity="0.200000" points="740.1,-969.23 738.45,-963.09 735.91,-968.92 740.1,-969.23"/>
</g>
<!-- src/components/buildingblocks/Header.tsx&#45;&gt;node_modules/react -->
<g id="edge34" class="edge">
<title>src/components/buildingblocks/Header.tsx&#45;&gt;node_modules/react</title>
<path fill="none" stroke="#000000" stroke-opacity="0.200000" d="M627.67,-1156.47C644.08,-1154.51 663.44,-1149.05 674.38,-1135 690.35,-1114.47 665.99,-921.21 682.38,-901 688.06,-893.99 696.64,-890.17 705.41,-888.16"/>
<polygon fill="#000000" fill-opacity="0.200000" stroke="#000000" stroke-opacity="0.200000" points="705.73,-890.23 711.28,-887.13 705.01,-886.1 705.73,-890.23"/>
</g>
<!-- src/components/hooks/Battery.ts -->
<g id="node45" class="node">
<title>src/components/hooks/Battery.ts</title>
<g id="a_node45"><a xlink:href="src/components/hooks/Battery.ts" xlink:title="Battery.ts">
<path fill="#ddfeff" stroke="black" d="M436.33,-1222.25C436.33,-1222.25 394.67,-1222.25 394.67,-1222.25 391.58,-1222.25 388.5,-1219.17 388.5,-1216.08 388.5,-1216.08 388.5,-1209.92 388.5,-1209.92 388.5,-1206.83 391.58,-1203.75 394.67,-1203.75 394.67,-1203.75 436.33,-1203.75 436.33,-1203.75 439.42,-1203.75 442.5,-1206.83 442.5,-1209.92 442.5,-1209.92 442.5,-1216.08 442.5,-1216.08 442.5,-1219.17 439.42,-1222.25 436.33,-1222.25"/>
<text text-anchor="start" x="397.12" y="-1209.7" font-family="Helvetica,sans-Serif" font-size="9.00">Battery.ts</text>
</a>
</g>
</g>
<!-- src/components/hooks/Battery.ts&#45;&gt;node_modules/react -->
<g id="edge36" class="edge">
<title>src/components/hooks/Battery.ts&#45;&gt;node_modules/react</title>
<path fill="none" stroke="#000000" stroke-opacity="0.200000" d="M442.78,-1215.93C463.09,-1216.62 490.37,-1213.85 506.5,-1197 525.11,-1177.57 495.87,-1156.41 514.5,-1137 564.46,-1084.96 626.92,-1163.33 674.38,-1109 689.59,-1091.58 667.77,-918.93 682.38,-901 688.07,-894.01 696.66,-890.18 705.43,-888.17"/>
<polygon fill="#000000" fill-opacity="0.200000" stroke="#000000" stroke-opacity="0.200000" points="705.75,-890.25 711.3,-887.14 705.03,-886.11 705.75,-890.25"/>
</g>
<!-- src/components/hooks/GPSPosition.ts -->
<g id="node46" class="node">
<title>src/components/hooks/GPSPosition.ts</title>
<g id="a_node46"><a xlink:href="src/components/hooks/GPSPosition.ts" xlink:title="GPSPosition.ts">
<path fill="#ddfeff" stroke="black" d="M447.71,-1191.25C447.71,-1191.25 383.29,-1191.25 383.29,-1191.25 380.21,-1191.25 377.12,-1188.17 377.12,-1185.08 377.12,-1185.08 377.12,-1178.92 377.12,-1178.92 377.12,-1175.83 380.21,-1172.75 383.29,-1172.75 383.29,-1172.75 447.71,-1172.75 447.71,-1172.75 450.79,-1172.75 453.88,-1175.83 453.88,-1178.92 453.88,-1178.92 453.88,-1185.08 453.88,-1185.08 453.88,-1188.17 450.79,-1191.25 447.71,-1191.25"/>
<text text-anchor="start" x="385.12" y="-1178.7" font-family="Helvetica,sans-Serif" font-size="9.00">GPSPosition.ts</text>
</a>
</g>
</g>
<!-- src/components/hooks/GPSPosition.ts&#45;&gt;node_modules/react -->
<g id="edge37" class="edge">
<title>src/components/hooks/GPSPosition.ts&#45;&gt;node_modules/react</title>
<path fill="none" stroke="#000000" stroke-opacity="0.200000" d="M453.98,-1184.79C472.22,-1184.04 493.06,-1179.72 506.5,-1166 522.56,-1149.61 498.62,-1131.56 514.5,-1115 564.65,-1062.7 627.22,-1138.02 674.38,-1083 687.55,-1067.63 669.55,-916.66 682.38,-901 688.04,-894.08 696.53,-890.27 705.23,-888.25"/>
<polygon fill="#000000" fill-opacity="0.200000" stroke="#000000" stroke-opacity="0.200000" points="705.5,-890.33 711.03,-887.2 704.75,-886.2 705.5,-890.33"/>
</g>
<!-- src/components/hooks/NetworkConnectionInfo.ts -->
<g id="node47" class="node">
<title>src/components/hooks/NetworkConnectionInfo.ts</title>
<g id="a_node47"><a xlink:href="src/components/hooks/NetworkConnectionInfo.ts" xlink:title="NetworkConnectionInfo.ts">
<path fill="#ddfeff" stroke="black" d="M469.83,-1160.25C469.83,-1160.25 361.17,-1160.25 361.17,-1160.25 358.08,-1160.25 355,-1157.17 355,-1154.08 355,-1154.08 355,-1147.92 355,-1147.92 355,-1144.83 358.08,-1141.75 361.17,-1141.75 361.17,-1141.75 469.83,-1141.75 469.83,-1141.75 472.92,-1141.75 476,-1144.83 476,-1147.92 476,-1147.92 476,-1154.08 476,-1154.08 476,-1157.17 472.92,-1160.25 469.83,-1160.25"/>
<text text-anchor="start" x="363" y="-1147.7" font-family="Helvetica,sans-Serif" font-size="9.00">NetworkConnectionInfo.ts</text>
</a>
</g>
</g>
<!-- src/components/hooks/NetworkConnectionInfo.ts&#45;&gt;node_modules/react -->
<g id="edge38" class="edge">
<title>src/components/hooks/NetworkConnectionInfo.ts&#45;&gt;node_modules/react</title>
<path fill="none" stroke="#000000" stroke-opacity="0.200000" d="M476.18,-1150.74C487.49,-1148.03 498.32,-1143.21 506.5,-1135 521.15,-1120.3 500.01,-1103.86 514.5,-1089 565.09,-1037.11 627.02,-1111.85 674.38,-1057 697.06,-1030.73 660.28,-927.78 682.38,-901 688.06,-894.1 696.56,-890.3 705.26,-888.27"/>
<polygon fill="#000000" fill-opacity="0.200000" stroke="#000000" stroke-opacity="0.200000" points="705.53,-890.36 711.06,-887.23 704.78,-886.23 705.53,-890.36"/>
</g>
<!-- src/components/hooks/Promise.ts -->
<g id="node48" class="node">
<title>src/components/hooks/Promise.ts</title>
<g id="a_node48"><a xlink:href="src/components/hooks/Promise.ts" xlink:title="Promise.ts">
<path fill="#ddfeff" stroke="black" d="M438.71,-1129.25C438.71,-1129.25 392.29,-1129.25 392.29,-1129.25 389.21,-1129.25 386.12,-1126.17 386.12,-1123.08 386.12,-1123.08 386.12,-1116.92 386.12,-1116.92 386.12,-1113.83 389.21,-1110.75 392.29,-1110.75 392.29,-1110.75 438.71,-1110.75 438.71,-1110.75 441.79,-1110.75 444.88,-1113.83 444.88,-1116.92 444.88,-1116.92 444.88,-1123.08 444.88,-1123.08 444.88,-1126.17 441.79,-1129.25 438.71,-1129.25"/>
<text text-anchor="start" x="394.12" y="-1116.7" font-family="Helvetica,sans-Serif" font-size="9.00">Promise.ts</text>
</a>
</g>
</g>
<!-- src/components/hooks/Promise.ts&#45;&gt;node_modules/react -->
<g id="edge39" class="edge">
<title>src/components/hooks/Promise.ts&#45;&gt;node_modules/react</title>
<path fill="none" stroke="#000000" stroke-opacity="0.200000" d="M445.01,-1122.71C464.86,-1122.95 490.55,-1119.69 506.5,-1104 519.74,-1090.98 501.4,-1076.16 514.5,-1063 565.62,-1011.64 626.74,-1085.61 674.38,-1031 693.4,-1009.19 663.84,-923.23 682.38,-901 688.1,-894.13 696.61,-890.34 705.3,-888.31"/>
<polygon fill="#000000" fill-opacity="0.200000" stroke="#000000" stroke-opacity="0.200000" points="705.57,-890.4 711.1,-887.27 704.83,-886.26 705.57,-890.4"/>
</g>
<!-- src/components/hooks/SecureContext.ts -->
<g id="node49" class="node">
<title>src/components/hooks/SecureContext.ts</title>
<g id="a_node49"><a xlink:href="src/components/hooks/SecureContext.ts" xlink:title="SecureContext.ts">
<path fill="#ddfeff" stroke="black" d="M452.21,-1098.25C452.21,-1098.25 378.79,-1098.25 378.79,-1098.25 375.71,-1098.25 372.62,-1095.17 372.62,-1092.08 372.62,-1092.08 372.62,-1085.92 372.62,-1085.92 372.62,-1082.83 375.71,-1079.75 378.79,-1079.75 378.79,-1079.75 452.21,-1079.75 452.21,-1079.75 455.29,-1079.75 458.38,-1082.83 458.38,-1085.92 458.38,-1085.92 458.38,-1092.08 458.38,-1092.08 458.38,-1095.17 455.29,-1098.25 452.21,-1098.25"/>
<text text-anchor="start" x="380.62" y="-1085.7" font-family="Helvetica,sans-Serif" font-size="9.00">SecureContext.ts</text>
</a>
</g>
</g>
<!-- src/components/hooks/SecureContext.ts&#45;&gt;node_modules/react -->
<g id="edge40" class="edge">
<title>src/components/hooks/SecureContext.ts&#45;&gt;node_modules/react</title>
<path fill="none" stroke="#000000" stroke-opacity="0.200000" d="M458.63,-1091.11C475.51,-1089.73 493.9,-1085.08 506.5,-1073 518.33,-1061.66 502.79,-1048.47 514.5,-1037 566.28,-986.3 626.32,-1059.24 674.38,-1005 689.75,-987.65 667.4,-918.69 682.38,-901 688.15,-894.18 696.68,-890.4 705.37,-888.37"/>
<polygon fill="#000000" fill-opacity="0.200000" stroke="#000000" stroke-opacity="0.200000" points="705.64,-890.45 711.17,-887.32 704.89,-886.32 705.64,-890.45"/>
</g>
<!-- src/components/hooks/SessionStorage.ts -->
<g id="node50" class="node">
<title>src/components/hooks/SessionStorage.ts</title>
<g id="a_node50"><a xlink:href="src/components/hooks/SessionStorage.ts" xlink:title="SessionStorage.ts">
<path fill="#ddfeff" stroke="black" d="M454.46,-1067.25C454.46,-1067.25 376.54,-1067.25 376.54,-1067.25 373.46,-1067.25 370.38,-1064.17 370.38,-1061.08 370.38,-1061.08 370.38,-1054.92 370.38,-1054.92 370.38,-1051.83 373.46,-1048.75 376.54,-1048.75 376.54,-1048.75 454.46,-1048.75 454.46,-1048.75 457.54,-1048.75 460.62,-1051.83 460.62,-1054.92 460.62,-1054.92 460.62,-1061.08 460.62,-1061.08 460.62,-1064.17 457.54,-1067.25 454.46,-1067.25"/>
<text text-anchor="start" x="378.38" y="-1054.7" font-family="Helvetica,sans-Serif" font-size="9.00">SessionStorage.ts</text>
</a>
</g>
</g>
<!-- src/components/hooks/SessionStorage.ts&#45;&gt;node_modules/react -->
<g id="edge41" class="edge">
<title>src/components/hooks/SessionStorage.ts&#45;&gt;node_modules/react</title>
<path fill="none" stroke="#000000" stroke-opacity="0.200000" d="M460.74,-1059.69C476.94,-1058.05 494.27,-1053.32 506.5,-1042 516.94,-1032.33 504.17,-1020.78 514.5,-1011 567.13,-961.19 625.63,-1032.62 674.38,-979 697.81,-953.21 659.52,-927.31 682.38,-901 688.24,-894.25 696.79,-890.49 705.48,-888.46"/>
<polygon fill="#000000" fill-opacity="0.200000" stroke="#000000" stroke-opacity="0.200000" points="705.74,-890.55 711.27,-887.41 704.99,-886.42 705.74,-890.55"/>
</g>
<!-- src/components/hooks/URLMappedStateValue.ts -->
<g id="node51" class="node">
<title>src/components/hooks/URLMappedStateValue.ts</title>
<g id="a_node51"><a xlink:href="src/components/hooks/URLMappedStateValue.ts" xlink:title="URLMappedStateValue.ts">
<path fill="#ddfeff" stroke="black" d="M470.21,-1036.25C470.21,-1036.25 360.79,-1036.25 360.79,-1036.25 357.71,-1036.25 354.62,-1033.17 354.62,-1030.08 354.62,-1030.08 354.62,-1023.92 354.62,-1023.92 354.62,-1020.83 357.71,-1017.75 360.79,-1017.75 360.79,-1017.75 470.21,-1017.75 470.21,-1017.75 473.29,-1017.75 476.38,-1020.83 476.38,-1023.92 476.38,-1023.92 476.38,-1030.08 476.38,-1030.08 476.38,-1033.17 473.29,-1036.25 470.21,-1036.25"/>
<text text-anchor="start" x="362.62" y="-1023.7" font-family="Helvetica,sans-Serif" font-size="9.00">URLMappedStateValue.ts</text>
</a>
</g>
</g>
<!-- src/components/hooks/URLMappedStateValue.ts&#45;&gt;node_modules/react -->
<g id="edge43" class="edge">
<title>src/components/hooks/URLMappedStateValue.ts&#45;&gt;node_modules/react</title>
<path fill="none" stroke="#000000" stroke-opacity="0.200000" d="M476.81,-1025.59C487.68,-1022.89 498.18,-1018.36 506.5,-1011 515.56,-1002.99 505.53,-993.11 514.5,-985 568.26,-936.41 624.3,-1005.38 674.38,-953 690.53,-936.1 666.6,-918.26 682.38,-901 688.35,-894.46 696.86,-890.75 705.47,-888.71"/>
<polygon fill="#000000" fill-opacity="0.200000" stroke="#000000" stroke-opacity="0.200000" points="705.67,-890.81 711.18,-887.64 704.9,-886.68 705.67,-890.81"/>
</g>
<!-- src/components/hooks/URLMappedStateValue.ts&#45;&gt;node_modules/react&#45;router&#45;dom -->
<g id="edge44" class="edge">
<title>src/components/hooks/URLMappedStateValue.ts&#45;&gt;node_modules/react&#45;router&#45;dom</title>
<path fill="none" stroke="#000000" stroke-opacity="0.200000" d="M476.86,-1026.83C487.98,-1024.09 498.57,-1019.23 506.5,-1011 524.26,-992.58 496.5,-972.18 514.5,-954 565.06,-902.95 623.87,-981.11 674.38,-930 692.67,-911.49 665.29,-891.63 682.38,-872 684.93,-869.06 687.98,-866.64 691.33,-864.66"/>
<polygon fill="#000000" fill-opacity="0.200000" stroke="#000000" stroke-opacity="0.200000" points="691.82,-866.76 696.25,-862.2 689.95,-863 691.82,-866.76"/>
</g>
<!-- buffer -->
<g id="node68" class="node">
<title>buffer</title>
<g id="a_node68"><a xlink:title="buffer">
<path fill="#ffffcc" stroke="grey" d="M618.46,-924.25C618.46,-924.25 576.79,-924.25 576.79,-924.25 573.71,-924.25 570.62,-921.17 570.62,-918.08 570.62,-918.08 570.62,-911.92 570.62,-911.92 570.62,-908.83 573.71,-905.75 576.79,-905.75 576.79,-905.75 618.46,-905.75 618.46,-905.75 621.54,-905.75 624.62,-908.83 624.62,-911.92 624.62,-911.92 624.62,-918.08 624.62,-918.08 624.62,-921.17 621.54,-924.25 618.46,-924.25"/>
<text text-anchor="middle" x="597.62" y="-911.7" font-family="Helvetica,sans-Serif" font-size="9.00" fill="grey">buffer</text>
</a>
</g>
</g>
<!-- src/components/hooks/URLMappedStateValue.ts&#45;&gt;buffer -->
<g id="edge42" class="edge">
<title>src/components/hooks/URLMappedStateValue.ts&#45;&gt;buffer</title>
<path fill="none" stroke="#000000" stroke-dasharray="5,2" stroke-opacity="0.200000" d="M476.63,-1027.17C487.91,-1024.44 498.62,-1019.49 506.5,-1011 530.22,-985.47 491.3,-959 514.5,-933 526.58,-919.47 546.28,-914.83 563.35,-913.64"/>
<polygon fill="#000000" fill-opacity="0.200000" stroke="#000000" stroke-opacity="0.200000" points="563.07,-915.76 568.97,-913.4 562.88,-911.56 563.07,-915.76"/>
</g>
<!-- src/components/hooks/UseEvent.ts -->
<g id="node52" class="node">
<title>src/components/hooks/UseEvent.ts</title>
<g id="a_node52"><a xlink:href="src/components/hooks/UseEvent.ts" xlink:title="UseEvent.ts">
<path fill="#ddfeff" stroke="black" d="M441.71,-1005.25C441.71,-1005.25 389.29,-1005.25 389.29,-1005.25 386.21,-1005.25 383.12,-1002.17 383.12,-999.08 383.12,-999.08 383.12,-992.92 383.12,-992.92 383.12,-989.83 386.21,-986.75 389.29,-986.75 389.29,-986.75 441.71,-986.75 441.71,-986.75 444.79,-986.75 447.88,-989.83 447.88,-992.92 447.88,-992.92 447.88,-999.08 447.88,-999.08 447.88,-1002.17 444.79,-1005.25 441.71,-1005.25"/>
<text text-anchor="start" x="391.12" y="-992.7" font-family="Helvetica,sans-Serif" font-size="9.00">UseEvent.ts</text>
</a>
</g>
</g>
<!-- src/components/hooks/UseEvent.ts&#45;&gt;node_modules/react -->
<g id="edge45" class="edge">
<title>src/components/hooks/UseEvent.ts&#45;&gt;node_modules/react</title>
<path fill="none" stroke="#000000" stroke-opacity="0.200000" d="M448.05,-999.19C467.71,-999.31 491.94,-995.72 506.5,-980 518.64,-966.89 501.61,-912.37 514.5,-900 540.99,-874.59 649.71,-879.5 705.55,-883.89"/>
<polygon fill="#000000" fill-opacity="0.200000" stroke="#000000" stroke-opacity="0.200000" points="705.08,-885.96 711.23,-884.35 705.42,-881.77 705.08,-885.96"/>
</g>
<!-- src/components/hooks/UseWorkerServiceCommunication.ts -->
<g id="node53" class="node">
<title>src/components/hooks/UseWorkerServiceCommunication.ts</title>
<g id="a_node53"><a xlink:href="src/components/hooks/UseWorkerServiceCommunication.ts" xlink:title="UseWorkerServiceCommunication.ts">
<path fill="#ddfeff" stroke="black" d="M492.33,-974.25C492.33,-974.25 338.67,-974.25 338.67,-974.25 335.58,-974.25 332.5,-971.17 332.5,-968.08 332.5,-968.08 332.5,-961.92 332.5,-961.92 332.5,-958.83 335.58,-955.75 338.67,-955.75 338.67,-955.75 492.33,-955.75 492.33,-955.75 495.42,-955.75 498.5,-958.83 498.5,-961.92 498.5,-961.92 498.5,-968.08 498.5,-968.08 498.5,-971.17 495.42,-974.25 492.33,-974.25"/>
<text text-anchor="start" x="340.5" y="-961.7" font-family="Helvetica,sans-Serif" font-size="9.00">UseWorkerServiceCommunication.ts</text>
</a>
</g>
</g>
<!-- src/components/hooks/UseWorkerServiceCommunication.ts&#45;&gt;node_modules/react -->
<g id="edge46" class="edge">
<title>src/components/hooks/UseWorkerServiceCommunication.ts&#45;&gt;node_modules/react</title>
<path fill="none" stroke="#000000" stroke-opacity="0.200000" d="M423.23,-955.41C437.44,-936.1 472.65,-893.03 514.5,-877 578.52,-852.48 660.42,-866.33 705.5,-877.43"/>
<polygon fill="#000000" fill-opacity="0.200000" stroke="#000000" stroke-opacity="0.200000" points="704.88,-879.44 711.21,-878.88 705.91,-875.37 704.88,-879.44"/>
</g>
<!-- src/components/pages/HomePage.tsx -->
<g id="node54" class="node">
<title>src/components/pages/HomePage.tsx</title>
<g id="a_node54"><a xlink:href="src/components/pages/HomePage.tsx" xlink:title="HomePage.tsx">
<path fill="#bbfeff" stroke="black" d="M447.33,-1283.25C447.33,-1283.25 383.67,-1283.25 383.67,-1283.25 380.58,-1283.25 377.5,-1280.17 377.5,-1277.08 377.5,-1277.08 377.5,-1270.92 377.5,-1270.92 377.5,-1267.83 380.58,-1264.75 383.67,-1264.75 383.67,-1264.75 447.33,-1264.75 447.33,-1264.75 450.42,-1264.75 453.5,-1267.83 453.5,-1270.92 453.5,-1270.92 453.5,-1277.08 453.5,-1277.08 453.5,-1280.17 450.42,-1283.25 447.33,-1283.25"/>
<text text-anchor="start" x="385.5" y="-1270.7" font-family="Helvetica,sans-Serif" font-size="9.00">HomePage.tsx</text>
</a>
</g>
</g>
<!-- src/components/pages/HomePage.tsx&#45;&gt;src/components/buildingblocks/Header.tsx -->
<g id="edge31" class="edge">
<title>src/components/pages/HomePage.tsx&#45;&gt;src/components/buildingblocks/Header.tsx</title>
<path fill="none" stroke="#000000" stroke-width="2" stroke-opacity="0.200000" d="M453.64,-1274.46C472.25,-1272.6 493.53,-1266.94 506.5,-1252 518.36,-1238.34 502.17,-1184.23 514.5,-1171 525.65,-1159.04 542.97,-1154.91 558.83,-1154.03"/>
<polygon fill="#000000" fill-opacity="0.200000" stroke="#000000" stroke-width="2" stroke-opacity="0.200000" points="558.47,-1156.14 564.42,-1153.91 558.38,-1151.94 558.47,-1156.14"/>
</g>
<!-- src/global/navigator/Battery.d.ts -->
<g id="node55" class="node">
<title>src/global/navigator/Battery.d.ts</title>
<g id="a_node55"><a xlink:href="src/global/navigator/Battery.d.ts" xlink:title="Battery.d.ts">
<path fill="#ccffcc" stroke="black" d="M111.83,-1217.25C111.83,-1217.25 63.92,-1217.25 63.92,-1217.25 60.83,-1217.25 57.75,-1214.17 57.75,-1211.08 57.75,-1211.08 57.75,-1204.92 57.75,-1204.92 57.75,-1201.83 60.83,-1198.75 63.92,-1198.75 63.92,-1198.75 111.83,-1198.75 111.83,-1198.75 114.92,-1198.75 118,-1201.83 118,-1204.92 118,-1204.92 118,-1211.08 118,-1211.08 118,-1214.17 114.92,-1217.25 111.83,-1217.25"/>
<text text-anchor="start" x="65.75" y="-1204.7" font-family="Helvetica,sans-Serif" font-size="9.00">Battery.d.ts</text>
</a>
</g>
</g>
<!-- src/global/navigator/ConnectionInfo.d.ts -->
<g id="node56" class="node">
<title>src/global/navigator/ConnectionInfo.d.ts</title>
<g id="a_node56"><a xlink:href="src/global/navigator/ConnectionInfo.d.ts" xlink:title="ConnectionInfo.d.ts">
<path fill="#ccffcc" stroke="black" d="M129.08,-1186.25C129.08,-1186.25 46.67,-1186.25 46.67,-1186.25 43.58,-1186.25 40.5,-1183.17 40.5,-1180.08 40.5,-1180.08 40.5,-1173.92 40.5,-1173.92 40.5,-1170.83 43.58,-1167.75 46.67,-1167.75 46.67,-1167.75 129.08,-1167.75 129.08,-1167.75 132.17,-1167.75 135.25,-1170.83 135.25,-1173.92 135.25,-1173.92 135.25,-1180.08 135.25,-1180.08 135.25,-1183.17 132.17,-1186.25 129.08,-1186.25"/>
<text text-anchor="start" x="48.5" y="-1173.7" font-family="Helvetica,sans-Serif" font-size="9.00">ConnectionInfo.d.ts</text>
</a>
</g>
</g>
<!-- src/global/navigator/GPSPosition.d.ts -->
<g id="node57" class="node">
<title>src/global/navigator/GPSPosition.d.ts</title>
<g id="a_node57"><a xlink:href="src/global/navigator/GPSPosition.d.ts" xlink:title="GPSPosition.d.ts">
<path fill="#ccffcc" stroke="black" d="M123.83,-1155.25C123.83,-1155.25 51.92,-1155.25 51.92,-1155.25 48.83,-1155.25 45.75,-1152.17 45.75,-1149.08 45.75,-1149.08 45.75,-1142.92 45.75,-1142.92 45.75,-1139.83 48.83,-1136.75 51.92,-1136.75 51.92,-1136.75 123.83,-1136.75 123.83,-1136.75 126.92,-1136.75 130,-1139.83 130,-1142.92 130,-1142.92 130,-1149.08 130,-1149.08 130,-1152.17 126.92,-1155.25 123.83,-1155.25"/>
<text text-anchor="start" x="53.75" y="-1142.7" font-family="Helvetica,sans-Serif" font-size="9.00">GPSPosition.d.ts</text>
</a>
</g>
</g>
<!-- src/App.css -->
<g id="node58" class="node">
<title>src/App.css</title>
<g id="a_node58"><a xlink:href="src/App.css" xlink:title="App.css">
<path fill="#ffffcc" stroke="black" d="M436.33,-1363.25C436.33,-1363.25 394.67,-1363.25 394.67,-1363.25 391.58,-1363.25 388.5,-1360.17 388.5,-1357.08 388.5,-1357.08 388.5,-1350.92 388.5,-1350.92 388.5,-1347.83 391.58,-1344.75 394.67,-1344.75 394.67,-1344.75 436.33,-1344.75 436.33,-1344.75 439.42,-1344.75 442.5,-1347.83 442.5,-1350.92 442.5,-1350.92 442.5,-1357.08 442.5,-1357.08 442.5,-1360.17 439.42,-1363.25 436.33,-1363.25"/>
<text text-anchor="start" x="399.38" y="-1350.7" font-family="Helvetica,sans-Serif" font-size="9.00">App.css</text>
</a>
</g>
</g>
<!-- src/App.test.tsx -->
<g id="node59" class="node">
<title>src/App.test.tsx</title>
<g id="a_node59"><a xlink:href="src/App.test.tsx" xlink:title="App.test.tsx">
<path fill="#bbfeff" stroke="black" d="M112.96,-1082.25C112.96,-1082.25 62.79,-1082.25 62.79,-1082.25 59.71,-1082.25 56.62,-1079.17 56.62,-1076.08 56.62,-1076.08 56.62,-1069.92 56.62,-1069.92 56.62,-1066.83 59.71,-1063.75 62.79,-1063.75 62.79,-1063.75 112.96,-1063.75 112.96,-1063.75 116.04,-1063.75 119.12,-1066.83 119.12,-1069.92 119.12,-1069.92 119.12,-1076.08 119.12,-1076.08 119.12,-1079.17 116.04,-1082.25 112.96,-1082.25"/>
<text text-anchor="start" x="64.62" y="-1069.7" font-family="Helvetica,sans-Serif" font-size="9.00">App.test.tsx</text>
</a>
</g>
</g>
<!-- src/App.test.tsx&#45;&gt;node_modules/@testing&#45;library/react -->
<g id="edge25" class="edge">
<title>src/App.test.tsx&#45;&gt;node_modules/@testing&#45;library/react</title>
<path fill="none" stroke="#000000" stroke-opacity="0.200000" d="M119.56,-1073.87C133.87,-1072.56 149.88,-1068.31 159.75,-1057 173.25,-1041.54 160.62,-984.24 167.75,-965 207.12,-858.77 220.89,-818.78 316.5,-758 442.38,-677.98 629.26,-674.76 705.14,-677.19"/>
<polygon fill="#000000" fill-opacity="0.200000" stroke="#000000" stroke-opacity="0.200000" points="704.98,-679.28 711.05,-677.4 705.13,-675.09 704.98,-679.28"/>
</g>
<!-- src/App.tsx -->
<g id="node60" class="node">
<title>src/App.tsx</title>
<g id="a_node60"><a xlink:href="src/App.tsx" xlink:title="App.tsx">
<path fill="#bbfeff" stroke="black" d="M262.83,-1082.25C262.83,-1082.25 221.17,-1082.25 221.17,-1082.25 218.08,-1082.25 215,-1079.17 215,-1076.08 215,-1076.08 215,-1069.92 215,-1069.92 215,-1066.83 218.08,-1063.75 221.17,-1063.75 221.17,-1063.75 262.83,-1063.75 262.83,-1063.75 265.92,-1063.75 269,-1066.83 269,-1069.92 269,-1069.92 269,-1076.08 269,-1076.08 269,-1079.17 265.92,-1082.25 262.83,-1082.25"/>
<text text-anchor="start" x="227" y="-1069.7" font-family="Helvetica,sans-Serif" font-size="9.00">App.tsx</text>
</a>
</g>
</g>
<!-- src/App.test.tsx&#45;&gt;src/App.tsx -->
<g id="edge26" class="edge">
<title>src/App.test.tsx&#45;&gt;src/App.tsx</title>
<path fill="none" stroke="#000000" stroke-width="2" stroke-opacity="0.200000" d="M119.29,-1073C144.27,-1073 179.66,-1073 205.85,-1073"/>
<polygon fill="#000000" fill-opacity="0.200000" stroke="#000000" stroke-width="2" stroke-opacity="0.200000" points="205.67,-1075.1 211.67,-1073 205.67,-1070.9 205.67,-1075.1"/>
</g>
<!-- src/App.tsx&#45;&gt;node_modules/react -->
<g id="edge27" class="edge">
<title>src/App.tsx&#45;&gt;node_modules/react</title>
<path fill="none" stroke="#000000" stroke-opacity="0.200000" d="M269.48,-1073.5C283.22,-1072.26 299.06,-1068.18 308.5,-1057 324.6,-1037.94 302.04,-965.33 316.5,-945 372.01,-866.96 420.7,-879.28 514.5,-860 584.1,-845.69 611.06,-827.76 674.38,-860 679.76,-862.74 677.42,-867.54 682.38,-871 689.18,-875.74 697.36,-879.08 705.36,-881.44"/>
<polygon fill="#000000" fill-opacity="0.200000" stroke="#000000" stroke-opacity="0.200000" points="704.81,-883.47 711.15,-882.95 705.87,-879.4 704.81,-883.47"/>
</g>
<!-- src/App.tsx&#45;&gt;node_modules/react&#45;router&#45;dom -->
<g id="edge28" class="edge">
<title>src/App.tsx&#45;&gt;node_modules/react&#45;router&#45;dom</title>
<path fill="none" stroke="#000000" stroke-opacity="0.200000" d="M269.29,-1073.64C283.15,-1072.47 299.16,-1068.41 308.5,-1057 322.44,-1039.96 301.45,-875.07 316.5,-859 425.43,-742.72 516.51,-816.43 674.38,-838 675.81,-838.2 685.89,-840.96 697.67,-844.26"/>
<polygon fill="#000000" fill-opacity="0.200000" stroke="#000000" stroke-opacity="0.200000" points="696.96,-846.24 703.3,-845.84 698.1,-842.2 696.96,-846.24"/>
</g>
<!-- src/App.tsx&#45;&gt;src/components/pages/HomePage.tsx -->
<g id="edge30" class="edge">
<title>src/App.tsx&#45;&gt;src/components/pages/HomePage.tsx</title>
<path fill="none" stroke="#000000" stroke-width="2" stroke-dasharray="5,2" stroke-opacity="0.200000" d="M243.9,-1082.55C247.25,-1112.58 261.82,-1205.85 316.5,-1252 330.93,-1264.18 350.68,-1269.99 368.68,-1272.64"/>
<polygon fill="#000000" fill-opacity="0.200000" stroke="#000000" stroke-width="2" stroke-opacity="0.200000" points="368.13,-1274.69 374.34,-1273.34 368.64,-1270.52 368.13,-1274.69"/>
</g>
<!-- src/App.tsx&#45;&gt;src/App.css -->
<g id="edge29" class="edge">
<title>src/App.tsx&#45;&gt;src/App.css</title>
<path fill="none" stroke="#000000" stroke-width="2" stroke-opacity="0.200000" d="M243.16,-1082.64C244.27,-1118.06 252.73,-1242.58 316.5,-1313 332.96,-1331.18 358.77,-1341.54 379.77,-1347.29"/>
<polygon fill="#000000" fill-opacity="0.200000" stroke="#000000" stroke-width="2" stroke-opacity="0.200000" points="379.17,-1349.31 385.5,-1348.74 380.2,-1345.23 379.17,-1349.31"/>
</g>
<!-- src/index.css -->
<g id="node61" class="node">
<title>src/index.css</title>
<g id="a_node61"><a xlink:href="src/index.css" xlink:title="index.css">
<path fill="#ffffcc" stroke="black" d="M262.96,-1020.25C262.96,-1020.25 221.04,-1020.25 221.04,-1020.25 217.96,-1020.25 214.88,-1017.17 214.88,-1014.08 214.88,-1014.08 214.88,-1007.92 214.88,-1007.92 214.88,-1004.83 217.96,-1001.75 221.04,-1001.75 221.04,-1001.75 262.96,-1001.75 262.96,-1001.75 266.04,-1001.75 269.12,-1004.83 269.12,-1007.92 269.12,-1007.92 269.12,-1014.08 269.12,-1014.08 269.12,-1017.17 266.04,-1020.25 262.96,-1020.25"/>
<text text-anchor="start" x="222.88" y="-1007.7" font-family="Helvetica,sans-Serif" font-size="9.00">index.css</text>
</a>
</g>
</g>
<!-- src/index.tsx -->
<g id="node62" class="node">
<title>src/index.tsx</title>
<g id="a_node62"><a xlink:href="src/index.tsx" xlink:title="index.tsx">
<path fill="#bbfeff" stroke="black" d="M108.71,-1051.25C108.71,-1051.25 67.04,-1051.25 67.04,-1051.25 63.96,-1051.25 60.88,-1048.17 60.88,-1045.08 60.88,-1045.08 60.88,-1038.92 60.88,-1038.92 60.88,-1035.83 63.96,-1032.75 67.04,-1032.75 67.04,-1032.75 108.71,-1032.75 108.71,-1032.75 111.79,-1032.75 114.88,-1035.83 114.88,-1038.92 114.88,-1038.92 114.88,-1045.08 114.88,-1045.08 114.88,-1048.17 111.79,-1051.25 108.71,-1051.25"/>
<text text-anchor="start" x="69.88" y="-1038.7" font-family="Helvetica,sans-Serif" font-size="9.00">index.tsx</text>
</a>
</g>
</g>
<!-- src/index.tsx&#45;&gt;node_modules/react -->
<g id="edge47" class="edge">
<title>src/index.tsx&#45;&gt;node_modules/react</title>
<path fill="none" stroke="#000000" stroke-opacity="0.200000" d="M115.1,-1043.01C130.31,-1042.11 148.61,-1038.21 159.75,-1026 178.18,-1005.8 153.67,-988.44 167.75,-965 209.56,-895.41 240.59,-887.78 316.5,-859 465.48,-802.51 549.14,-739.5 674.38,-838 686.24,-847.33 671.91,-860.13 682.38,-871 688.52,-877.38 697,-881.27 705.53,-883.63"/>
<polygon fill="#000000" fill-opacity="0.200000" stroke="#000000" stroke-opacity="0.200000" points="704.86,-885.63 711.18,-884.94 705.8,-881.54 704.86,-885.63"/>
</g>
<!-- src/index.tsx&#45;&gt;node_modules/react&#45;dom -->
<g id="edge48" class="edge">
<title>src/index.tsx&#45;&gt;node_modules/react&#45;dom</title>
<path fill="none" stroke="#000000" stroke-opacity="0.200000" d="M115.12,-1043.35C130.54,-1042.61 149.04,-1038.75 159.75,-1026 171.69,-1011.77 158.66,-875.2 167.75,-859 206.84,-789.3 240.12,-781.48 316.5,-758 392.52,-734.63 607.61,-717.79 674.38,-761 681.39,-765.54 676.01,-772.6 682.38,-778 688.52,-783.21 696.25,-786.73 704.01,-789.1"/>
<polygon fill="#000000" fill-opacity="0.200000" stroke="#000000" stroke-opacity="0.200000" points="703.3,-791.09 709.64,-790.59 704.37,-787.03 703.3,-791.09"/>
</g>
<!-- src/index.tsx&#45;&gt;src/App.tsx -->
<g id="edge49" class="edge">
<title>src/index.tsx&#45;&gt;src/App.tsx</title>
<path fill="none" stroke="#000000" stroke-width="2" stroke-opacity="0.200000" d="M115.37,-1047.4C140.49,-1052.52 178.38,-1060.24 205.98,-1065.86"/>
<polygon fill="#000000" fill-opacity="0.200000" stroke="#000000" stroke-width="2" stroke-opacity="0.200000" points="205.29,-1067.87 211.58,-1067.01 206.12,-1063.75 205.29,-1067.87"/>
</g>
<!-- src/index.tsx&#45;&gt;src/index.css -->
<g id="edge50" class="edge">
<title>src/index.tsx&#45;&gt;src/index.css</title>
<path fill="none" stroke="#000000" stroke-width="2" stroke-opacity="0.200000" d="M115.37,-1036.6C140.49,-1031.48 178.38,-1023.76 205.98,-1018.14"/>
<polygon fill="#000000" fill-opacity="0.200000" stroke="#000000" stroke-width="2" stroke-opacity="0.200000" points="206.12,-1020.25 211.58,-1016.99 205.29,-1016.13 206.12,-1020.25"/>
</g>
<!-- src/reportWebVitals.ts -->
<g id="node63" class="node">
<title>src/reportWebVitals.ts</title>
<g id="a_node63"><a xlink:href="src/reportWebVitals.ts" xlink:title="reportWebVitals.ts">
<path fill="#ddfeff" stroke="black" d="M280.96,-1051.25C280.96,-1051.25 203.04,-1051.25 203.04,-1051.25 199.96,-1051.25 196.88,-1048.17 196.88,-1045.08 196.88,-1045.08 196.88,-1038.92 196.88,-1038.92 196.88,-1035.83 199.96,-1032.75 203.04,-1032.75 203.04,-1032.75 280.96,-1032.75 280.96,-1032.75 284.04,-1032.75 287.12,-1035.83 287.12,-1038.92 287.12,-1038.92 287.12,-1045.08 287.12,-1045.08 287.12,-1048.17 284.04,-1051.25 280.96,-1051.25"/>
<text text-anchor="start" x="204.88" y="-1038.7" font-family="Helvetica,sans-Serif" font-size="9.00">reportWebVitals.ts</text>
</a>
</g>
</g>
<!-- src/index.tsx&#45;&gt;src/reportWebVitals.ts -->
<g id="edge51" class="edge">
<title>src/index.tsx&#45;&gt;src/reportWebVitals.ts</title>
<path fill="none" stroke="#000000" stroke-width="2" stroke-opacity="0.200000" d="M115.37,-1042C135.31,-1042 163.3,-1042 187.8,-1042"/>
<polygon fill="#000000" fill-opacity="0.200000" stroke="#000000" stroke-width="2" stroke-opacity="0.200000" points="187.62,-1044.1 193.62,-1042 187.62,-1039.9 187.62,-1044.1"/>
</g>
<!-- src/serviceWorkerRegistration.ts -->
<g id="node64" class="node">
<title>src/serviceWorkerRegistration.ts</title>
<g id="a_node64"><a xlink:href="src/serviceWorkerRegistration.ts" xlink:title="serviceWorkerRegistration.ts">
<path fill="#ddfeff" stroke="black" d="M302.33,-989.25C302.33,-989.25 181.67,-989.25 181.67,-989.25 178.58,-989.25 175.5,-986.17 175.5,-983.08 175.5,-983.08 175.5,-976.92 175.5,-976.92 175.5,-973.83 178.58,-970.75 181.67,-970.75 181.67,-970.75 302.33,-970.75 302.33,-970.75 305.42,-970.75 308.5,-973.83 308.5,-976.92 308.5,-976.92 308.5,-983.08 308.5,-983.08 308.5,-986.17 305.42,-989.25 302.33,-989.25"/>
<text text-anchor="start" x="183.5" y="-976.7" font-family="Helvetica,sans-Serif" font-size="9.00">serviceWorkerRegistration.ts</text>
</a>
</g>
</g>
<!-- src/index.tsx&#45;&gt;src/serviceWorkerRegistration.ts -->
<g id="edge52" class="edge">
<title>src/index.tsx&#45;&gt;src/serviceWorkerRegistration.ts</title>
<path fill="none" stroke="#000000" stroke-width="2" stroke-opacity="0.200000" d="M115.24,-1042.42C130.12,-1041.26 148.02,-1037.28 159.75,-1026 169.69,-1016.43 157.77,-1005.53 167.75,-996 168.23,-995.54 168.71,-995.1 169.21,-994.67"/>
<polygon fill="#000000" fill-opacity="0.200000" stroke="#000000" stroke-width="2" stroke-opacity="0.200000" points="170.03,-996.66 173.67,-991.45 167.58,-993.26 170.03,-996.66"/>
</g>
<!-- src/reportWebVitals.ts&#45;&gt;node_modules/web&#45;vitals -->
<g id="edge53" class="edge">
<title>src/reportWebVitals.ts&#45;&gt;node_modules/web&#45;vitals</title>
<path fill="none" stroke="#000000" stroke-opacity="0.200000" d="M287.29,-1039.33C295.47,-1036.78 303.11,-1032.63 308.5,-1026 324.91,-1005.82 297.79,-810.08 316.5,-792 373.7,-736.72 602.6,-765.69 674.38,-800 679.2,-802.31 677.84,-806.16 682.38,-809 688.94,-813.11 696.58,-816.19 704.08,-818.49"/>
<polygon fill="#000000" fill-opacity="0.200000" stroke="#000000" stroke-opacity="0.200000" points="703.1,-820.4 709.44,-819.98 704.22,-816.35 703.1,-820.4"/>
</g>
<!-- src/react&#45;app&#45;env.d.ts -->
<g id="node65" class="node">
<title>src/react&#45;app&#45;env.d.ts</title>
<g id="a_node65"><a xlink:href="src/react-app-env.d.ts" xlink:title="react&#45;app&#45;env.d.ts">
<path fill="#ddfeff" stroke="black" d="M126.08,-1020.25C126.08,-1020.25 49.67,-1020.25 49.67,-1020.25 46.58,-1020.25 43.5,-1017.17 43.5,-1014.08 43.5,-1014.08 43.5,-1007.92 43.5,-1007.92 43.5,-1004.83 46.58,-1001.75 49.67,-1001.75 49.67,-1001.75 126.08,-1001.75 126.08,-1001.75 129.17,-1001.75 132.25,-1004.83 132.25,-1007.92 132.25,-1007.92 132.25,-1014.08 132.25,-1014.08 132.25,-1017.17 129.17,-1020.25 126.08,-1020.25"/>
<text text-anchor="start" x="51.5" y="-1007.7" font-family="Helvetica,sans-Serif" font-size="9.00">react&#45;app&#45;env.d.ts</text>
</a>
</g>
</g>
<!-- src/react&#45;app&#45;env.d.ts&#45;&gt;node_modules/react&#45;scripts -->
<g id="edge54" class="edge">
<title>src/react&#45;app&#45;env.d.ts&#45;&gt;node_modules/react&#45;scripts</title>
<path fill="none" stroke="#000000" stroke-opacity="0.200000" d="M132.72,-1010.09C143.04,-1007.69 152.99,-1003.16 159.75,-995 176.55,-974.7 150.53,-777.94 167.75,-758 247.49,-665.7 567.53,-664.96 674.38,-731 681.14,-735.18 676.25,-741.93 682.38,-747 687.46,-751.21 693.59,-754.31 699.91,-756.6"/>
<polygon fill="#000000" fill-opacity="0.200000" stroke="#000000" stroke-opacity="0.200000" points="699,-758.52 705.35,-758.32 700.26,-754.51 699,-758.52"/>
</g>
<!-- src/service&#45;worker.ts -->
<g id="node66" class="node">
<title>src/service&#45;worker.ts</title>
<g id="a_node66"><a xlink:href="src/service-worker.ts" xlink:title="service&#45;worker.ts">
<path fill="#ddfeff" stroke="black" d="M123.83,-958.25C123.83,-958.25 51.92,-958.25 51.92,-958.25 48.83,-958.25 45.75,-955.17 45.75,-952.08 45.75,-952.08 45.75,-945.92 45.75,-945.92 45.75,-942.83 48.83,-939.75 51.92,-939.75 51.92,-939.75 123.83,-939.75 123.83,-939.75 126.92,-939.75 130,-942.83 130,-945.92 130,-945.92 130,-952.08 130,-952.08 130,-955.17 126.92,-958.25 123.83,-958.25"/>
<text text-anchor="start" x="53.75" y="-945.7" font-family="Helvetica,sans-Serif" font-size="9.00">service&#45;worker.ts</text>
</a>
</g>
</g>
<!-- src/service&#45;worker.ts&#45;&gt;node_modules/workbox&#45;core -->
<g id="edge55" class="edge">
<title>src/service&#45;worker.ts&#45;&gt;node_modules/workbox&#45;core</title>
<path fill="none" stroke="#000000" stroke-opacity="0.200000" d="M90.03,-939.49C95.73,-894.45 122.35,-703.37 167.75,-669 257.62,-600.95 587.78,-622.82 674.38,-695 682.69,-701.93 674.38,-710.71 682.38,-718 686.58,-721.84 691.68,-724.66 697.06,-726.74"/>
<polygon fill="#000000" fill-opacity="0.200000" stroke="#000000" stroke-opacity="0.200000" points="696.2,-728.67 702.56,-728.52 697.5,-724.67 696.2,-728.67"/>
</g>
<!-- src/service&#45;worker.ts&#45;&gt;node_modules/workbox&#45;expiration -->
<g id="edge56" class="edge">
<title>src/service&#45;worker.ts&#45;&gt;node_modules/workbox&#45;expiration</title>
<path fill="none" stroke="#000000" stroke-opacity="0.200000" d="M89.8,-939.43C94.67,-891.34 118.92,-676.76 167.75,-636 245.07,-571.46 558.84,-595.43 685.55,-608.13"/>
<polygon fill="#000000" fill-opacity="0.200000" stroke="#000000" stroke-opacity="0.200000" points="685.21,-610.21 691.39,-608.72 685.63,-606.03 685.21,-610.21"/>
</g>
<!-- src/service&#45;worker.ts&#45;&gt;node_modules/workbox&#45;precaching -->
<g id="edge57" class="edge">
<title>src/service&#45;worker.ts&#45;&gt;node_modules/workbox&#45;precaching</title>
<path fill="none" stroke="#000000" stroke-opacity="0.200000" d="M89.47,-939.55C92.9,-887.94 112.11,-640.85 167.75,-595 206.81,-562.81 546.69,-574.32 682.9,-580.31"/>
<polygon fill="#000000" fill-opacity="0.200000" stroke="#000000" stroke-opacity="0.200000" points="682.41,-582.39 688.5,-580.56 682.6,-578.2 682.41,-582.39"/>
</g>
<!-- src/service&#45;worker.ts&#45;&gt;node_modules/workbox&#45;routing -->
<g id="edge58" class="edge">
<title>src/service&#45;worker.ts&#45;&gt;node_modules/workbox&#45;routing</title>
<path fill="none" stroke="#000000" stroke-opacity="0.200000" d="M89.35,-939.31C92.21,-885.22 109.05,-621.42 167.75,-572 207.33,-538.68 561.56,-546.37 691.49,-550.37"/>
<polygon fill="#000000" fill-opacity="0.200000" stroke="#000000" stroke-opacity="0.200000" points="691.04,-552.46 697.1,-550.55 691.17,-548.26 691.04,-552.46"/>
</g>
<!-- src/service&#45;worker.ts&#45;&gt;node_modules/workbox&#45;strategies -->
<g id="edge59" class="edge">
<title>src/service&#45;worker.ts&#45;&gt;node_modules/workbox&#45;strategies</title>
<path fill="none" stroke="#000000" stroke-opacity="0.200000" d="M89.22,-939.45C91.47,-883.73 105.84,-601.42 167.75,-548 244.12,-482.1 559.17,-503.81 685.87,-515.56"/>
<polygon fill="#000000" fill-opacity="0.200000" stroke="#000000" stroke-opacity="0.200000" points="685.54,-517.64 691.71,-516.11 685.93,-513.46 685.54,-517.64"/>
</g>
<!-- src/setupTests.ts -->
<g id="node67" class="node">
<title>src/setupTests.ts</title>
<g id="a_node67"><a xlink:href="src/setupTests.ts" xlink:title="setupTests.ts">
<path fill="#ddfeff" stroke="black" d="M115.96,-989.25C115.96,-989.25 59.79,-989.25 59.79,-989.25 56.71,-989.25 53.62,-986.17 53.62,-983.08 53.62,-983.08 53.62,-976.92 53.62,-976.92 53.62,-973.83 56.71,-970.75 59.79,-970.75 59.79,-970.75 115.96,-970.75 115.96,-970.75 119.04,-970.75 122.12,-973.83 122.12,-976.92 122.12,-976.92 122.12,-983.08 122.12,-983.08 122.12,-986.17 119.04,-989.25 115.96,-989.25"/>
<text text-anchor="start" x="61.62" y="-976.7" font-family="Helvetica,sans-Serif" font-size="9.00">setupTests.ts</text>
</a>
</g>
</g>
<!-- src/setupTests.ts&#45;&gt;node_modules/@testing&#45;library/jest&#45;dom -->
<g id="edge60" class="edge">
<title>src/setupTests.ts&#45;&gt;node_modules/@testing&#45;library/jest&#45;dom</title>
<path fill="none" stroke="#000000" stroke-opacity="0.200000" d="M122.39,-980.86C136.08,-979.33 150.77,-974.9 159.75,-964 178.91,-940.75 147.85,-715.62 167.75,-693 242.55,-607.97 561.46,-629.32 674.38,-638 684.48,-638.78 695.39,-640.23 705.32,-641.79"/>
<polygon fill="#000000" fill-opacity="0.200000" stroke="#000000" stroke-opacity="0.200000" points="704.94,-643.85 711.2,-642.75 705.62,-639.71 704.94,-643.85"/>
</g>
</g>
</svg>
