<?xml version="1.0" encoding="UTF-8" standalone="no"?>
<!DOCTYPE svg PUBLIC "-//W3C//DTD SVG 1.1//EN"
 "http://www.w3.org/Graphics/SVG/1.1/DTD/svg11.dtd">
<!-- Generated by graphviz version 9.0.0 (0)
 -->
<!-- Title: dependency&#45;cruiser output Pages: 1 -->
<svg width="767pt" height="941pt"
 viewBox="0.00 0.00 766.50 940.90" xmlns="http://www.w3.org/2000/svg" xmlns:xlink="http://www.w3.org/1999/xlink">
<g id="graph0" class="graph" transform="scale(1 1) rotate(0) translate(4 936.9)">
<title>dependency&#45;cruiser output</title>
<polygon fill="white" stroke="none" points="-4,4 -4,-936.9 762.5,-936.9 762.5,4 -4,4"/>
<g id="clust1" class="cluster">
<title>cluster_node_modules</title>
<path fill="#ffffff" stroke="black" stroke-width="2" d="M647.25,-43.9C647.25,-43.9 738.5,-43.9 738.5,-43.9 744.5,-43.9 750.5,-49.9 750.5,-55.9 750.5,-55.9 750.5,-542.9 750.5,-542.9 750.5,-548.9 744.5,-554.9 738.5,-554.9 738.5,-554.9 647.25,-554.9 647.25,-554.9 641.25,-554.9 635.25,-548.9 635.25,-542.9 635.25,-542.9 635.25,-55.9 635.25,-55.9 635.25,-49.9 641.25,-43.9 647.25,-43.9"/>
<text text-anchor="middle" x="692.88" y="-542.35" font-family="Helvetica,sans-Serif" font-weight="bold" font-size="9.00">node_modules</text>
</g>
<g id="clust2" class="cluster">
<title>cluster_node_modules/@mui</title>
<path fill="#ffffff" stroke="black" stroke-width="2" d="M660,-443.9C660,-443.9 725.75,-443.9 725.75,-443.9 731.75,-443.9 737.75,-449.9 737.75,-455.9 737.75,-455.9 737.75,-515.9 737.75,-515.9 737.75,-521.9 731.75,-527.9 725.75,-527.9 725.75,-527.9 660,-527.9 660,-527.9 654,-527.9 648,-521.9 648,-515.9 648,-515.9 648,-455.9 648,-455.9 648,-449.9 654,-443.9 660,-443.9"/>
<text text-anchor="middle" x="692.88" y="-515.35" font-family="Helvetica,sans-Serif" font-weight="bold" font-size="9.00">@mui</text>
</g>
<g id="clust3" class="cluster">
<title>cluster_node_modules/@testing&#45;library</title>
<path fill="#ffffff" stroke="black" stroke-width="2" d="M662.88,-170.9C662.88,-170.9 723.88,-170.9 723.88,-170.9 729.88,-170.9 735.88,-176.9 735.88,-182.9 735.88,-182.9 735.88,-242.9 735.88,-242.9 735.88,-248.9 729.88,-254.9 723.88,-254.9 723.88,-254.9 662.88,-254.9 662.88,-254.9 656.88,-254.9 650.88,-248.9 650.88,-242.9 650.88,-242.9 650.88,-182.9 650.88,-182.9 650.88,-176.9 656.88,-170.9 662.88,-170.9"/>
<text text-anchor="middle" x="693.38" y="-242.35" font-family="Helvetica,sans-Serif" font-weight="bold" font-size="9.00">@testing&#45;library</text>
</g>
<g id="clust4" class="cluster">
<title>cluster_src</title>
<path fill="#ffffff" stroke="black" stroke-width="2" d="M20,-466.9C20,-466.9 615.25,-466.9 615.25,-466.9 621.25,-466.9 627.25,-472.9 627.25,-478.9 627.25,-478.9 627.25,-912.9 627.25,-912.9 627.25,-918.9 621.25,-924.9 615.25,-924.9 615.25,-924.9 20,-924.9 20,-924.9 14,-924.9 8,-918.9 8,-912.9 8,-912.9 8,-478.9 8,-478.9 8,-472.9 14,-466.9 20,-466.9"/>
<text text-anchor="middle" x="317.62" y="-912.35" font-family="Helvetica,sans-Serif" font-weight="bold" font-size="9.00">src</text>
</g>
<g id="clust5" class="cluster">
<title>cluster_src/clientShared</title>
<path fill="#ffffff" stroke="black" stroke-width="2" d="M43.5,-828.9C43.5,-828.9 115.25,-828.9 115.25,-828.9 121.25,-828.9 127.25,-834.9 127.25,-840.9 127.25,-840.9 127.25,-869.9 127.25,-869.9 127.25,-875.9 121.25,-881.9 115.25,-881.9 115.25,-881.9 43.5,-881.9 43.5,-881.9 37.5,-881.9 31.5,-875.9 31.5,-869.9 31.5,-869.9 31.5,-840.9 31.5,-840.9 31.5,-834.9 37.5,-828.9 43.5,-828.9"/>
<text text-anchor="middle" x="79.38" y="-869.35" font-family="Helvetica,sans-Serif" font-weight="bold" font-size="9.00">clientShared</text>
</g>
<g id="clust6" class="cluster">
<title>cluster_src/components</title>
<path fill="#ffffff" stroke="black" stroke-width="2" d="M303.75,-500.9C303.75,-500.9 607.25,-500.9 607.25,-500.9 613.25,-500.9 619.25,-506.9 619.25,-512.9 619.25,-512.9 619.25,-885.9 619.25,-885.9 619.25,-891.9 613.25,-897.9 607.25,-897.9 607.25,-897.9 303.75,-897.9 303.75,-897.9 297.75,-897.9 291.75,-891.9 291.75,-885.9 291.75,-885.9 291.75,-512.9 291.75,-512.9 291.75,-506.9 297.75,-500.9 303.75,-500.9"/>
<text text-anchor="middle" x="455.5" y="-885.35" font-family="Helvetica,sans-Serif" font-weight="bold" font-size="9.00">components</text>
</g>
<g id="clust7" class="cluster">
<title>cluster_src/components/buildingblocks</title>
<path fill="#ffffff" stroke="black" stroke-width="2" d="M501.75,-674.9C501.75,-674.9 599.25,-674.9 599.25,-674.9 605.25,-674.9 611.25,-680.9 611.25,-686.9 611.25,-686.9 611.25,-776.9 611.25,-776.9 611.25,-782.9 605.25,-788.9 599.25,-788.9 599.25,-788.9 501.75,-788.9 501.75,-788.9 495.75,-788.9 489.75,-782.9 489.75,-776.9 489.75,-776.9 489.75,-686.9 489.75,-686.9 489.75,-680.9 495.75,-674.9 501.75,-674.9"/>
<text text-anchor="middle" x="550.5" y="-776.35" font-family="Helvetica,sans-Serif" font-weight="bold" font-size="9.00">buildingblocks</text>
</g>
<g id="clust8" class="cluster">
<title>cluster_src/components/buildingblocks/layout</title>
<path fill="#ffffff" stroke="black" stroke-width="2" d="M509.75,-708.9C509.75,-708.9 591.25,-708.9 591.25,-708.9 597.25,-708.9 603.25,-714.9 603.25,-720.9 603.25,-720.9 603.25,-749.9 603.25,-749.9 603.25,-755.9 597.25,-761.9 591.25,-761.9 591.25,-761.9 509.75,-761.9 509.75,-761.9 503.75,-761.9 497.75,-755.9 497.75,-749.9 497.75,-749.9 497.75,-720.9 497.75,-720.9 497.75,-714.9 503.75,-708.9 509.75,-708.9"/>
<text text-anchor="middle" x="550.5" y="-749.35" font-family="Helvetica,sans-Serif" font-weight="bold" font-size="9.00">layout</text>
</g>
<g id="clust9" class="cluster">
<title>cluster_src/components/hooks</title>
<path fill="#ffffff" stroke="black" stroke-width="2" d="M311.75,-508.9C311.75,-508.9 469.75,-508.9 469.75,-508.9 475.75,-508.9 481.75,-514.9 481.75,-520.9 481.75,-520.9 481.75,-797.9 481.75,-797.9 481.75,-803.9 475.75,-809.9 469.75,-809.9 469.75,-809.9 311.75,-809.9 311.75,-809.9 305.75,-809.9 299.75,-803.9 299.75,-797.9 299.75,-797.9 299.75,-520.9 299.75,-520.9 299.75,-514.9 305.75,-508.9 311.75,-508.9"/>
<text text-anchor="middle" x="390.75" y="-797.35" font-family="Helvetica,sans-Serif" font-weight="bold" font-size="9.00">hooks</text>
</g>
<g id="clust10" class="cluster">
<title>cluster_src/components/pages</title>
<path fill="#ffffff" stroke="black" stroke-width="2" d="M356.75,-817.9C356.75,-817.9 424.75,-817.9 424.75,-817.9 430.75,-817.9 436.75,-823.9 436.75,-829.9 436.75,-829.9 436.75,-858.9 436.75,-858.9 436.75,-864.9 430.75,-870.9 424.75,-870.9 424.75,-870.9 356.75,-870.9 356.75,-870.9 350.75,-870.9 344.75,-864.9 344.75,-858.9 344.75,-858.9 344.75,-829.9 344.75,-829.9 344.75,-823.9 350.75,-817.9 356.75,-817.9"/>
<text text-anchor="middle" x="390.75" y="-858.35" font-family="Helvetica,sans-Serif" font-weight="bold" font-size="9.00">pages</text>
</g>
<g id="clust11" class="cluster">
<title>cluster_src/global</title>
<path fill="#ffffff" stroke="black" stroke-width="2" d="M28,-655.9C28,-655.9 130.75,-655.9 130.75,-655.9 136.75,-655.9 142.75,-661.9 142.75,-667.9 142.75,-667.9 142.75,-793.9 142.75,-793.9 142.75,-799.9 136.75,-805.9 130.75,-805.9 130.75,-805.9 28,-805.9 28,-805.9 22,-805.9 16,-799.9 16,-793.9 16,-793.9 16,-667.9 16,-667.9 16,-661.9 22,-655.9 28,-655.9"/>
<text text-anchor="middle" x="79.38" y="-793.35" font-family="Helvetica,sans-Serif" font-weight="bold" font-size="9.00">global</text>
</g>
<g id="clust12" class="cluster">
<title>cluster_src/global/navigator</title>
<path fill="#ffffff" stroke="black" stroke-width="2" d="M36,-663.9C36,-663.9 122.75,-663.9 122.75,-663.9 128.75,-663.9 134.75,-669.9 134.75,-675.9 134.75,-675.9 134.75,-766.9 134.75,-766.9 134.75,-772.9 128.75,-778.9 122.75,-778.9 122.75,-778.9 36,-778.9 36,-778.9 30,-778.9 24,-772.9 24,-766.9 24,-766.9 24,-675.9 24,-675.9 24,-669.9 30,-663.9 36,-663.9"/>
<text text-anchor="middle" x="79.38" y="-766.35" font-family="Helvetica,sans-Serif" font-weight="bold" font-size="9.00">navigator</text>
</g>
<!-- buffer -->
<g id="node1" class="node">
<title>buffer</title>
<g id="a_node1"><a xlink:title="buffer">
<path fill="#ffffcc" stroke="grey" d="M571.33,-459.15C571.33,-459.15 529.67,-459.15 529.67,-459.15 526.58,-459.15 523.5,-456.07 523.5,-452.99 523.5,-452.99 523.5,-446.82 523.5,-446.82 523.5,-443.74 526.58,-440.65 529.67,-440.65 529.67,-440.65 571.33,-440.65 571.33,-440.65 574.42,-440.65 577.5,-443.74 577.5,-446.82 577.5,-446.82 577.5,-452.99 577.5,-452.99 577.5,-456.07 574.42,-459.15 571.33,-459.15"/>
<text text-anchor="middle" x="550.5" y="-446.6" font-family="Helvetica,sans-Serif" font-size="9.00" fill="grey">buffer</text>
</a>
</g>
</g>
<!-- node_modules/@mui/icons&#45;material -->
<g id="node2" class="node">
<title>node_modules/@mui/icons&#45;material</title>
<g id="a_node2"><a xlink:href="node_modules/@mui/icons-material" xlink:title="icons&#45;material">
<polygon fill="#c40b0a" fill-opacity="0.101961" stroke="black" points="729.75,-470.15 658.06,-470.15 656,-468.1 656,-451.65 727.69,-451.65 729.75,-453.71 729.75,-470.15"/>
<polyline fill="none" stroke="black" points="727.69,-468.1 656,-468.1"/>
<polyline fill="none" stroke="black" points="727.69,-468.1 727.69,-451.65"/>
<polyline fill="none" stroke="black" points="727.69,-468.1 729.75,-470.15"/>
<text text-anchor="start" x="664" y="-457.6" font-family="Helvetica,sans-Serif" font-size="9.00" fill="#c40b0a">icons&#45;material</text>
</a>
</g>
</g>
<!-- node_modules/@mui/material -->
<g id="node3" class="node">
<title>node_modules/@mui/material</title>
<g id="a_node3"><a xlink:href="node_modules/@mui/material" xlink:title="material">
<polygon fill="#c40b0a" fill-opacity="0.101961" stroke="black" points="719.88,-501.15 667.93,-501.15 665.88,-499.1 665.88,-482.65 717.82,-482.65 719.88,-484.71 719.88,-501.15"/>
<polyline fill="none" stroke="black" points="717.82,-499.1 665.88,-499.1"/>
<polyline fill="none" stroke="black" points="717.82,-499.1 717.82,-482.65"/>
<polyline fill="none" stroke="black" points="717.82,-499.1 719.88,-501.15"/>
<text text-anchor="start" x="676.38" y="-488.6" font-family="Helvetica,sans-Serif" font-size="9.00" fill="#c40b0a">material</text>
</a>
</g>
</g>
<!-- node_modules/@testing&#45;library/jest&#45;dom -->
<g id="node4" class="node">
<title>node_modules/@testing&#45;library/jest&#45;dom</title>
<g id="a_node4"><a xlink:href="node_modules/@testing-library/jest-dom" xlink:title="jest&#45;dom">
<polygon fill="#c40b0a" fill-opacity="0.101961" stroke="black" points="719.88,-197.15 667.93,-197.15 665.88,-195.1 665.88,-178.65 717.82,-178.65 719.88,-180.71 719.88,-197.15"/>
<polyline fill="none" stroke="black" points="717.82,-195.1 665.88,-195.1"/>
<polyline fill="none" stroke="black" points="717.82,-195.1 717.82,-178.65"/>
<polyline fill="none" stroke="black" points="717.82,-195.1 719.88,-197.15"/>
<text text-anchor="start" x="675.25" y="-184.6" font-family="Helvetica,sans-Serif" font-size="9.00" fill="#c40b0a">jest&#45;dom</text>
</a>
</g>
</g>
<!-- node_modules/@testing&#45;library/react -->
<g id="node5" class="node">
<title>node_modules/@testing&#45;library/react</title>
<g id="a_node5"><a xlink:href="node_modules/@testing-library/react" xlink:title="react">
<polygon fill="#c40b0a" fill-opacity="0.101961" stroke="black" points="719.88,-228.15 667.93,-228.15 665.88,-226.1 665.88,-209.65 717.82,-209.65 719.88,-211.71 719.88,-228.15"/>
<polyline fill="none" stroke="black" points="717.82,-226.1 665.88,-226.1"/>
<polyline fill="none" stroke="black" points="717.82,-226.1 717.82,-209.65"/>
<polyline fill="none" stroke="black" points="717.82,-226.1 719.88,-228.15"/>
<text text-anchor="start" x="682.75" y="-215.6" font-family="Helvetica,sans-Serif" font-size="9.00" fill="#c40b0a">react</text>
</a>
</g>
</g>
<!-- node_modules/react -->
<g id="node6" class="node">
<title>node_modules/react</title>
<g id="a_node6"><a xlink:href="node_modules/react" xlink:title="react">
<polygon fill="#c40b0a" fill-opacity="0.101961" stroke="black" points="719.88,-436.15 667.93,-436.15 665.88,-434.1 665.88,-417.65 717.82,-417.65 719.88,-419.71 719.88,-436.15"/>
<polyline fill="none" stroke="black" points="717.82,-434.1 665.88,-434.1"/>
<polyline fill="none" stroke="black" points="717.82,-434.1 717.82,-417.65"/>
<polyline fill="none" stroke="black" points="717.82,-434.1 719.88,-436.15"/>
<text text-anchor="start" x="682.75" y="-423.6" font-family="Helvetica,sans-Serif" font-size="9.00" fill="#c40b0a">react</text>
</a>
</g>
</g>
<!-- node_modules/react&#45;dom -->
<g id="node7" class="node">
<title>node_modules/react&#45;dom</title>
<g id="a_node7"><a xlink:href="node_modules/react-dom" xlink:title="react&#45;dom">
<polygon fill="#c40b0a" fill-opacity="0.101961" stroke="black" points="721.5,-343.15 666.31,-343.15 664.25,-341.1 664.25,-324.65 719.44,-324.65 721.5,-326.71 721.5,-343.15"/>
<polyline fill="none" stroke="black" points="719.44,-341.1 664.25,-341.1"/>
<polyline fill="none" stroke="black" points="719.44,-341.1 719.44,-324.65"/>
<polyline fill="none" stroke="black" points="719.44,-341.1 721.5,-343.15"/>
<text text-anchor="start" x="672.25" y="-330.6" font-family="Helvetica,sans-Serif" font-size="9.00" fill="#c40b0a">react&#45;dom</text>
</a>
</g>
</g>
<!-- node_modules/react&#45;router&#45;dom -->
<g id="node8" class="node">
<title>node_modules/react&#45;router&#45;dom</title>
<g id="a_node8"><a xlink:href="node_modules/react-router-dom" xlink:title="react&#45;router&#45;dom">
<polygon fill="#c40b0a" fill-opacity="0.101961" stroke="black" points="735,-405.15 652.81,-405.15 650.75,-403.1 650.75,-386.65 732.94,-386.65 735,-388.71 735,-405.15"/>
<polyline fill="none" stroke="black" points="732.94,-403.1 650.75,-403.1"/>
<polyline fill="none" stroke="black" points="732.94,-403.1 732.94,-386.65"/>
<polyline fill="none" stroke="black" points="732.94,-403.1 735,-405.15"/>
<text text-anchor="start" x="658.75" y="-392.6" font-family="Helvetica,sans-Serif" font-size="9.00" fill="#c40b0a">react&#45;router&#45;dom</text>
</a>
</g>
</g>
<!-- node_modules/react&#45;scripts -->
<g id="node9" class="node">
<title>node_modules/react&#45;scripts</title>
<g id="a_node9"><a xlink:href="node_modules/react-scripts" xlink:title="react&#45;scripts">
<polygon fill="#c40b0a" fill-opacity="0.101961" stroke="black" points="725.62,-312.15 662.18,-312.15 660.12,-310.1 660.12,-293.65 723.57,-293.65 725.62,-295.71 725.62,-312.15"/>
<polyline fill="none" stroke="black" points="723.57,-310.1 660.12,-310.1"/>
<polyline fill="none" stroke="black" points="723.57,-310.1 723.57,-293.65"/>
<polyline fill="none" stroke="black" points="723.57,-310.1 725.62,-312.15"/>
<text text-anchor="start" x="668.12" y="-299.6" font-family="Helvetica,sans-Serif" font-size="9.00" fill="#c40b0a">react&#45;scripts</text>
</a>
</g>
</g>
<!-- node_modules/web&#45;vitals -->
<g id="node10" class="node">
<title>node_modules/web&#45;vitals</title>
<g id="a_node10"><a xlink:href="node_modules/web-vitals" xlink:title="web&#45;vitals">
<polygon fill="#c40b0a" fill-opacity="0.101961" stroke="black" points="721.5,-374.15 666.31,-374.15 664.25,-372.1 664.25,-355.65 719.44,-355.65 721.5,-357.71 721.5,-374.15"/>
<polyline fill="none" stroke="black" points="719.44,-372.1 664.25,-372.1"/>
<polyline fill="none" stroke="black" points="719.44,-372.1 719.44,-355.65"/>
<polyline fill="none" stroke="black" points="719.44,-372.1 721.5,-374.15"/>
<text text-anchor="start" x="672.25" y="-361.6" font-family="Helvetica,sans-Serif" font-size="9.00" fill="#c40b0a">web&#45;vitals</text>
</a>
</g>
</g>
<!-- node_modules/workbox&#45;core -->
<g id="node11" class="node">
<title>node_modules/workbox&#45;core</title>
<g id="a_node11"><a xlink:href="node_modules/workbox-core" xlink:title="workbox&#45;core">
<polygon fill="#c40b0a" fill-opacity="0.101961" stroke="black" points="728.62,-281.15 659.18,-281.15 657.12,-279.1 657.12,-262.65 726.57,-262.65 728.62,-264.71 728.62,-281.15"/>
<polyline fill="none" stroke="black" points="726.57,-279.1 657.12,-279.1"/>
<polyline fill="none" stroke="black" points="726.57,-279.1 726.57,-262.65"/>
<polyline fill="none" stroke="black" points="726.57,-279.1 728.62,-281.15"/>
<text text-anchor="start" x="665.12" y="-268.6" font-family="Helvetica,sans-Serif" font-size="9.00" fill="#c40b0a">workbox&#45;core</text>
</a>
</g>
</g>
<!-- node_modules/workbox&#45;expiration -->
<g id="node12" class="node">
<title>node_modules/workbox&#45;expiration</title>
<g id="a_node12"><a xlink:href="node_modules/workbox-expiration" xlink:title="workbox&#45;expiration">
<polygon fill="#c40b0a" fill-opacity="0.101961" stroke="black" points="739.88,-163.15 647.93,-163.15 645.88,-161.1 645.88,-144.65 737.82,-144.65 739.88,-146.71 739.88,-163.15"/>
<polyline fill="none" stroke="black" points="737.82,-161.1 645.88,-161.1"/>
<polyline fill="none" stroke="black" points="737.82,-161.1 737.82,-144.65"/>
<polyline fill="none" stroke="black" points="737.82,-161.1 739.88,-163.15"/>
<text text-anchor="start" x="653.88" y="-150.6" font-family="Helvetica,sans-Serif" font-size="9.00" fill="#c40b0a">workbox&#45;expiration</text>
</a>
</g>
</g>
<!-- node_modules/workbox&#45;precaching -->
<g id="node13" class="node">
<title>node_modules/workbox&#45;precaching</title>
<g id="a_node13"><a xlink:href="node_modules/workbox-precaching" xlink:title="workbox&#45;precaching">
<polygon fill="#c40b0a" fill-opacity="0.101961" stroke="black" points="742.5,-132.15 645.31,-132.15 643.25,-130.1 643.25,-113.65 740.44,-113.65 742.5,-115.71 742.5,-132.15"/>
<polyline fill="none" stroke="black" points="740.44,-130.1 643.25,-130.1"/>
<polyline fill="none" stroke="black" points="740.44,-130.1 740.44,-113.65"/>
<polyline fill="none" stroke="black" points="740.44,-130.1 742.5,-132.15"/>
<text text-anchor="start" x="651.25" y="-119.6" font-family="Helvetica,sans-Serif" font-size="9.00" fill="#c40b0a">workbox&#45;precaching</text>
</a>
</g>
</g>
<!-- node_modules/workbox&#45;routing -->
<g id="node14" class="node">
<title>node_modules/workbox&#45;routing</title>
<g id="a_node14"><a xlink:href="node_modules/workbox-routing" xlink:title="workbox&#45;routing">
<polygon fill="#c40b0a" fill-opacity="0.101961" stroke="black" points="733.88,-101.15 653.93,-101.15 651.88,-99.1 651.88,-82.65 731.82,-82.65 733.88,-84.71 733.88,-101.15"/>
<polyline fill="none" stroke="black" points="731.82,-99.1 651.88,-99.1"/>
<polyline fill="none" stroke="black" points="731.82,-99.1 731.82,-82.65"/>
<polyline fill="none" stroke="black" points="731.82,-99.1 733.88,-101.15"/>
<text text-anchor="start" x="659.88" y="-88.6" font-family="Helvetica,sans-Serif" font-size="9.00" fill="#c40b0a">workbox&#45;routing</text>
</a>
</g>
</g>
<!-- node_modules/workbox&#45;strategies -->
<g id="node15" class="node">
<title>node_modules/workbox&#45;strategies</title>
<g id="a_node15"><a xlink:href="node_modules/workbox-strategies" xlink:title="workbox&#45;strategies">
<polygon fill="#c40b0a" fill-opacity="0.101961" stroke="black" points="739.5,-70.15 648.31,-70.15 646.25,-68.1 646.25,-51.65 737.44,-51.65 739.5,-53.71 739.5,-70.15"/>
<polyline fill="none" stroke="black" points="737.44,-68.1 646.25,-68.1"/>
<polyline fill="none" stroke="black" points="737.44,-68.1 737.44,-51.65"/>
<polyline fill="none" stroke="black" points="737.44,-68.1 739.5,-70.15"/>
<text text-anchor="start" x="654.25" y="-57.6" font-family="Helvetica,sans-Serif" font-size="9.00" fill="#c40b0a">workbox&#45;strategies</text>
</a>
</g>
</g>
<!-- src/App.css -->
<g id="node16" class="node">
<title>src/App.css</title>
<g id="a_node16"><a xlink:href="src/App.css" xlink:title="App.css">
<path fill="#ffffcc" stroke="black" d="M411.58,-493.15C411.58,-493.15 369.92,-493.15 369.92,-493.15 366.83,-493.15 363.75,-490.07 363.75,-486.99 363.75,-486.99 363.75,-480.82 363.75,-480.82 363.75,-477.74 366.83,-474.65 369.92,-474.65 369.92,-474.65 411.58,-474.65 411.58,-474.65 414.67,-474.65 417.75,-477.74 417.75,-480.82 417.75,-480.82 417.75,-486.99 417.75,-486.99 417.75,-490.07 414.67,-493.15 411.58,-493.15"/>
<text text-anchor="start" x="374.62" y="-480.6" font-family="Helvetica,sans-Serif" font-size="9.00">App.css</text>
</a>
</g>
</g>
<!-- src/App.test.tsx -->
<g id="node17" class="node">
<title>src/App.test.tsx</title>
<g id="a_node17"><a xlink:href="src/App.test.tsx" xlink:title="App.test.tsx">
<path fill="#bbfeff" stroke="black" d="M104.46,-586.15C104.46,-586.15 54.29,-586.15 54.29,-586.15 51.21,-586.15 48.12,-583.07 48.12,-579.99 48.12,-579.99 48.12,-573.82 48.12,-573.82 48.12,-570.74 51.21,-567.65 54.29,-567.65 54.29,-567.65 104.46,-567.65 104.46,-567.65 107.54,-567.65 110.62,-570.74 110.62,-573.82 110.62,-573.82 110.62,-579.99 110.62,-579.99 110.62,-583.07 107.54,-586.15 104.46,-586.15"/>
<text text-anchor="start" x="56.12" y="-573.6" font-family="Helvetica,sans-Serif" font-size="9.00">App.test.tsx</text>
</a>
</g>
</g>
<!-- src/App.test.tsx&#45;&gt;node_modules/@testing&#45;library/react -->
<g id="edge2" class="edge">
<title>src/App.test.tsx&#45;&gt;node_modules/@testing&#45;library/react</title>
<path fill="none" stroke="#000000" stroke-opacity="0.200000" d="M110.91,-576.54C122.69,-574.72 135.13,-570.41 142.75,-560.9 159.93,-539.48 133.27,-335.08 150.75,-313.9 215.67,-235.24 549.78,-221.71 658,-219.38"/>
<polygon fill="#000000" fill-opacity="0.200000" stroke="#000000" stroke-opacity="0.200000" points="657.93,-221.49 663.88,-219.27 657.84,-217.29 657.93,-221.49"/>
</g>
<!-- src/App.tsx -->
<g id="node18" class="node">
<title>src/App.tsx</title>
<g id="a_node18"><a xlink:href="src/App.tsx" xlink:title="App.tsx">
<path fill="#bbfeff" stroke="black" d="M238.08,-562.15C238.08,-562.15 196.42,-562.15 196.42,-562.15 193.33,-562.15 190.25,-559.07 190.25,-555.99 190.25,-555.99 190.25,-549.82 190.25,-549.82 190.25,-546.74 193.33,-543.65 196.42,-543.65 196.42,-543.65 238.08,-543.65 238.08,-543.65 241.17,-543.65 244.25,-546.74 244.25,-549.82 244.25,-549.82 244.25,-555.99 244.25,-555.99 244.25,-559.07 241.17,-562.15 238.08,-562.15"/>
<text text-anchor="start" x="202.25" y="-549.6" font-family="Helvetica,sans-Serif" font-size="9.00">App.tsx</text>
</a>
</g>
</g>
<!-- src/App.test.tsx&#45;&gt;src/App.tsx -->
<g id="edge1" class="edge">
<title>src/App.test.tsx&#45;&gt;src/App.tsx</title>
<path fill="none" stroke="#000000" stroke-width="2" stroke-opacity="0.200000" d="M110.87,-571.52C131.77,-567.82 159.56,-562.92 181.35,-559.07"/>
<polygon fill="#000000" fill-opacity="0.200000" stroke="#000000" stroke-width="2" stroke-opacity="0.200000" points="181.46,-561.18 187,-558.07 180.73,-557.05 181.46,-561.18"/>
</g>
<!-- src/App.tsx&#45;&gt;node_modules/react -->
<g id="edge5" class="edge">
<title>src/App.tsx&#45;&gt;node_modules/react</title>
<path fill="none" stroke="#000000" stroke-opacity="0.200000" d="M244.45,-546.88C258.28,-542.33 274.29,-534.62 283.75,-521.9 297.96,-502.78 277.03,-487.63 291.75,-468.9 350.5,-394.15 396.46,-406.25 489.75,-387.9 549.71,-376.11 577.44,-352.49 627.25,-387.9 636.07,-394.17 627.37,-403.48 635.25,-410.9 641.58,-416.86 649.95,-420.63 658.31,-423"/>
<polygon fill="#000000" fill-opacity="0.200000" stroke="#000000" stroke-opacity="0.200000" points="657.81,-425.04 664.14,-424.39 658.79,-420.96 657.81,-425.04"/>
</g>
<!-- src/App.tsx&#45;&gt;node_modules/react&#45;router&#45;dom -->
<g id="edge6" class="edge">
<title>src/App.tsx&#45;&gt;node_modules/react&#45;router&#45;dom</title>
<path fill="none" stroke="#000000" stroke-opacity="0.200000" d="M244.57,-547.31C258.62,-542.88 274.81,-535.14 283.75,-521.9 300.57,-497 271,-408.64 291.75,-386.9 343.33,-332.87 562.64,-328.41 627.25,-365.9 633.45,-369.5 629.6,-375.49 635.25,-379.9 637.93,-381.99 640.86,-383.81 643.95,-385.39"/>
<polygon fill="#000000" fill-opacity="0.200000" stroke="#000000" stroke-opacity="0.200000" points="642.73,-387.15 649.07,-387.7 644.45,-383.32 642.73,-387.15"/>
</g>
<!-- src/App.tsx&#45;&gt;src/App.css -->
<g id="edge3" class="edge">
<title>src/App.tsx&#45;&gt;src/App.css</title>
<path fill="none" stroke="#000000" stroke-width="2" stroke-opacity="0.200000" d="M244.61,-545.02C257.64,-540.06 272.87,-532.55 283.75,-521.9 289.43,-516.34 285.49,-510.8 291.75,-505.9 309.49,-492.02 334.29,-486.54 354.5,-484.53"/>
<polygon fill="#000000" fill-opacity="0.200000" stroke="#000000" stroke-width="2" stroke-opacity="0.200000" points="354.59,-486.63 360.41,-484.07 354.26,-482.44 354.59,-486.63"/>
</g>
<!-- src/components/pages/HomePage.tsx -->
<g id="node19" class="node">
<title>src/components/pages/HomePage.tsx</title>
<g id="a_node19"><a xlink:href="src/components/pages/HomePage.tsx" xlink:title="HomePage.tsx">
<path fill="#bbfeff" stroke="black" d="M422.58,-844.15C422.58,-844.15 358.92,-844.15 358.92,-844.15 355.83,-844.15 352.75,-841.07 352.75,-837.99 352.75,-837.99 352.75,-831.82 352.75,-831.82 352.75,-828.74 355.83,-825.65 358.92,-825.65 358.92,-825.65 422.58,-825.65 422.58,-825.65 425.67,-825.65 428.75,-828.74 428.75,-831.82 428.75,-831.82 428.75,-837.99 428.75,-837.99 428.75,-841.07 425.67,-844.15 422.58,-844.15"/>
<text text-anchor="start" x="360.75" y="-831.6" font-family="Helvetica,sans-Serif" font-size="9.00">HomePage.tsx</text>
</a>
</g>
</g>
<!-- src/App.tsx&#45;&gt;src/components/pages/HomePage.tsx -->
<g id="edge4" class="edge">
<title>src/App.tsx&#45;&gt;src/components/pages/HomePage.tsx</title>
<path fill="none" stroke="#000000" stroke-width="2" stroke-dasharray="5,2" stroke-opacity="0.200000" d="M244.51,-555.55C258.54,-558.44 274.73,-564.45 283.75,-576.9 299.14,-598.15 275.01,-792.7 291.75,-812.9 304.24,-827.97 324.61,-834.06 343.55,-836.14"/>
<polygon fill="#000000" fill-opacity="0.200000" stroke="#000000" stroke-width="2" stroke-opacity="0.200000" points="343.24,-838.22 349.39,-836.61 343.58,-834.03 343.24,-838.22"/>
</g>
<!-- src/components/buildingblocks/Header.tsx -->
<g id="node21" class="node">
<title>src/components/buildingblocks/Header.tsx</title>
<g id="a_node21"><a xlink:href="src/components/buildingblocks/Header.tsx" xlink:title="Header.tsx">
<path fill="#bbfeff" stroke="black" d="M574.08,-701.15C574.08,-701.15 526.92,-701.15 526.92,-701.15 523.83,-701.15 520.75,-698.07 520.75,-694.99 520.75,-694.99 520.75,-688.82 520.75,-688.82 520.75,-685.74 523.83,-682.65 526.92,-682.65 526.92,-682.65 574.08,-682.65 574.08,-682.65 577.17,-682.65 580.25,-685.74 580.25,-688.82 580.25,-688.82 580.25,-694.99 580.25,-694.99 580.25,-698.07 577.17,-701.15 574.08,-701.15"/>
<text text-anchor="start" x="528.75" y="-688.6" font-family="Helvetica,sans-Serif" font-size="9.00">Header.tsx</text>
</a>
</g>
</g>
<!-- src/components/pages/HomePage.tsx&#45;&gt;src/components/buildingblocks/Header.tsx -->
<g id="edge22" class="edge">
<title>src/components/pages/HomePage.tsx&#45;&gt;src/components/buildingblocks/Header.tsx</title>
<path fill="none" stroke="#000000" stroke-width="2" stroke-opacity="0.200000" d="M429.03,-835.48C447.69,-833.67 468.96,-828 481.75,-812.9 497.16,-794.71 474.25,-724.02 489.75,-705.9 495.35,-699.35 503.38,-695.55 511.74,-693.4"/>
<polygon fill="#000000" fill-opacity="0.200000" stroke="#000000" stroke-width="2" stroke-opacity="0.200000" points="512.02,-695.48 517.52,-692.29 511.23,-691.36 512.02,-695.48"/>
</g>
<!-- src/clientShared/UserInterface.ts -->
<g id="node20" class="node">
<title>src/clientShared/UserInterface.ts</title>
<g id="a_node20"><a xlink:href="src/clientShared/UserInterface.ts" xlink:title="UserInterface.ts">
<path fill="#ccffcc" stroke="black" d="M113.08,-855.15C113.08,-855.15 45.67,-855.15 45.67,-855.15 42.58,-855.15 39.5,-852.07 39.5,-848.99 39.5,-848.99 39.5,-842.82 39.5,-842.82 39.5,-839.74 42.58,-836.65 45.67,-836.65 45.67,-836.65 113.08,-836.65 113.08,-836.65 116.17,-836.65 119.25,-839.74 119.25,-842.82 119.25,-842.82 119.25,-848.99 119.25,-848.99 119.25,-852.07 116.17,-855.15 113.08,-855.15"/>
<text text-anchor="start" x="47.5" y="-842.6" font-family="Helvetica,sans-Serif" font-size="9.00">UserInterface.ts</text>
</a>
</g>
</g>
<!-- src/components/buildingblocks/Header.tsx&#45;&gt;node_modules/@mui/icons&#45;material -->
<g id="edge7" class="edge">
<title>src/components/buildingblocks/Header.tsx&#45;&gt;node_modules/@mui/icons&#45;material</title>
<path fill="none" stroke="#000000" stroke-opacity="0.200000" d="M580.51,-691.34C596.91,-689.37 616.27,-683.91 627.25,-669.9 640.49,-653.01 621.95,-493.75 635.25,-476.9 638.81,-472.39 643.54,-469.09 648.75,-466.69"/>
<polygon fill="#000000" fill-opacity="0.200000" stroke="#000000" stroke-opacity="0.200000" points="649.29,-468.73 654.15,-464.64 647.8,-464.81 649.29,-468.73"/>
</g>
<!-- src/components/buildingblocks/Header.tsx&#45;&gt;node_modules/@mui/material -->
<g id="edge8" class="edge">
<title>src/components/buildingblocks/Header.tsx&#45;&gt;node_modules/@mui/material</title>
<path fill="none" stroke="#000000" stroke-opacity="0.200000" d="M580.52,-689.77C596.11,-687.21 614.66,-681.7 627.25,-669.9 674.55,-625.61 687.32,-544.01 690.7,-508.8"/>
<polygon fill="#000000" fill-opacity="0.200000" stroke="#000000" stroke-opacity="0.200000" points="692.76,-509.31 691.18,-503.16 688.58,-508.95 692.76,-509.31"/>
</g>
<!-- src/components/buildingblocks/Header.tsx&#45;&gt;node_modules/react -->
<g id="edge9" class="edge">
<title>src/components/buildingblocks/Header.tsx&#45;&gt;node_modules/react</title>
<path fill="none" stroke="#000000" stroke-opacity="0.200000" d="M580.54,-691.37C596.95,-689.4 616.31,-683.95 627.25,-669.9 642.89,-649.81 619.21,-460.67 635.25,-440.9 640.93,-433.9 649.52,-430.07 658.29,-428.06"/>
<polygon fill="#000000" fill-opacity="0.200000" stroke="#000000" stroke-opacity="0.200000" points="658.61,-430.14 664.16,-427.03 657.89,-426 658.61,-430.14"/>
</g>
<!-- src/components/buildingblocks/layout/HorizontalSplit.tsx -->
<g id="node22" class="node">
<title>src/components/buildingblocks/layout/HorizontalSplit.tsx</title>
<g id="a_node22"><a xlink:href="src/components/buildingblocks/layout/HorizontalSplit.tsx" xlink:title="HorizontalSplit.tsx">
<path fill="#bbfeff" stroke="black" d="M589.08,-735.15C589.08,-735.15 511.92,-735.15 511.92,-735.15 508.83,-735.15 505.75,-732.07 505.75,-728.99 505.75,-728.99 505.75,-722.82 505.75,-722.82 505.75,-719.74 508.83,-716.65 511.92,-716.65 511.92,-716.65 589.08,-716.65 589.08,-716.65 592.17,-716.65 595.25,-719.74 595.25,-722.82 595.25,-722.82 595.25,-728.99 595.25,-728.99 595.25,-732.07 592.17,-735.15 589.08,-735.15"/>
<text text-anchor="start" x="513.75" y="-722.6" font-family="Helvetica,sans-Serif" font-size="9.00">HorizontalSplit.tsx</text>
</a>
</g>
</g>
<!-- src/components/buildingblocks/layout/HorizontalSplit.tsx&#45;&gt;node_modules/@mui/material -->
<g id="edge10" class="edge">
<title>src/components/buildingblocks/layout/HorizontalSplit.tsx&#45;&gt;node_modules/@mui/material</title>
<path fill="none" stroke="#000000" stroke-opacity="0.200000" d="M595.62,-726.49C607.06,-724.6 618.59,-720.63 627.25,-712.9 688.23,-658.53 693.03,-550.12 692.49,-508.61"/>
<polygon fill="#000000" fill-opacity="0.200000" stroke="#000000" stroke-opacity="0.200000" points="694.59,-508.7 692.36,-502.75 690.39,-508.79 694.59,-508.7"/>
</g>
<!-- src/components/hooks/Battery.ts -->
<g id="node23" class="node">
<title>src/components/hooks/Battery.ts</title>
<g id="a_node23"><a xlink:href="src/components/hooks/Battery.ts" xlink:title="Battery.ts">
<path fill="#ddfeff" stroke="black" d="M411.58,-783.15C411.58,-783.15 369.92,-783.15 369.92,-783.15 366.83,-783.15 363.75,-780.07 363.75,-776.99 363.75,-776.99 363.75,-770.82 363.75,-770.82 363.75,-767.74 366.83,-764.65 369.92,-764.65 369.92,-764.65 411.58,-764.65 411.58,-764.65 414.67,-764.65 417.75,-767.74 417.75,-770.82 417.75,-770.82 417.75,-776.99 417.75,-776.99 417.75,-780.07 414.67,-783.15 411.58,-783.15"/>
<text text-anchor="start" x="372.38" y="-770.6" font-family="Helvetica,sans-Serif" font-size="9.00">Battery.ts</text>
</a>
</g>
</g>
<!-- src/components/hooks/Battery.ts&#45;&gt;node_modules/react -->
<g id="edge11" class="edge">
<title>src/components/hooks/Battery.ts&#45;&gt;node_modules/react</title>
<path fill="none" stroke="#000000" stroke-opacity="0.200000" d="M418.21,-777.01C438.62,-777.8 465.95,-775.07 481.75,-757.9 494.75,-743.78 476.93,-686.19 489.75,-671.9 531.4,-625.49 586.85,-691.42 627.25,-643.9 641.87,-626.71 620.99,-458.4 635.25,-440.9 640.9,-433.97 649.39,-430.16 658.08,-428.13"/>
<polygon fill="#000000" fill-opacity="0.200000" stroke="#000000" stroke-opacity="0.200000" points="658.35,-430.22 663.89,-427.09 657.61,-426.08 658.35,-430.22"/>
</g>
<!-- src/components/hooks/GPSPosition.ts -->
<g id="node24" class="node">
<title>src/components/hooks/GPSPosition.ts</title>
<g id="a_node24"><a xlink:href="src/components/hooks/GPSPosition.ts" xlink:title="GPSPosition.ts">
<path fill="#ddfeff" stroke="black" d="M422.96,-752.15C422.96,-752.15 358.54,-752.15 358.54,-752.15 355.46,-752.15 352.38,-749.07 352.38,-745.99 352.38,-745.99 352.38,-739.82 352.38,-739.82 352.38,-736.74 355.46,-733.65 358.54,-733.65 358.54,-733.65 422.96,-733.65 422.96,-733.65 426.04,-733.65 429.12,-736.74 429.12,-739.82 429.12,-739.82 429.12,-745.99 429.12,-745.99 429.12,-749.07 426.04,-752.15 422.96,-752.15"/>
<text text-anchor="start" x="360.38" y="-739.6" font-family="Helvetica,sans-Serif" font-size="9.00">GPSPosition.ts</text>
</a>
</g>
</g>
<!-- src/components/hooks/GPSPosition.ts&#45;&gt;node_modules/react -->
<g id="edge12" class="edge">
<title>src/components/hooks/GPSPosition.ts&#45;&gt;node_modules/react</title>
<path fill="none" stroke="#000000" stroke-opacity="0.200000" d="M429.53,-745.98C447.85,-745.31 468.67,-740.96 481.75,-726.9 505.18,-701.71 466.99,-675.71 489.75,-649.9 531.26,-602.85 587.13,-666.15 627.25,-617.9 639.84,-602.77 622.77,-456.13 635.25,-440.9 640.92,-433.99 649.41,-430.18 658.11,-428.15"/>
<polygon fill="#000000" fill-opacity="0.200000" stroke="#000000" stroke-opacity="0.200000" points="658.38,-430.24 663.91,-427.11 657.63,-426.11 658.38,-430.24"/>
</g>
<!-- src/components/hooks/NetworkConnectionInfo.ts -->
<g id="node25" class="node">
<title>src/components/hooks/NetworkConnectionInfo.ts</title>
<g id="a_node25"><a xlink:href="src/components/hooks/NetworkConnectionInfo.ts" xlink:title="NetworkConnectionInfo.ts">
<path fill="#ddfeff" stroke="black" d="M445.08,-721.15C445.08,-721.15 336.42,-721.15 336.42,-721.15 333.33,-721.15 330.25,-718.07 330.25,-714.99 330.25,-714.99 330.25,-708.82 330.25,-708.82 330.25,-705.74 333.33,-702.65 336.42,-702.65 336.42,-702.65 445.08,-702.65 445.08,-702.65 448.17,-702.65 451.25,-705.74 451.25,-708.82 451.25,-708.82 451.25,-714.99 451.25,-714.99 451.25,-718.07 448.17,-721.15 445.08,-721.15"/>
<text text-anchor="start" x="338.25" y="-708.6" font-family="Helvetica,sans-Serif" font-size="9.00">NetworkConnectionInfo.ts</text>
</a>
</g>
</g>
<!-- src/components/hooks/NetworkConnectionInfo.ts&#45;&gt;node_modules/react -->
<g id="edge13" class="edge">
<title>src/components/hooks/NetworkConnectionInfo.ts&#45;&gt;node_modules/react</title>
<path fill="none" stroke="#000000" stroke-opacity="0.200000" d="M451.36,-712.14C462.81,-709.43 473.72,-704.47 481.75,-695.9 503.76,-672.41 468.37,-647.97 489.75,-623.9 531.42,-577 586.95,-639.99 627.25,-591.9 648.83,-566.15 613.84,-466.8 635.25,-440.9 640.95,-434.01 649.45,-430.21 658.14,-428.18"/>
<polygon fill="#000000" fill-opacity="0.200000" stroke="#000000" stroke-opacity="0.200000" points="658.41,-430.27 663.94,-427.14 657.67,-426.13 658.41,-430.27"/>
</g>
<!-- src/components/hooks/Promise.ts -->
<g id="node26" class="node">
<title>src/components/hooks/Promise.ts</title>
<g id="a_node26"><a xlink:href="src/components/hooks/Promise.ts" xlink:title="Promise.ts">
<path fill="#ddfeff" stroke="black" d="M413.96,-690.15C413.96,-690.15 367.54,-690.15 367.54,-690.15 364.46,-690.15 361.38,-687.07 361.38,-683.99 361.38,-683.99 361.38,-677.82 361.38,-677.82 361.38,-674.74 364.46,-671.65 367.54,-671.65 367.54,-671.65 413.96,-671.65 413.96,-671.65 417.04,-671.65 420.12,-674.74 420.12,-677.82 420.12,-677.82 420.12,-683.99 420.12,-683.99 420.12,-687.07 417.04,-690.15 413.96,-690.15"/>
<text text-anchor="start" x="369.38" y="-677.6" font-family="Helvetica,sans-Serif" font-size="9.00">Promise.ts</text>
</a>
</g>
</g>
<!-- src/components/hooks/Promise.ts&#45;&gt;node_modules/react -->
<g id="edge14" class="edge">
<title>src/components/hooks/Promise.ts&#45;&gt;node_modules/react</title>
<path fill="none" stroke="#000000" stroke-opacity="0.200000" d="M420.62,-683.97C440.64,-684.37 466.39,-681.17 481.75,-664.9 502.34,-643.1 469.74,-620.24 489.75,-597.9 531.62,-551.17 586.68,-613.77 627.25,-565.9 645.25,-544.67 617.4,-462.26 635.25,-440.9 640.98,-434.04 649.5,-430.25 658.19,-428.22"/>
<polygon fill="#000000" fill-opacity="0.200000" stroke="#000000" stroke-opacity="0.200000" points="658.46,-430.31 663.99,-427.18 657.71,-426.18 658.46,-430.31"/>
</g>
<!-- src/components/hooks/SecureContext.ts -->
<g id="node27" class="node">
<title>src/components/hooks/SecureContext.ts</title>
<g id="a_node27"><a xlink:href="src/components/hooks/SecureContext.ts" xlink:title="SecureContext.ts">
<path fill="#ddfeff" stroke="black" d="M427.46,-659.15C427.46,-659.15 354.04,-659.15 354.04,-659.15 350.96,-659.15 347.88,-656.07 347.88,-652.99 347.88,-652.99 347.88,-646.82 347.88,-646.82 347.88,-643.74 350.96,-640.65 354.04,-640.65 354.04,-640.65 427.46,-640.65 427.46,-640.65 430.54,-640.65 433.62,-643.74 433.62,-646.82 433.62,-646.82 433.62,-652.99 433.62,-652.99 433.62,-656.07 430.54,-659.15 427.46,-659.15"/>
<text text-anchor="start" x="355.88" y="-646.6" font-family="Helvetica,sans-Serif" font-size="9.00">SecureContext.ts</text>
</a>
</g>
</g>
<!-- src/components/hooks/SecureContext.ts&#45;&gt;node_modules/react -->
<g id="edge15" class="edge">
<title>src/components/hooks/SecureContext.ts&#45;&gt;node_modules/react</title>
<path fill="none" stroke="#000000" stroke-opacity="0.200000" d="M433.96,-652.59C451.06,-651.35 469.59,-646.65 481.75,-633.9 500.92,-613.79 471.11,-592.51 489.75,-571.9 531.84,-525.37 586.29,-587.43 627.25,-539.9 641.66,-523.18 620.95,-457.72 635.25,-440.9 641.04,-434.09 649.57,-430.31 658.26,-428.29"/>
<polygon fill="#000000" fill-opacity="0.200000" stroke="#000000" stroke-opacity="0.200000" points="658.53,-430.37 664.06,-427.24 657.78,-426.24 658.53,-430.37"/>
</g>
<!-- src/components/hooks/SessionStorage.ts -->
<g id="node28" class="node">
<title>src/components/hooks/SessionStorage.ts</title>
<g id="a_node28"><a xlink:href="src/components/hooks/SessionStorage.ts" xlink:title="SessionStorage.ts">
<path fill="#ddfeff" stroke="black" d="M429.71,-628.15C429.71,-628.15 351.79,-628.15 351.79,-628.15 348.71,-628.15 345.62,-625.07 345.62,-621.99 345.62,-621.99 345.62,-615.82 345.62,-615.82 345.62,-612.74 348.71,-609.65 351.79,-609.65 351.79,-609.65 429.71,-609.65 429.71,-609.65 432.79,-609.65 435.88,-612.74 435.88,-615.82 435.88,-615.82 435.88,-621.99 435.88,-621.99 435.88,-625.07 432.79,-628.15 429.71,-628.15"/>
<text text-anchor="start" x="353.62" y="-615.6" font-family="Helvetica,sans-Serif" font-size="9.00">SessionStorage.ts</text>
</a>
</g>
</g>
<!-- src/components/hooks/SessionStorage.ts&#45;&gt;node_modules/react -->
<g id="edge16" class="edge">
<title>src/components/hooks/SessionStorage.ts&#45;&gt;node_modules/react</title>
<path fill="none" stroke="#000000" stroke-opacity="0.200000" d="M436.21,-621.33C452.64,-619.84 470.07,-615.01 481.75,-602.9 499.51,-584.49 472.49,-564.78 489.75,-545.9 532.09,-499.6 585.61,-560.84 627.25,-513.9 648.91,-489.49 613.76,-465.47 635.25,-440.9 641.14,-434.17 649.7,-430.42 658.39,-428.39"/>
<polygon fill="#000000" fill-opacity="0.200000" stroke="#000000" stroke-opacity="0.200000" points="658.65,-430.48 664.17,-427.34 657.89,-426.35 658.65,-430.48"/>
</g>
<!-- src/components/hooks/URLMappedStateValue.ts -->
<g id="node29" class="node">
<title>src/components/hooks/URLMappedStateValue.ts</title>
<g id="a_node29"><a xlink:href="src/components/hooks/URLMappedStateValue.ts" xlink:title="URLMappedStateValue.ts">
<path fill="#ddfeff" stroke="black" d="M445.46,-597.15C445.46,-597.15 336.04,-597.15 336.04,-597.15 332.96,-597.15 329.88,-594.07 329.88,-590.99 329.88,-590.99 329.88,-584.82 329.88,-584.82 329.88,-581.74 332.96,-578.65 336.04,-578.65 336.04,-578.65 445.46,-578.65 445.46,-578.65 448.54,-578.65 451.62,-581.74 451.62,-584.82 451.62,-584.82 451.62,-590.99 451.62,-590.99 451.62,-594.07 448.54,-597.15 445.46,-597.15"/>
<text text-anchor="start" x="337.88" y="-584.6" font-family="Helvetica,sans-Serif" font-size="9.00">URLMappedStateValue.ts</text>
</a>
</g>
</g>
<!-- src/components/hooks/URLMappedStateValue.ts&#45;&gt;buffer -->
<g id="edge17" class="edge">
<title>src/components/hooks/URLMappedStateValue.ts&#45;&gt;buffer</title>
<path fill="none" stroke="#000000" stroke-dasharray="5,2" stroke-opacity="0.200000" d="M452.05,-588.23C463.31,-585.48 473.97,-580.49 481.75,-571.9 497.31,-554.72 475.22,-485.96 489.75,-467.9 496.2,-459.89 506.08,-455.34 515.97,-452.79"/>
<polygon fill="#000000" fill-opacity="0.200000" stroke="#000000" stroke-opacity="0.200000" points="516.21,-454.89 521.64,-451.59 515.33,-450.78 516.21,-454.89"/>
</g>
<!-- src/components/hooks/URLMappedStateValue.ts&#45;&gt;node_modules/react -->
<g id="edge18" class="edge">
<title>src/components/hooks/URLMappedStateValue.ts&#45;&gt;node_modules/react</title>
<path fill="none" stroke="#000000" stroke-opacity="0.200000" d="M452.02,-587.65C463.15,-584.92 473.76,-580.08 481.75,-571.9 498.09,-555.18 473.86,-537.05 489.75,-519.9 532.4,-473.88 584.24,-533.58 627.25,-487.9 641.78,-472.48 620.83,-456.43 635.25,-440.9 641.28,-434.41 649.8,-430.72 658.41,-428.68"/>
<polygon fill="#000000" fill-opacity="0.200000" stroke="#000000" stroke-opacity="0.200000" points="658.61,-430.78 664.12,-427.6 657.84,-426.65 658.61,-430.78"/>
</g>
<!-- src/components/hooks/URLMappedStateValue.ts&#45;&gt;node_modules/react&#45;router&#45;dom -->
<g id="edge19" class="edge">
<title>src/components/hooks/URLMappedStateValue.ts&#45;&gt;node_modules/react&#45;router&#45;dom</title>
<path fill="none" stroke="#000000" stroke-opacity="0.200000" d="M451.92,-588.11C463.2,-585.37 473.89,-580.42 481.75,-571.9 494.32,-558.29 477.16,-502.5 489.75,-488.9 531.9,-443.39 583.89,-509.27 627.25,-464.9 643.9,-447.87 619.5,-429.77 635.25,-411.9 637.66,-409.17 640.49,-406.89 643.59,-404.99"/>
<polygon fill="#000000" fill-opacity="0.200000" stroke="#000000" stroke-opacity="0.200000" points="644.51,-406.88 648.9,-402.28 642.6,-403.13 644.51,-406.88"/>
</g>
<!-- src/components/hooks/UseEvent.ts -->
<g id="node30" class="node">
<title>src/components/hooks/UseEvent.ts</title>
<g id="a_node30"><a xlink:href="src/components/hooks/UseEvent.ts" xlink:title="UseEvent.ts">
<path fill="#ddfeff" stroke="black" d="M416.96,-566.15C416.96,-566.15 364.54,-566.15 364.54,-566.15 361.46,-566.15 358.38,-563.07 358.38,-559.99 358.38,-559.99 358.38,-553.82 358.38,-553.82 358.38,-550.74 361.46,-547.65 364.54,-547.65 364.54,-547.65 416.96,-547.65 416.96,-547.65 420.04,-547.65 423.12,-550.74 423.12,-553.82 423.12,-553.82 423.12,-559.99 423.12,-559.99 423.12,-563.07 420.04,-566.15 416.96,-566.15"/>
<text text-anchor="start" x="366.38" y="-553.6" font-family="Helvetica,sans-Serif" font-size="9.00">UseEvent.ts</text>
</a>
</g>
</g>
<!-- src/components/hooks/UseEvent.ts&#45;&gt;node_modules/react -->
<g id="edge20" class="edge">
<title>src/components/hooks/UseEvent.ts&#45;&gt;node_modules/react</title>
<path fill="none" stroke="#000000" stroke-opacity="0.200000" d="M423.43,-560.21C443.14,-560.38 467.38,-556.79 481.75,-540.9 497.59,-523.38 472.75,-451.31 489.75,-434.9 513,-412.47 607.2,-418.15 658.38,-423.12"/>
<polygon fill="#000000" fill-opacity="0.200000" stroke="#000000" stroke-opacity="0.200000" points="657.92,-425.18 664.1,-423.69 658.34,-421 657.92,-425.18"/>
</g>
<!-- src/components/hooks/UseWorkerServiceCommunication.ts -->
<g id="node31" class="node">
<title>src/components/hooks/UseWorkerServiceCommunication.ts</title>
<g id="a_node31"><a xlink:href="src/components/hooks/UseWorkerServiceCommunication.ts" xlink:title="UseWorkerServiceCommunication.ts">
<path fill="#ddfeff" stroke="black" d="M467.58,-535.15C467.58,-535.15 313.92,-535.15 313.92,-535.15 310.83,-535.15 307.75,-532.07 307.75,-528.99 307.75,-528.99 307.75,-522.82 307.75,-522.82 307.75,-519.74 310.83,-516.65 313.92,-516.65 313.92,-516.65 467.58,-516.65 467.58,-516.65 470.67,-516.65 473.75,-519.74 473.75,-522.82 473.75,-522.82 473.75,-528.99 473.75,-528.99 473.75,-532.07 470.67,-535.15 467.58,-535.15"/>
<text text-anchor="start" x="315.75" y="-522.6" font-family="Helvetica,sans-Serif" font-size="9.00">UseWorkerServiceCommunication.ts</text>
</a>
</g>
</g>
<!-- src/components/hooks/UseWorkerServiceCommunication.ts&#45;&gt;node_modules/react -->
<g id="edge21" class="edge">
<title>src/components/hooks/UseWorkerServiceCommunication.ts&#45;&gt;node_modules/react</title>
<path fill="none" stroke="#000000" stroke-opacity="0.200000" d="M473.92,-519.53C476.74,-517.63 479.37,-515.44 481.75,-512.9 497.15,-496.48 473.21,-427.18 489.75,-411.9 534.64,-370.43 566.54,-404.95 627.25,-411.9 637.47,-413.07 648.43,-415.25 658.36,-417.6"/>
<polygon fill="#000000" fill-opacity="0.200000" stroke="#000000" stroke-opacity="0.200000" points="657.59,-419.57 663.92,-418.96 658.59,-415.49 657.59,-419.57"/>
</g>
<!-- src/global/navigator/Battery.d.ts -->
<g id="node32" class="node">
<title>src/global/navigator/Battery.d.ts</title>
<g id="a_node32"><a xlink:href="src/global/navigator/Battery.d.ts" xlink:title="Battery.d.ts">
<path fill="#ccffcc" stroke="black" d="M103.33,-752.15C103.33,-752.15 55.42,-752.15 55.42,-752.15 52.33,-752.15 49.25,-749.07 49.25,-745.99 49.25,-745.99 49.25,-739.82 49.25,-739.82 49.25,-736.74 52.33,-733.65 55.42,-733.65 55.42,-733.65 103.33,-733.65 103.33,-733.65 106.42,-733.65 109.5,-736.74 109.5,-739.82 109.5,-739.82 109.5,-745.99 109.5,-745.99 109.5,-749.07 106.42,-752.15 103.33,-752.15"/>
<text text-anchor="start" x="57.25" y="-739.6" font-family="Helvetica,sans-Serif" font-size="9.00">Battery.d.ts</text>
</a>
</g>
</g>
<!-- src/global/navigator/ConnectionInfo.d.ts -->
<g id="node33" class="node">
<title>src/global/navigator/ConnectionInfo.d.ts</title>
<g id="a_node33"><a xlink:href="src/global/navigator/ConnectionInfo.d.ts" xlink:title="ConnectionInfo.d.ts">
<path fill="#ccffcc" stroke="black" d="M120.58,-721.15C120.58,-721.15 38.17,-721.15 38.17,-721.15 35.08,-721.15 32,-718.07 32,-714.99 32,-714.99 32,-708.82 32,-708.82 32,-705.74 35.08,-702.65 38.17,-702.65 38.17,-702.65 120.58,-702.65 120.58,-702.65 123.67,-702.65 126.75,-705.74 126.75,-708.82 126.75,-708.82 126.75,-714.99 126.75,-714.99 126.75,-718.07 123.67,-721.15 120.58,-721.15"/>
<text text-anchor="start" x="40" y="-708.6" font-family="Helvetica,sans-Serif" font-size="9.00">ConnectionInfo.d.ts</text>
</a>
</g>
</g>
<!-- src/global/navigator/GPSPosition.d.ts -->
<g id="node34" class="node">
<title>src/global/navigator/GPSPosition.d.ts</title>
<g id="a_node34"><a xlink:href="src/global/navigator/GPSPosition.d.ts" xlink:title="GPSPosition.d.ts">
<path fill="#ccffcc" stroke="black" d="M115.33,-690.15C115.33,-690.15 43.42,-690.15 43.42,-690.15 40.33,-690.15 37.25,-687.07 37.25,-683.99 37.25,-683.99 37.25,-677.82 37.25,-677.82 37.25,-674.74 40.33,-671.65 43.42,-671.65 43.42,-671.65 115.33,-671.65 115.33,-671.65 118.42,-671.65 121.5,-674.74 121.5,-677.82 121.5,-677.82 121.5,-683.99 121.5,-683.99 121.5,-687.07 118.42,-690.15 115.33,-690.15"/>
<text text-anchor="start" x="45.25" y="-677.6" font-family="Helvetica,sans-Serif" font-size="9.00">GPSPosition.d.ts</text>
</a>
</g>
</g>
<!-- src/index.css -->
<g id="node35" class="node">
<title>src/index.css</title>
<g id="a_node35"><a xlink:href="src/index.css" xlink:title="index.css">
<path fill="#ffffcc" stroke="black" d="M238.21,-632.15C238.21,-632.15 196.29,-632.15 196.29,-632.15 193.21,-632.15 190.12,-629.07 190.12,-625.99 190.12,-625.99 190.12,-619.82 190.12,-619.82 190.12,-616.74 193.21,-613.65 196.29,-613.65 196.29,-613.65 238.21,-613.65 238.21,-613.65 241.29,-613.65 244.38,-616.74 244.38,-619.82 244.38,-619.82 244.38,-625.99 244.38,-625.99 244.38,-629.07 241.29,-632.15 238.21,-632.15"/>
<text text-anchor="start" x="198.12" y="-619.6" font-family="Helvetica,sans-Serif" font-size="9.00">index.css</text>
</a>
</g>
</g>
<!-- src/index.tsx -->
<g id="node36" class="node">
<title>src/index.tsx</title>
<g id="a_node36"><a xlink:href="src/index.tsx" xlink:title="index.tsx">
<path fill="#bbfeff" stroke="black" d="M100.21,-617.15C100.21,-617.15 58.54,-617.15 58.54,-617.15 55.46,-617.15 52.38,-614.07 52.38,-610.99 52.38,-610.99 52.38,-604.82 52.38,-604.82 52.38,-601.74 55.46,-598.65 58.54,-598.65 58.54,-598.65 100.21,-598.65 100.21,-598.65 103.29,-598.65 106.38,-601.74 106.38,-604.82 106.38,-604.82 106.38,-610.99 106.38,-610.99 106.38,-614.07 103.29,-617.15 100.21,-617.15"/>
<text text-anchor="start" x="61.38" y="-604.6" font-family="Helvetica,sans-Serif" font-size="9.00">index.tsx</text>
</a>
</g>
</g>
<!-- src/index.tsx&#45;&gt;node_modules/react -->
<g id="edge27" class="edge">
<title>src/index.tsx&#45;&gt;node_modules/react</title>
<path fill="none" stroke="#000000" stroke-opacity="0.200000" d="M106.85,-607.88C119.63,-606.39 134.04,-602.25 142.75,-591.9 157.11,-574.85 139.96,-511.41 150.75,-491.9 188.57,-423.53 218.99,-415.37 291.75,-386.9 430.89,-332.48 512.73,-269.95 627.25,-365.9 642.82,-378.95 621.62,-395.84 635.25,-410.9 641.25,-417.53 649.76,-421.5 658.37,-423.85"/>
<polygon fill="#000000" fill-opacity="0.200000" stroke="#000000" stroke-opacity="0.200000" points="657.78,-425.87 664.09,-425.13 658.7,-421.77 657.78,-425.87"/>
</g>
<!-- src/index.tsx&#45;&gt;node_modules/react&#45;dom -->
<g id="edge28" class="edge">
<title>src/index.tsx&#45;&gt;node_modules/react&#45;dom</title>
<path fill="none" stroke="#000000" stroke-opacity="0.200000" d="M106.71,-608.06C119.61,-606.65 134.18,-602.51 142.75,-591.9 157.07,-574.17 138.47,-406.11 150.75,-386.9 188.65,-327.62 223.42,-331.7 291.75,-314.9 436.55,-279.3 483.91,-271.79 627.25,-312.9 631.28,-314.06 631.42,-316.2 635.25,-317.9 642.05,-320.91 649.55,-323.5 656.82,-325.67"/>
<polygon fill="#000000" fill-opacity="0.200000" stroke="#000000" stroke-opacity="0.200000" points="656.16,-327.67 662.51,-327.29 657.31,-323.63 656.16,-327.67"/>
</g>
<!-- src/index.tsx&#45;&gt;src/App.tsx -->
<g id="edge23" class="edge">
<title>src/index.tsx&#45;&gt;src/App.tsx</title>
<path fill="none" stroke="#000000" stroke-width="2" stroke-opacity="0.200000" d="M106.79,-605.97C118.79,-603.95 132.55,-599.92 142.75,-591.9 148.69,-587.23 145.05,-581.86 150.75,-576.9 159.47,-569.31 170.8,-564.05 181.58,-560.43"/>
<polygon fill="#000000" fill-opacity="0.200000" stroke="#000000" stroke-width="2" stroke-opacity="0.200000" points="182.01,-562.49 187.14,-558.74 180.79,-558.47 182.01,-562.49"/>
</g>
<!-- src/index.tsx&#45;&gt;src/index.css -->
<g id="edge24" class="edge">
<title>src/index.tsx&#45;&gt;src/index.css</title>
<path fill="none" stroke="#000000" stroke-width="2" stroke-opacity="0.200000" d="M106.57,-610.8C127.68,-613.12 157.56,-616.42 180.8,-618.99"/>
<polygon fill="#000000" fill-opacity="0.200000" stroke="#000000" stroke-width="2" stroke-opacity="0.200000" points="180.47,-621.07 186.66,-619.64 180.93,-616.89 180.47,-621.07"/>
</g>
<!-- src/reportWebVitals.ts -->
<g id="node37" class="node">
<title>src/reportWebVitals.ts</title>
<g id="a_node37"><a xlink:href="src/reportWebVitals.ts" xlink:title="reportWebVitals.ts">
<path fill="#ddfeff" stroke="black" d="M256.21,-516.15C256.21,-516.15 178.29,-516.15 178.29,-516.15 175.21,-516.15 172.12,-513.07 172.12,-509.99 172.12,-509.99 172.12,-503.82 172.12,-503.82 172.12,-500.74 175.21,-497.65 178.29,-497.65 178.29,-497.65 256.21,-497.65 256.21,-497.65 259.29,-497.65 262.38,-500.74 262.38,-503.82 262.38,-503.82 262.38,-509.99 262.38,-509.99 262.38,-513.07 259.29,-516.15 256.21,-516.15"/>
<text text-anchor="start" x="180.12" y="-503.6" font-family="Helvetica,sans-Serif" font-size="9.00">reportWebVitals.ts</text>
</a>
</g>
</g>
<!-- src/index.tsx&#45;&gt;src/reportWebVitals.ts -->
<g id="edge25" class="edge">
<title>src/index.tsx&#45;&gt;src/reportWebVitals.ts</title>
<path fill="none" stroke="#000000" stroke-width="2" stroke-opacity="0.200000" d="M106.56,-607.63C119.26,-606.08 133.69,-601.95 142.75,-591.9 158.99,-573.88 136.3,-557.39 150.75,-537.9 156.26,-530.47 164,-524.76 172.25,-520.38"/>
<polygon fill="#000000" fill-opacity="0.200000" stroke="#000000" stroke-width="2" stroke-opacity="0.200000" points="172.99,-522.35 177.51,-517.88 171.19,-518.55 172.99,-522.35"/>
</g>
<!-- src/serviceWorkerRegistration.ts -->
<g id="node38" class="node">
<title>src/serviceWorkerRegistration.ts</title>
<g id="a_node38"><a xlink:href="src/serviceWorkerRegistration.ts" xlink:title="serviceWorkerRegistration.ts">
<path fill="#ddfeff" stroke="black" d="M277.58,-601.15C277.58,-601.15 156.92,-601.15 156.92,-601.15 153.83,-601.15 150.75,-598.07 150.75,-594.99 150.75,-594.99 150.75,-588.82 150.75,-588.82 150.75,-585.74 153.83,-582.65 156.92,-582.65 156.92,-582.65 277.58,-582.65 277.58,-582.65 280.67,-582.65 283.75,-585.74 283.75,-588.82 283.75,-588.82 283.75,-594.99 283.75,-594.99 283.75,-598.07 280.67,-601.15 277.58,-601.15"/>
<text text-anchor="start" x="158.75" y="-588.6" font-family="Helvetica,sans-Serif" font-size="9.00">serviceWorkerRegistration.ts</text>
</a>
</g>
</g>
<!-- src/index.tsx&#45;&gt;src/serviceWorkerRegistration.ts -->
<g id="edge26" class="edge">
<title>src/index.tsx&#45;&gt;src/serviceWorkerRegistration.ts</title>
<path fill="none" stroke="#000000" stroke-width="2" stroke-opacity="0.200000" d="M106.57,-604.82C116.79,-603.62 129.05,-602.17 141.63,-600.69"/>
<polygon fill="#000000" fill-opacity="0.200000" stroke="#000000" stroke-width="2" stroke-opacity="0.200000" points="141.65,-602.8 147.36,-600.02 141.15,-598.63 141.65,-602.8"/>
</g>
<!-- src/reportWebVitals.ts&#45;&gt;node_modules/web&#45;vitals -->
<g id="edge30" class="edge">
<title>src/reportWebVitals.ts&#45;&gt;node_modules/web&#45;vitals</title>
<path fill="none" stroke="#000000" stroke-opacity="0.200000" d="M218.83,-497.57C221.28,-467.44 233.51,-372.44 291.75,-333.9 353.93,-292.76 563.32,-295.54 627.25,-333.9 633.73,-337.79 629.37,-344.16 635.25,-348.9 641.46,-353.91 649.15,-357.35 656.84,-359.71"/>
<polygon fill="#000000" fill-opacity="0.200000" stroke="#000000" stroke-opacity="0.200000" points="656.06,-361.68 662.4,-361.2 657.15,-357.62 656.06,-361.68"/>
</g>
<!-- src/react&#45;app&#45;env.d.ts -->
<g id="node39" class="node">
<title>src/react&#45;app&#45;env.d.ts</title>
<g id="a_node39"><a xlink:href="src/react-app-env.d.ts" xlink:title="react&#45;app&#45;env.d.ts">
<path fill="#ddfeff" stroke="black" d="M117.58,-555.15C117.58,-555.15 41.17,-555.15 41.17,-555.15 38.08,-555.15 35,-552.07 35,-548.99 35,-548.99 35,-542.82 35,-542.82 35,-539.74 38.08,-536.65 41.17,-536.65 41.17,-536.65 117.58,-536.65 117.58,-536.65 120.67,-536.65 123.75,-539.74 123.75,-542.82 123.75,-542.82 123.75,-548.99 123.75,-548.99 123.75,-552.07 120.67,-555.15 117.58,-555.15"/>
<text text-anchor="start" x="43" y="-542.6" font-family="Helvetica,sans-Serif" font-size="9.00">react&#45;app&#45;env.d.ts</text>
</a>
</g>
</g>
<!-- src/react&#45;app&#45;env.d.ts&#45;&gt;node_modules/react&#45;scripts -->
<g id="edge29" class="edge">
<title>src/react&#45;app&#45;env.d.ts&#45;&gt;node_modules/react&#45;scripts</title>
<path fill="none" stroke="#000000" stroke-opacity="0.200000" d="M124.22,-542.31C131.39,-539.76 138.01,-535.85 142.75,-529.9 153.14,-516.87 138.8,-241.53 150.75,-229.9 185.17,-196.39 546.93,-188.67 627.25,-255.9 638.16,-265.04 625.3,-276.73 635.25,-286.9 640.02,-291.79 646.16,-295.21 652.63,-297.6"/>
<polygon fill="#000000" fill-opacity="0.200000" stroke="#000000" stroke-opacity="0.200000" points="651.93,-299.58 658.28,-299.37 653.18,-295.57 651.93,-299.58"/>
</g>
<!-- src/service&#45;worker.ts -->
<g id="node40" class="node">
<title>src/service&#45;worker.ts</title>
<g id="a_node40"><a xlink:href="src/service-worker.ts" xlink:title="service&#45;worker.ts">
<path fill="#ddfeff" stroke="black" d="M115.33,-493.15C115.33,-493.15 43.42,-493.15 43.42,-493.15 40.33,-493.15 37.25,-490.07 37.25,-486.99 37.25,-486.99 37.25,-480.82 37.25,-480.82 37.25,-477.74 40.33,-474.65 43.42,-474.65 43.42,-474.65 115.33,-474.65 115.33,-474.65 118.42,-474.65 121.5,-477.74 121.5,-480.82 121.5,-480.82 121.5,-486.99 121.5,-486.99 121.5,-490.07 118.42,-493.15 115.33,-493.15"/>
<text text-anchor="start" x="45.25" y="-480.6" font-family="Helvetica,sans-Serif" font-size="9.00">service&#45;worker.ts</text>
</a>
</g>
</g>
<!-- src/service&#45;worker.ts&#45;&gt;node_modules/workbox&#45;core -->
<g id="edge31" class="edge">
<title>src/service&#45;worker.ts&#45;&gt;node_modules/workbox&#45;core</title>
<path fill="none" stroke="#000000" stroke-opacity="0.200000" d="M81.04,-474.18C84.53,-426.3 102.45,-216.35 150.75,-177.9 190.39,-146.34 560.46,-141.73 627.25,-203.9 645.01,-220.43 618.93,-239.95 635.25,-257.9 639.18,-262.22 644.21,-265.31 649.65,-267.49"/>
<polygon fill="#000000" fill-opacity="0.200000" stroke="#000000" stroke-opacity="0.200000" points="648.9,-269.46 655.26,-269.34 650.21,-265.47 648.9,-269.46"/>
</g>
<!-- src/service&#45;worker.ts&#45;&gt;node_modules/workbox&#45;expiration -->
<g id="edge32" class="edge">
<title>src/service&#45;worker.ts&#45;&gt;node_modules/workbox&#45;expiration</title>
<path fill="none" stroke="#000000" stroke-opacity="0.200000" d="M80.85,-474.41C83.57,-424.72 98.85,-195.23 150.75,-152.9 187.86,-122.64 509.12,-141.22 638.36,-150.03"/>
<polygon fill="#000000" fill-opacity="0.200000" stroke="#000000" stroke-opacity="0.200000" points="637.84,-152.1 643.97,-150.42 638.13,-147.91 637.84,-152.1"/>
</g>
<!-- src/service&#45;worker.ts&#45;&gt;node_modules/workbox&#45;precaching -->
<g id="edge33" class="edge">
<title>src/service&#45;worker.ts&#45;&gt;node_modules/workbox&#45;precaching</title>
<path fill="none" stroke="#000000" stroke-opacity="0.200000" d="M80.75,-474.2C82.97,-422.32 96.24,-178.41 150.75,-132.9 222.88,-72.68 512.63,-100.46 635.91,-115.49"/>
<polygon fill="#000000" fill-opacity="0.200000" stroke="#000000" stroke-opacity="0.200000" points="635.36,-117.54 641.57,-116.18 635.87,-113.37 635.36,-117.54"/>
</g>
<!-- src/service&#45;worker.ts&#45;&gt;node_modules/workbox&#45;routing -->
<g id="edge34" class="edge">
<title>src/service&#45;worker.ts&#45;&gt;node_modules/workbox&#45;routing</title>
<path fill="none" stroke="#000000" stroke-opacity="0.200000" d="M80.54,-474.25C81.67,-419.21 90.32,-145.67 150.75,-94.9 188,-63.61 519.2,-80.99 644.31,-88.77"/>
<polygon fill="#000000" fill-opacity="0.200000" stroke="#000000" stroke-opacity="0.200000" points="643.9,-90.85 650.02,-89.13 644.17,-86.65 643.9,-90.85"/>
</g>
<!-- src/service&#45;worker.ts&#45;&gt;node_modules/workbox&#45;strategies -->
<g id="edge35" class="edge">
<title>src/service&#45;worker.ts&#45;&gt;node_modules/workbox&#45;strategies</title>
<path fill="none" stroke="#000000" stroke-opacity="0.200000" d="M80.45,-474.5C81.12,-418.38 87.62,-128.43 150.75,-73.9 299.08,54.21 564.89,-17.8 658.3,-48.88"/>
<polygon fill="#000000" fill-opacity="0.200000" stroke="#000000" stroke-opacity="0.200000" points="657.46,-50.81 663.81,-50.74 658.8,-46.83 657.46,-50.81"/>
</g>
<!-- src/setupTests.ts -->
<g id="node41" class="node">
<title>src/setupTests.ts</title>
<g id="a_node41"><a xlink:href="src/setupTests.ts" xlink:title="setupTests.ts">
<path fill="#ddfeff" stroke="black" d="M107.46,-524.15C107.46,-524.15 51.29,-524.15 51.29,-524.15 48.21,-524.15 45.12,-521.07 45.12,-517.99 45.12,-517.99 45.12,-511.82 45.12,-511.82 45.12,-508.74 48.21,-505.65 51.29,-505.65 51.29,-505.65 107.46,-505.65 107.46,-505.65 110.54,-505.65 113.62,-508.74 113.62,-511.82 113.62,-511.82 113.62,-517.99 113.62,-517.99 113.62,-521.07 110.54,-524.15 107.46,-524.15"/>
<text text-anchor="start" x="53.12" y="-511.6" font-family="Helvetica,sans-Serif" font-size="9.00">setupTests.ts</text>
</a>
</g>
</g>
<!-- src/setupTests.ts&#45;&gt;node_modules/@testing&#45;library/jest&#45;dom -->
<g id="edge36" class="edge">
<title>src/setupTests.ts&#45;&gt;node_modules/@testing&#45;library/jest&#45;dom</title>
<path fill="none" stroke="#000000" stroke-opacity="0.200000" d="M113.87,-514.06C124.74,-512 135.78,-507.64 142.75,-498.9 153.01,-486.04 139.12,-214.54 150.75,-202.9 186.55,-167.08 545.69,-180.95 658.29,-186.22"/>
<polygon fill="#000000" fill-opacity="0.200000" stroke="#000000" stroke-opacity="0.200000" points="658.05,-188.32 664.14,-186.5 658.25,-184.12 658.05,-188.32"/>
</g>
</g>
</svg>
