<?xml version="1.0" encoding="UTF-8" standalone="no"?>
<!DOCTYPE svg PUBLIC "-//W3C//DTD SVG 1.1//EN"
 "http://www.w3.org/Graphics/SVG/1.1/DTD/svg11.dtd">
<!-- Generated by graphviz version 9.0.0 (0)
 -->
<!-- Title: dependency&#45;cruiser output Pages: 1 -->
<svg width="768pt" height="538pt"
 viewBox="0.00 0.00 768.25 538.00" xmlns="http://www.w3.org/2000/svg" xmlns:xlink="http://www.w3.org/1999/xlink">
<g id="graph0" class="graph" transform="scale(1 1) rotate(0) translate(4 534)">
<title>dependency&#45;cruiser output</title>
<polygon fill="white" stroke="none" points="-4,4 -4,-534 764.25,-534 764.25,4 -4,4"/>
<g id="clust1" class="cluster">
<title>cluster_node_modules</title>
<path fill="#ffffff" stroke="black" stroke-width="2" d="M531,-8C531,-8 595.25,-8 595.25,-8 601.25,-8 607.25,-14 607.25,-20 607.25,-20 607.25,-204 607.25,-204 607.25,-210 601.25,-216 595.25,-216 595.25,-216 531,-216 531,-216 525,-216 519,-210 519,-204 519,-204 519,-20 519,-20 519,-14 525,-8 531,-8"/>
<text text-anchor="middle" x="563.12" y="-203.45" font-family="Helvetica,sans-Serif" font-weight="bold" font-size="9.00">node_modules</text>
</g>
<g id="clust2" class="cluster">
<title>cluster_src</title>
<path fill="#ffffff" stroke="black" stroke-width="2" d="M20,-224C20,-224 740.25,-224 740.25,-224 746.25,-224 752.25,-230 752.25,-236 752.25,-236 752.25,-510 752.25,-510 752.25,-516 746.25,-522 740.25,-522 740.25,-522 20,-522 20,-522 14,-522 8,-516 8,-510 8,-510 8,-236 8,-236 8,-230 14,-224 20,-224"/>
<text text-anchor="middle" x="380.12" y="-509.45" font-family="Helvetica,sans-Serif" font-weight="bold" font-size="9.00">src</text>
</g>
<g id="clust3" class="cluster">
<title>cluster_src/clientShared</title>
<path fill="#ffffff" stroke="black" stroke-width="2" d="M53.5,-442C53.5,-442 125.25,-442 125.25,-442 131.25,-442 137.25,-448 137.25,-454 137.25,-454 137.25,-483 137.25,-483 137.25,-489 131.25,-495 125.25,-495 125.25,-495 53.5,-495 53.5,-495 47.5,-495 41.5,-489 41.5,-483 41.5,-483 41.5,-454 41.5,-454 41.5,-448 47.5,-442 53.5,-442"/>
<text text-anchor="middle" x="89.38" y="-482.45" font-family="Helvetica,sans-Serif" font-weight="bold" font-size="9.00">clientShared</text>
</g>
<g id="clust4" class="cluster">
<title>cluster_src/controller</title>
<path fill="#ffffff" stroke="black" stroke-width="2" d="M52,-381C52,-381 126.75,-381 126.75,-381 132.75,-381 138.75,-387 138.75,-393 138.75,-393 138.75,-422 138.75,-422 138.75,-428 132.75,-434 126.75,-434 126.75,-434 52,-434 52,-434 46,-434 40,-428 40,-422 40,-422 40,-393 40,-393 40,-387 46,-381 52,-381"/>
<text text-anchor="middle" x="89.38" y="-421.45" font-family="Helvetica,sans-Serif" font-weight="bold" font-size="9.00">controller</text>
</g>
<g id="clust5" class="cluster">
<title>cluster_src/core</title>
<path fill="#ffffff" stroke="black" stroke-width="2" d="M182.75,-238C182.75,-238 419.5,-238 419.5,-238 425.5,-238 431.5,-244 431.5,-250 431.5,-250 431.5,-340 431.5,-340 431.5,-346 425.5,-352 419.5,-352 419.5,-352 182.75,-352 182.75,-352 176.75,-352 170.75,-346 170.75,-340 170.75,-340 170.75,-250 170.75,-250 170.75,-244 176.75,-238 182.75,-238"/>
<text text-anchor="middle" x="301.12" y="-339.45" font-family="Helvetica,sans-Serif" font-weight="bold" font-size="9.00">core</text>
</g>
<g id="clust6" class="cluster">
<title>cluster_src/core/configuration</title>
<path fill="#ffffff" stroke="black" stroke-width="2" d="M190.75,-272C190.75,-272 299.25,-272 299.25,-272 305.25,-272 311.25,-278 311.25,-284 311.25,-284 311.25,-313 311.25,-313 311.25,-319 305.25,-325 299.25,-325 299.25,-325 190.75,-325 190.75,-325 184.75,-325 178.75,-319 178.75,-313 178.75,-313 178.75,-284 178.75,-284 178.75,-278 184.75,-272 190.75,-272"/>
<text text-anchor="middle" x="245" y="-312.45" font-family="Helvetica,sans-Serif" font-weight="bold" font-size="9.00">configuration</text>
</g>
<g id="clust7" class="cluster">
<title>cluster_src/data</title>
<path fill="#ffffff" stroke="black" stroke-width="2" d="M331.25,-360C331.25,-360 460,-360 460,-360 466,-360 472,-366 472,-372 472,-372 472,-463 472,-463 472,-469 466,-475 460,-475 460,-475 331.25,-475 331.25,-475 325.25,-475 319.25,-469 319.25,-463 319.25,-463 319.25,-372 319.25,-372 319.25,-366 325.25,-360 331.25,-360"/>
<text text-anchor="middle" x="395.62" y="-462.45" font-family="Helvetica,sans-Serif" font-weight="bold" font-size="9.00">data</text>
</g>
<g id="clust8" class="cluster">
<title>cluster_src/middleware</title>
<path fill="#ffffff" stroke="black" stroke-width="2" d="M28,-258C28,-258 150.75,-258 150.75,-258 156.75,-258 162.75,-264 162.75,-270 162.75,-270 162.75,-361 162.75,-361 162.75,-367 156.75,-373 150.75,-373 150.75,-373 28,-373 28,-373 22,-373 16,-367 16,-361 16,-361 16,-270 16,-270 16,-264 22,-258 28,-258"/>
<text text-anchor="middle" x="89.38" y="-360.45" font-family="Helvetica,sans-Serif" font-weight="bold" font-size="9.00">middleware</text>
</g>
<g id="clust9" class="cluster">
<title>cluster_src/misc</title>
<path fill="#ffffff" stroke="black" stroke-width="2" d="M492,-246C492,-246 732.25,-246 732.25,-246 738.25,-246 744.25,-252 744.25,-258 744.25,-258 744.25,-442 744.25,-442 744.25,-448 738.25,-454 732.25,-454 732.25,-454 492,-454 492,-454 486,-454 480,-448 480,-442 480,-442 480,-258 480,-258 480,-252 486,-246 492,-246"/>
<text text-anchor="middle" x="612.12" y="-441.45" font-family="Helvetica,sans-Serif" font-weight="bold" font-size="9.00">misc</text>
</g>
<!-- crypto -->
<g id="node1" class="node">
<title>crypto</title>
<g id="a_node1"><a xlink:title="crypto">
<path fill="#ffffcc" stroke="grey" d="M714.58,-216.25C714.58,-216.25 672.92,-216.25 672.92,-216.25 669.83,-216.25 666.75,-213.17 666.75,-210.08 666.75,-210.08 666.75,-203.92 666.75,-203.92 666.75,-200.83 669.83,-197.75 672.92,-197.75 672.92,-197.75 714.58,-197.75 714.58,-197.75 717.67,-197.75 720.75,-200.83 720.75,-203.92 720.75,-203.92 720.75,-210.08 720.75,-210.08 720.75,-213.17 717.67,-216.25 714.58,-216.25"/>
<text text-anchor="middle" x="693.75" y="-203.7" font-family="Helvetica,sans-Serif" font-size="9.00" fill="grey">crypto</text>
</a>
</g>
</g>
<!-- events -->
<g id="node2" class="node">
<title>events</title>
<g id="a_node2"><a xlink:title="events">
<path fill="#ffffcc" stroke="grey" d="M714.58,-185.25C714.58,-185.25 672.92,-185.25 672.92,-185.25 669.83,-185.25 666.75,-182.17 666.75,-179.08 666.75,-179.08 666.75,-172.92 666.75,-172.92 666.75,-169.83 669.83,-166.75 672.92,-166.75 672.92,-166.75 714.58,-166.75 714.58,-166.75 717.67,-166.75 720.75,-169.83 720.75,-172.92 720.75,-172.92 720.75,-179.08 720.75,-179.08 720.75,-182.17 717.67,-185.25 714.58,-185.25"/>
<text text-anchor="middle" x="693.75" y="-172.7" font-family="Helvetica,sans-Serif" font-size="9.00" fill="grey">events</text>
</a>
</g>
</g>
<!-- fs -->
<g id="node3" class="node">
<title>fs</title>
<g id="a_node3"><a xlink:title="fs">
<path fill="#ffffcc" stroke="grey" d="M265.83,-216.25C265.83,-216.25 224.17,-216.25 224.17,-216.25 221.08,-216.25 218,-213.17 218,-210.08 218,-210.08 218,-203.92 218,-203.92 218,-200.83 221.08,-197.75 224.17,-197.75 224.17,-197.75 265.83,-197.75 265.83,-197.75 268.92,-197.75 272,-200.83 272,-203.92 272,-203.92 272,-210.08 272,-210.08 272,-213.17 268.92,-216.25 265.83,-216.25"/>
<text text-anchor="middle" x="245" y="-203.7" font-family="Helvetica,sans-Serif" font-size="9.00" fill="grey">fs</text>
</a>
</g>
</g>
<!-- node_modules/cookie&#45;parser -->
<g id="node4" class="node">
<title>node_modules/cookie&#45;parser</title>
<g id="a_node4"><a xlink:href="node_modules/cookie-parser" xlink:title="cookie&#45;parser">
<polygon fill="#c40b0a" fill-opacity="0.101961" stroke="black" points="599.25,-34.25 529.06,-34.25 527,-32.19 527,-15.75 597.19,-15.75 599.25,-17.81 599.25,-34.25"/>
<polyline fill="none" stroke="black" points="597.19,-32.19 527,-32.19"/>
<polyline fill="none" stroke="black" points="597.19,-32.19 597.19,-15.75"/>
<polyline fill="none" stroke="black" points="597.19,-32.19 599.25,-34.25"/>
<text text-anchor="start" x="535" y="-21.7" font-family="Helvetica,sans-Serif" font-size="9.00" fill="#c40b0a">cookie&#45;parser</text>
</a>
</g>
</g>
<!-- node_modules/express -->
<g id="node5" class="node">
<title>node_modules/express</title>
<g id="a_node5"><a xlink:href="node_modules/express" xlink:title="express">
<polygon fill="#c40b0a" fill-opacity="0.101961" stroke="black" points="590.12,-96.25 538.18,-96.25 536.12,-94.19 536.12,-77.75 588.07,-77.75 590.12,-79.81 590.12,-96.25"/>
<polyline fill="none" stroke="black" points="588.07,-94.19 536.12,-94.19"/>
<polyline fill="none" stroke="black" points="588.07,-94.19 588.07,-77.75"/>
<polyline fill="none" stroke="black" points="588.07,-94.19 590.12,-96.25"/>
<text text-anchor="start" x="547" y="-83.7" font-family="Helvetica,sans-Serif" font-size="9.00" fill="#c40b0a">express</text>
</a>
</g>
</g>
<!-- node_modules/express&#45;ws -->
<g id="node6" class="node">
<title>node_modules/express&#45;ws</title>
<g id="a_node6"><a xlink:href="node_modules/express-ws" xlink:title="express&#45;ws">
<polygon fill="#c40b0a" fill-opacity="0.101961" stroke="black" points="594.38,-65.25 533.93,-65.25 531.88,-63.19 531.88,-46.75 592.32,-46.75 594.38,-48.81 594.38,-65.25"/>
<polyline fill="none" stroke="black" points="592.32,-63.19 531.88,-63.19"/>
<polyline fill="none" stroke="black" points="592.32,-63.19 592.32,-46.75"/>
<polyline fill="none" stroke="black" points="592.32,-63.19 594.38,-65.25"/>
<text text-anchor="start" x="539.88" y="-52.7" font-family="Helvetica,sans-Serif" font-size="9.00" fill="#c40b0a">express&#45;ws</text>
</a>
</g>
</g>
<!-- node_modules/mongodb -->
<g id="node7" class="node">
<title>node_modules/mongodb</title>
<g id="a_node7"><a xlink:href="node_modules/mongodb" xlink:title="mongodb">
<polygon fill="#c40b0a" fill-opacity="0.101961" stroke="black" points="590.62,-189.25 537.68,-189.25 535.62,-187.19 535.62,-170.75 588.57,-170.75 590.62,-172.81 590.62,-189.25"/>
<polyline fill="none" stroke="black" points="588.57,-187.19 535.62,-187.19"/>
<polyline fill="none" stroke="black" points="588.57,-187.19 588.57,-170.75"/>
<polyline fill="none" stroke="black" points="588.57,-187.19 590.62,-189.25"/>
<text text-anchor="start" x="543.62" y="-176.7" font-family="Helvetica,sans-Serif" font-size="9.00" fill="#c40b0a">mongodb</text>
</a>
</g>
</g>
<!-- node_modules/pino -->
<g id="node8" class="node">
<title>node_modules/pino</title>
<g id="a_node8"><a xlink:href="node_modules/pino" xlink:title="pino">
<polygon fill="#c40b0a" fill-opacity="0.101961" stroke="black" points="590.12,-127.25 538.18,-127.25 536.12,-125.19 536.12,-108.75 588.07,-108.75 590.12,-110.81 590.12,-127.25"/>
<polyline fill="none" stroke="black" points="588.07,-125.19 536.12,-125.19"/>
<polyline fill="none" stroke="black" points="588.07,-125.19 588.07,-108.75"/>
<polyline fill="none" stroke="black" points="588.07,-125.19 590.12,-127.25"/>
<text text-anchor="start" x="554.12" y="-114.7" font-family="Helvetica,sans-Serif" font-size="9.00" fill="#c40b0a">pino</text>
</a>
</g>
</g>
<!-- node_modules/redis -->
<g id="node9" class="node">
<title>node_modules/redis</title>
<g id="a_node9"><a xlink:href="node_modules/redis" xlink:title="redis">
<polygon fill="#c40b0a" fill-opacity="0.101961" stroke="black" points="590.12,-158.25 538.18,-158.25 536.12,-156.19 536.12,-139.75 588.07,-139.75 590.12,-141.81 590.12,-158.25"/>
<polyline fill="none" stroke="black" points="588.07,-156.19 536.12,-156.19"/>
<polyline fill="none" stroke="black" points="588.07,-156.19 588.07,-139.75"/>
<polyline fill="none" stroke="black" points="588.07,-156.19 590.12,-158.25"/>
<text text-anchor="start" x="553" y="-145.7" font-family="Helvetica,sans-Serif" font-size="9.00" fill="#c40b0a">redis</text>
</a>
</g>
</g>
<!-- os -->
<g id="node10" class="node">
<title>os</title>
<g id="a_node10"><a xlink:title="os">
<path fill="#ffffcc" stroke="grey" d="M416.46,-216.25C416.46,-216.25 374.79,-216.25 374.79,-216.25 371.71,-216.25 368.62,-213.17 368.62,-210.08 368.62,-210.08 368.62,-203.92 368.62,-203.92 368.62,-200.83 371.71,-197.75 374.79,-197.75 374.79,-197.75 416.46,-197.75 416.46,-197.75 419.54,-197.75 422.62,-200.83 422.62,-203.92 422.62,-203.92 422.62,-210.08 422.62,-210.08 422.62,-213.17 419.54,-216.25 416.46,-216.25"/>
<text text-anchor="middle" x="395.62" y="-203.7" font-family="Helvetica,sans-Serif" font-size="9.00" fill="grey">os</text>
</a>
</g>
</g>
<!-- src/clientShared/UserInterface.ts -->
<g id="node11" class="node">
<title>src/clientShared/UserInterface.ts</title>
<g id="a_node11"><a xlink:href="src/clientShared/UserInterface.ts" xlink:title="UserInterface.ts">
<path fill="#ccffcc" stroke="black" d="M123.08,-468.25C123.08,-468.25 55.67,-468.25 55.67,-468.25 52.58,-468.25 49.5,-465.17 49.5,-462.08 49.5,-462.08 49.5,-455.92 49.5,-455.92 49.5,-452.83 52.58,-449.75 55.67,-449.75 55.67,-449.75 123.08,-449.75 123.08,-449.75 126.17,-449.75 129.25,-452.83 129.25,-455.92 129.25,-455.92 129.25,-462.08 129.25,-462.08 129.25,-465.17 126.17,-468.25 123.08,-468.25"/>
<text text-anchor="start" x="57.5" y="-455.7" font-family="Helvetica,sans-Serif" font-size="9.00">UserInterface.ts</text>
</a>
</g>
</g>
<!-- src/controller/userController.ts -->
<g id="node12" class="node">
<title>src/controller/userController.ts</title>
<g id="a_node12"><a xlink:href="src/controller/userController.ts" xlink:title="userController.ts">
<path fill="#ddfeff" stroke="black" d="M124.58,-407.25C124.58,-407.25 54.17,-407.25 54.17,-407.25 51.08,-407.25 48,-404.17 48,-401.08 48,-401.08 48,-394.92 48,-394.92 48,-391.83 51.08,-388.75 54.17,-388.75 54.17,-388.75 124.58,-388.75 124.58,-388.75 127.67,-388.75 130.75,-391.83 130.75,-394.92 130.75,-394.92 130.75,-401.08 130.75,-401.08 130.75,-404.17 127.67,-407.25 124.58,-407.25"/>
<text text-anchor="start" x="56" y="-394.7" font-family="Helvetica,sans-Serif" font-size="9.00">userController.ts</text>
</a>
</g>
</g>
<!-- src/core/express.ts -->
<g id="node13" class="node">
<title>src/core/express.ts</title>
<g id="a_node13"><a xlink:href="src/core/express.ts" xlink:title="express.ts">
<path fill="#ddfeff" stroke="black" d="M267.46,-264.25C267.46,-264.25 222.54,-264.25 222.54,-264.25 219.46,-264.25 216.38,-261.17 216.38,-258.08 216.38,-258.08 216.38,-251.92 216.38,-251.92 216.38,-248.83 219.46,-245.75 222.54,-245.75 222.54,-245.75 267.46,-245.75 267.46,-245.75 270.54,-245.75 273.62,-248.83 273.62,-251.92 273.62,-251.92 273.62,-258.08 273.62,-258.08 273.62,-261.17 270.54,-264.25 267.46,-264.25"/>
<text text-anchor="start" x="224.38" y="-251.7" font-family="Helvetica,sans-Serif" font-size="9.00">express.ts</text>
</a>
</g>
</g>
<!-- src/controller/userController.ts&#45;&gt;src/core/express.ts -->
<g id="edge1" class="edge">
<title>src/controller/userController.ts&#45;&gt;src/core/express.ts</title>
<path fill="none" stroke="#000000" stroke-width="2" stroke-opacity="0.200000" d="M130.99,-394.4C142.97,-391.28 154.95,-385.74 162.75,-376 177.65,-357.39 154.88,-286.8 170.75,-269 179.87,-258.77 193.97,-254.61 207.37,-253.24"/>
<polygon fill="#000000" fill-opacity="0.200000" stroke="#000000" stroke-width="2" stroke-opacity="0.200000" points="207.13,-255.36 212.99,-252.9 206.87,-251.17 207.13,-255.36"/>
</g>
<!-- src/data/MongoConnectionManager.ts -->
<g id="node14" class="node">
<title>src/data/MongoConnectionManager.ts</title>
<g id="a_node14"><a xlink:href="src/data/MongoConnectionManager.ts" xlink:title="MongoConnectionManager.ts">
<path fill="#ddfeff" stroke="black" d="M457.83,-448.25C457.83,-448.25 333.42,-448.25 333.42,-448.25 330.33,-448.25 327.25,-445.17 327.25,-442.08 327.25,-442.08 327.25,-435.92 327.25,-435.92 327.25,-432.83 330.33,-429.75 333.42,-429.75 333.42,-429.75 457.83,-429.75 457.83,-429.75 460.92,-429.75 464,-432.83 464,-435.92 464,-435.92 464,-442.08 464,-442.08 464,-445.17 460.92,-448.25 457.83,-448.25"/>
<text text-anchor="start" x="335.25" y="-435.7" font-family="Helvetica,sans-Serif" font-size="9.00">MongoConnectionManager.ts</text>
</a>
</g>
</g>
<!-- src/controller/userController.ts&#45;&gt;src/data/MongoConnectionManager.ts -->
<g id="edge2" class="edge">
<title>src/controller/userController.ts&#45;&gt;src/data/MongoConnectionManager.ts</title>
<path fill="none" stroke="#000000" stroke-width="2" stroke-opacity="0.200000" d="M131.09,-403.49C178.78,-409.91 258.81,-420.7 318.18,-428.7"/>
<polygon fill="#000000" fill-opacity="0.200000" stroke="#000000" stroke-width="2" stroke-opacity="0.200000" points="317.56,-430.73 323.79,-429.45 318.12,-426.57 317.56,-430.73"/>
</g>
<!-- src/core/express.ts&#45;&gt;node_modules/cookie&#45;parser -->
<g id="edge6" class="edge">
<title>src/core/express.ts&#45;&gt;node_modules/cookie&#45;parser</title>
<path fill="none" stroke="#000000" stroke-opacity="0.200000" d="M274.01,-248.03C287.63,-243.11 302.84,-235.01 311.25,-222 321.88,-205.56 305.69,-60.12 319.25,-46 370.44,7.33 464.83,-2.34 519.65,-13.86"/>
<polygon fill="#000000" fill-opacity="0.200000" stroke="#000000" stroke-opacity="0.200000" points="519,-15.87 525.31,-15.1 519.89,-11.77 519,-15.87"/>
</g>
<!-- src/core/express.ts&#45;&gt;node_modules/express -->
<g id="edge7" class="edge">
<title>src/core/express.ts&#45;&gt;node_modules/express</title>
<path fill="none" stroke="#000000" stroke-opacity="0.200000" d="M273.88,-246.84C286.96,-241.69 301.73,-233.73 311.25,-222 319.94,-211.28 310.76,-202.88 319.25,-192 369.5,-127.63 403.26,-130.93 480,-103 495.48,-97.36 513.37,-93.58 528.49,-91.12"/>
<polygon fill="#000000" fill-opacity="0.200000" stroke="#000000" stroke-opacity="0.200000" points="528.56,-93.23 534.17,-90.24 527.92,-89.08 528.56,-93.23"/>
</g>
<!-- src/core/express.ts&#45;&gt;node_modules/express&#45;ws -->
<g id="edge8" class="edge">
<title>src/core/express.ts&#45;&gt;node_modules/express&#45;ws</title>
<path fill="none" stroke="#000000" stroke-opacity="0.200000" d="M273.89,-247.95C287.48,-243.01 302.7,-234.91 311.25,-222 325.88,-199.9 301.71,-122.87 319.25,-103 370.43,-45.04 469.74,-45.36 524.18,-50.65"/>
<polygon fill="#000000" fill-opacity="0.200000" stroke="#000000" stroke-opacity="0.200000" points="523.86,-52.73 530.04,-51.26 524.3,-48.55 523.86,-52.73"/>
</g>
<!-- src/data/MongoConnectionManager.ts&#45;&gt;events -->
<g id="edge11" class="edge">
<title>src/data/MongoConnectionManager.ts&#45;&gt;events</title>
<path fill="none" stroke="#000000" stroke-dasharray="5,2" stroke-opacity="0.200000" d="M464.38,-429.89C467.18,-427.93 469.75,-425.65 472,-423 484.94,-407.73 466.61,-257.89 480,-243 527.56,-190.1 581.03,-261.27 638.25,-219 648.96,-211.09 641.46,-201.03 651.25,-192 653.81,-189.64 656.76,-187.61 659.88,-185.87"/>
<polygon fill="#000000" fill-opacity="0.200000" stroke="#000000" stroke-opacity="0.200000" points="660.59,-187.86 665.09,-183.36 658.77,-184.08 660.59,-187.86"/>
</g>
<!-- src/data/MongoConnectionManager.ts&#45;&gt;node_modules/mongodb -->
<g id="edge12" class="edge">
<title>src/data/MongoConnectionManager.ts&#45;&gt;node_modules/mongodb</title>
<path fill="none" stroke="#000000" stroke-opacity="0.200000" d="M464.4,-429.9C467.19,-427.94 469.76,-425.66 472,-423 486.48,-405.83 467.81,-239.87 480,-221 490.92,-204.1 511.04,-193.9 528.63,-187.9"/>
<polygon fill="#000000" fill-opacity="0.200000" stroke="#000000" stroke-opacity="0.200000" points="528.95,-190 534.03,-186.18 527.68,-186 528.95,-190"/>
</g>
<!-- src/misc/TypedEventListener.ts -->
<g id="node17" class="node">
<title>src/misc/TypedEventListener.ts</title>
<g id="a_node17"><a xlink:href="src/misc/TypedEventListener.ts" xlink:title="TypedEventListener.ts">
<path fill="#ddfeff" stroke="black" d="M609.96,-272.25C609.96,-272.25 516.29,-272.25 516.29,-272.25 513.21,-272.25 510.12,-269.17 510.12,-266.08 510.12,-266.08 510.12,-259.92 510.12,-259.92 510.12,-256.83 513.21,-253.75 516.29,-253.75 516.29,-253.75 609.96,-253.75 609.96,-253.75 613.04,-253.75 616.12,-256.83 616.12,-259.92 616.12,-259.92 616.12,-266.08 616.12,-266.08 616.12,-269.17 613.04,-272.25 609.96,-272.25"/>
<text text-anchor="start" x="518.12" y="-259.7" font-family="Helvetica,sans-Serif" font-size="9.00">TypedEventListener.ts</text>
</a>
</g>
</g>
<!-- src/data/MongoConnectionManager.ts&#45;&gt;src/misc/TypedEventListener.ts -->
<g id="edge10" class="edge">
<title>src/data/MongoConnectionManager.ts&#45;&gt;src/misc/TypedEventListener.ts</title>
<path fill="none" stroke="#000000" stroke-width="2" stroke-opacity="0.200000" d="M464.34,-429.86C467.16,-427.91 469.74,-425.64 472,-423 492.86,-398.67 458.94,-303.16 480,-279 485.67,-272.5 493.12,-268.15 501.23,-265.31"/>
<polygon fill="#000000" fill-opacity="0.200000" stroke="#000000" stroke-width="2" stroke-opacity="0.200000" points="501.76,-267.34 506.96,-263.69 500.62,-263.3 501.76,-267.34"/>
</g>
<!-- src/core/configuration/ConfigurationManager.ts -->
<g id="node15" class="node">
<title>src/core/configuration/ConfigurationManager.ts</title>
<g id="a_node15"><a xlink:href="src/core/configuration/ConfigurationManager.ts" xlink:title="ConfigurationManager.ts">
<path fill="#ddfeff" stroke="black" d="M297.08,-298.25C297.08,-298.25 192.92,-298.25 192.92,-298.25 189.83,-298.25 186.75,-295.17 186.75,-292.08 186.75,-292.08 186.75,-285.92 186.75,-285.92 186.75,-282.83 189.83,-279.75 192.92,-279.75 192.92,-279.75 297.08,-279.75 297.08,-279.75 300.17,-279.75 303.25,-282.83 303.25,-285.92 303.25,-285.92 303.25,-292.08 303.25,-292.08 303.25,-295.17 300.17,-298.25 297.08,-298.25"/>
<text text-anchor="start" x="194.75" y="-285.7" font-family="Helvetica,sans-Serif" font-size="9.00">ConfigurationManager.ts</text>
</a>
</g>
</g>
<!-- src/core/configuration/ConfigurationManager.ts&#45;&gt;os -->
<g id="edge5" class="edge">
<title>src/core/configuration/ConfigurationManager.ts&#45;&gt;os</title>
<path fill="none" stroke="#000000" stroke-dasharray="5,2" stroke-opacity="0.200000" d="M303.65,-281.89C306.4,-280.24 308.97,-278.29 311.25,-276 324.35,-262.85 307.23,-249.15 319.25,-235 329.73,-222.65 346.19,-215.75 361.06,-211.89"/>
<polygon fill="#000000" fill-opacity="0.200000" stroke="#000000" stroke-opacity="0.200000" points="361.36,-213.97 366.73,-210.57 360.41,-209.88 361.36,-213.97"/>
</g>
<!-- src/core/configuration/ConfigurationManager.ts&#45;&gt;src/data/MongoConnectionManager.ts -->
<g id="edge3" class="edge">
<title>src/core/configuration/ConfigurationManager.ts&#45;&gt;src/data/MongoConnectionManager.ts</title>
<path fill="none" stroke="#000000" stroke-width="2" stroke-opacity="0.200000" d="M253.9,-298.56C267.61,-315.64 295.83,-352.98 311.25,-389 317.36,-403.27 308.15,-412.14 319.25,-423 319.72,-423.46 320.19,-423.9 320.68,-424.33"/>
<polygon fill="#000000" fill-opacity="0.200000" stroke="#000000" stroke-width="2" stroke-opacity="0.200000" points="318.94,-425.66 325.01,-427.55 321.44,-422.29 318.94,-425.66"/>
</g>
<!-- src/core/logging.ts -->
<g id="node16" class="node">
<title>src/core/logging.ts</title>
<g id="a_node16"><a xlink:href="src/core/logging.ts" xlink:title="logging.ts">
<path fill="#ddfeff" stroke="black" d="M417.33,-281.25C417.33,-281.25 373.92,-281.25 373.92,-281.25 370.83,-281.25 367.75,-278.17 367.75,-275.08 367.75,-275.08 367.75,-268.92 367.75,-268.92 367.75,-265.83 370.83,-262.75 373.92,-262.75 373.92,-262.75 417.33,-262.75 417.33,-262.75 420.42,-262.75 423.5,-265.83 423.5,-268.92 423.5,-268.92 423.5,-275.08 423.5,-275.08 423.5,-278.17 420.42,-281.25 417.33,-281.25"/>
<text text-anchor="start" x="375.75" y="-268.7" font-family="Helvetica,sans-Serif" font-size="9.00">logging.ts</text>
</a>
</g>
</g>
<!-- src/core/configuration/ConfigurationManager.ts&#45;&gt;src/core/logging.ts -->
<g id="edge4" class="edge">
<title>src/core/configuration/ConfigurationManager.ts&#45;&gt;src/core/logging.ts</title>
<path fill="none" stroke="#000000" stroke-width="2" stroke-opacity="0.200000" d="M303.46,-282.43C322.07,-280.3 342.17,-278 358.75,-276.1"/>
<polygon fill="#000000" fill-opacity="0.200000" stroke="#000000" stroke-width="2" stroke-opacity="0.200000" points="358.83,-278.21 364.55,-275.44 358.35,-274.04 358.83,-278.21"/>
</g>
<!-- src/core/logging.ts&#45;&gt;node_modules/pino -->
<g id="edge9" class="edge">
<title>src/core/logging.ts&#45;&gt;node_modules/pino</title>
<path fill="none" stroke="#000000" stroke-opacity="0.200000" d="M421.72,-262.31C438.94,-254.25 460.66,-241.02 472,-222 482.06,-205.14 466.84,-148.57 480,-134 492.1,-120.61 511.8,-116.44 528.87,-115.71"/>
<polygon fill="#000000" fill-opacity="0.200000" stroke="#000000" stroke-opacity="0.200000" points="528.52,-117.81 534.48,-115.61 528.45,-113.62 528.52,-117.81"/>
</g>
<!-- src/misc/TypedEventListener.ts&#45;&gt;events -->
<g id="edge22" class="edge">
<title>src/misc/TypedEventListener.ts&#45;&gt;events</title>
<path fill="none" stroke="#000000" stroke-dasharray="5,2" stroke-opacity="0.200000" d="M616.57,-254.84C624.64,-251.62 632.26,-247.16 638.25,-241 653.95,-224.84 636.21,-208.77 651.25,-192 653.64,-189.34 656.52,-187.12 659.64,-185.26"/>
<polygon fill="#000000" fill-opacity="0.200000" stroke="#000000" stroke-opacity="0.200000" points="660.5,-187.18 664.94,-182.62 658.63,-183.42 660.5,-187.18"/>
</g>
<!-- src/data/RedisConnectionManager.ts -->
<g id="node18" class="node">
<title>src/data/RedisConnectionManager.ts</title>
<g id="a_node18"><a xlink:href="src/data/RedisConnectionManager.ts" xlink:title="RedisConnectionManager.ts">
<path fill="#ddfeff" stroke="black" d="M455.58,-417.25C455.58,-417.25 335.67,-417.25 335.67,-417.25 332.58,-417.25 329.5,-414.17 329.5,-411.08 329.5,-411.08 329.5,-404.92 329.5,-404.92 329.5,-401.83 332.58,-398.75 335.67,-398.75 335.67,-398.75 455.58,-398.75 455.58,-398.75 458.67,-398.75 461.75,-401.83 461.75,-404.92 461.75,-404.92 461.75,-411.08 461.75,-411.08 461.75,-414.17 458.67,-417.25 455.58,-417.25"/>
<text text-anchor="start" x="337.5" y="-404.7" font-family="Helvetica,sans-Serif" font-size="9.00">RedisConnectionManager.ts</text>
</a>
</g>
</g>
<!-- src/data/RedisConnectionManager.ts&#45;&gt;node_modules/redis -->
<g id="edge13" class="edge">
<title>src/data/RedisConnectionManager.ts&#45;&gt;node_modules/redis</title>
<path fill="none" stroke="#000000" stroke-opacity="0.200000" d="M462.1,-400.43C465.8,-398.16 469.16,-395.38 472,-392 488.23,-372.67 463.61,-184.19 480,-165 491.72,-151.28 511.41,-147.1 528.57,-146.45"/>
<polygon fill="#000000" fill-opacity="0.200000" stroke="#000000" stroke-opacity="0.200000" points="528.25,-148.55 534.23,-146.38 528.2,-144.35 528.25,-148.55"/>
</g>
<!-- src/data/WeakRefCache.ts -->
<g id="node19" class="node">
<title>src/data/WeakRefCache.ts</title>
<g id="a_node19"><a xlink:href="src/data/WeakRefCache.ts" xlink:title="WeakRefCache.ts">
<path fill="#ccffcc" stroke="black" d="M434.21,-386.25C434.21,-386.25 357.04,-386.25 357.04,-386.25 353.96,-386.25 350.88,-383.17 350.88,-380.08 350.88,-380.08 350.88,-373.92 350.88,-373.92 350.88,-370.83 353.96,-367.75 357.04,-367.75 357.04,-367.75 434.21,-367.75 434.21,-367.75 437.29,-367.75 440.38,-370.83 440.38,-373.92 440.38,-373.92 440.38,-380.08 440.38,-380.08 440.38,-383.17 437.29,-386.25 434.21,-386.25"/>
<text text-anchor="start" x="358.88" y="-373.7" font-family="Helvetica,sans-Serif" font-size="9.00">WeakRefCache.ts</text>
</a>
</g>
</g>
<!-- src/entryPoint.ts -->
<g id="node20" class="node">
<title>src/entryPoint.ts</title>
<g id="a_node20"><a xlink:href="src/entryPoint.ts" xlink:title="entryPoint.ts">
<path fill="#ddfeff" stroke="black" d="M116.33,-250.25C116.33,-250.25 62.42,-250.25 62.42,-250.25 59.33,-250.25 56.25,-247.17 56.25,-244.08 56.25,-244.08 56.25,-237.92 56.25,-237.92 56.25,-234.83 59.33,-231.75 62.42,-231.75 62.42,-231.75 116.33,-231.75 116.33,-231.75 119.42,-231.75 122.5,-234.83 122.5,-237.92 122.5,-237.92 122.5,-244.08 122.5,-244.08 122.5,-247.17 119.42,-250.25 116.33,-250.25"/>
<text text-anchor="start" x="64.25" y="-237.7" font-family="Helvetica,sans-Serif" font-size="9.00">entryPoint.ts</text>
</a>
</g>
</g>
<!-- src/entryPoint.ts&#45;&gt;fs -->
<g id="edge17" class="edge">
<title>src/entryPoint.ts&#45;&gt;fs</title>
<path fill="none" stroke="#000000" stroke-dasharray="5,2" stroke-opacity="0.200000" d="M122.74,-232.52C137.36,-228.79 154.88,-224.49 170.75,-221 183.75,-218.14 198.13,-215.32 210.67,-212.97"/>
<polygon fill="#000000" fill-opacity="0.200000" stroke="#000000" stroke-opacity="0.200000" points="210.82,-215.08 216.34,-211.92 210.05,-210.95 210.82,-215.08"/>
</g>
<!-- src/entryPoint.ts&#45;&gt;src/core/express.ts -->
<g id="edge15" class="edge">
<title>src/entryPoint.ts&#45;&gt;src/core/express.ts</title>
<path fill="none" stroke="#000000" stroke-width="2" stroke-opacity="0.200000" d="M122.95,-243.97C147.69,-246.22 181.72,-249.32 207.4,-251.66"/>
<polygon fill="#000000" fill-opacity="0.200000" stroke="#000000" stroke-width="2" stroke-opacity="0.200000" points="206.92,-253.73 213.09,-252.18 207.3,-249.55 206.92,-253.73"/>
</g>
<!-- src/entryPoint.ts&#45;&gt;src/core/configuration/ConfigurationManager.ts -->
<g id="edge14" class="edge">
<title>src/entryPoint.ts&#45;&gt;src/core/configuration/ConfigurationManager.ts</title>
<path fill="none" stroke="#000000" stroke-width="2" stroke-opacity="0.200000" d="M122.9,-240.55C136.55,-241.94 151.78,-245.78 162.75,-255 170.4,-261.43 163.05,-269.63 170.75,-276 173.16,-278 175.77,-279.73 178.52,-281.23"/>
<polygon fill="#000000" fill-opacity="0.200000" stroke="#000000" stroke-width="2" stroke-opacity="0.200000" points="177.51,-283.08 183.84,-283.64 179.25,-279.25 177.51,-283.08"/>
</g>
<!-- src/entryPoint.ts&#45;&gt;src/core/logging.ts -->
<g id="edge16" class="edge">
<title>src/entryPoint.ts&#45;&gt;src/core/logging.ts</title>
<path fill="none" stroke="#000000" stroke-width="2" stroke-opacity="0.200000" d="M122.9,-237.09C166.28,-232.73 245.27,-227.77 311.25,-240 330.72,-243.61 351.52,-251.58 367.47,-258.67"/>
<polygon fill="#000000" fill-opacity="0.200000" stroke="#000000" stroke-width="2" stroke-opacity="0.200000" points="366.26,-260.42 372.59,-261.01 368,-256.6 366.26,-260.42"/>
</g>
<!-- src/middleware/authenticationMiddleware.ts -->
<g id="node21" class="node">
<title>src/middleware/authenticationMiddleware.ts</title>
<g id="a_node21"><a xlink:href="src/middleware/authenticationMiddleware.ts" xlink:title="authenticationMiddleware.ts">
<path fill="#ddfeff" stroke="black" d="M148.58,-346.25C148.58,-346.25 30.17,-346.25 30.17,-346.25 27.08,-346.25 24,-343.17 24,-340.08 24,-340.08 24,-333.92 24,-333.92 24,-330.83 27.08,-327.75 30.17,-327.75 30.17,-327.75 148.58,-327.75 148.58,-327.75 151.67,-327.75 154.75,-330.83 154.75,-333.92 154.75,-333.92 154.75,-340.08 154.75,-340.08 154.75,-343.17 151.67,-346.25 148.58,-346.25"/>
<text text-anchor="start" x="32" y="-333.7" font-family="Helvetica,sans-Serif" font-size="9.00">authenticationMiddleware.ts</text>
</a>
</g>
</g>
<!-- src/middleware/authenticationMiddleware.ts&#45;&gt;src/data/MongoConnectionManager.ts -->
<g id="edge18" class="edge">
<title>src/middleware/authenticationMiddleware.ts&#45;&gt;src/data/MongoConnectionManager.ts</title>
<path fill="none" stroke="#000000" stroke-width="2" stroke-opacity="0.200000" d="M127.76,-346.7C187.02,-362.33 297.29,-392.62 311.25,-405 317.8,-410.81 312.45,-417.49 319.25,-423 320,-423.61 320.77,-424.2 321.56,-424.77"/>
<polygon fill="#000000" fill-opacity="0.200000" stroke="#000000" stroke-width="2" stroke-opacity="0.200000" points="320.24,-426.42 326.46,-427.75 322.43,-422.84 320.24,-426.42"/>
</g>
<!-- src/middleware/expressPinoLogger.ts -->
<g id="node22" class="node">
<title>src/middleware/expressPinoLogger.ts</title>
<g id="a_node22"><a xlink:href="src/middleware/expressPinoLogger.ts" xlink:title="expressPinoLogger.ts">
<path fill="#ddfeff" stroke="black" d="M135.46,-315.25C135.46,-315.25 43.29,-315.25 43.29,-315.25 40.21,-315.25 37.12,-312.17 37.12,-309.08 37.12,-309.08 37.12,-302.92 37.12,-302.92 37.12,-299.83 40.21,-296.75 43.29,-296.75 43.29,-296.75 135.46,-296.75 135.46,-296.75 138.54,-296.75 141.62,-299.83 141.62,-302.92 141.62,-302.92 141.62,-309.08 141.62,-309.08 141.62,-312.17 138.54,-315.25 135.46,-315.25"/>
<text text-anchor="start" x="45.12" y="-302.7" font-family="Helvetica,sans-Serif" font-size="9.00">expressPinoLogger.ts</text>
</a>
</g>
</g>
<!-- src/middleware/expressPinoLogger.ts&#45;&gt;src/core/express.ts -->
<g id="edge19" class="edge">
<title>src/middleware/expressPinoLogger.ts&#45;&gt;src/core/express.ts</title>
<path fill="none" stroke="#000000" stroke-width="2" stroke-opacity="0.200000" d="M142.04,-301.22C149.59,-298.72 156.81,-295.13 162.75,-290 170.31,-283.47 163.1,-275.42 170.75,-269 180.91,-260.48 194.65,-256.54 207.5,-254.87"/>
<polygon fill="#000000" fill-opacity="0.200000" stroke="#000000" stroke-width="2" stroke-opacity="0.200000" points="207.4,-256.99 213.17,-254.34 207,-252.81 207.4,-256.99"/>
</g>
<!-- src/middleware/expressPinoLogger.ts&#45;&gt;src/core/logging.ts -->
<g id="edge20" class="edge">
<title>src/middleware/expressPinoLogger.ts&#45;&gt;src/core/logging.ts</title>
<path fill="none" stroke="#000000" stroke-width="2" stroke-opacity="0.200000" d="M141.88,-314.53C149.05,-316.53 156.2,-318.99 162.75,-322 166.79,-323.85 166.53,-326.59 170.75,-328 229.99,-347.75 251.52,-346.2 311.25,-328 337.29,-320.07 362.57,-300.99 378.34,-287.31"/>
<polygon fill="#000000" fill-opacity="0.200000" stroke="#000000" stroke-width="2" stroke-opacity="0.200000" points="379.55,-289.04 382.62,-283.47 376.75,-285.91 379.55,-289.04"/>
</g>
<!-- src/middleware/responseStandardization.ts -->
<g id="node23" class="node">
<title>src/middleware/responseStandardization.ts</title>
<g id="a_node23"><a xlink:href="src/middleware/responseStandardization.ts" xlink:title="responseStandardization.ts">
<path fill="#ddfeff" stroke="black" d="M147.08,-284.25C147.08,-284.25 31.67,-284.25 31.67,-284.25 28.58,-284.25 25.5,-281.17 25.5,-278.08 25.5,-278.08 25.5,-271.92 25.5,-271.92 25.5,-268.83 28.58,-265.75 31.67,-265.75 31.67,-265.75 147.08,-265.75 147.08,-265.75 150.17,-265.75 153.25,-268.83 153.25,-271.92 153.25,-271.92 153.25,-278.08 153.25,-278.08 153.25,-281.17 150.17,-284.25 147.08,-284.25"/>
<text text-anchor="start" x="33.5" y="-271.7" font-family="Helvetica,sans-Serif" font-size="9.00">responseStandardization.ts</text>
</a>
</g>
</g>
<!-- src/middleware/responseStandardization.ts&#45;&gt;src/core/express.ts -->
<g id="edge21" class="edge">
<title>src/middleware/responseStandardization.ts&#45;&gt;src/core/express.ts</title>
<path fill="none" stroke="#000000" stroke-width="2" stroke-opacity="0.200000" d="M153.75,-266.75C172.02,-264.37 191.34,-261.86 207.39,-259.77"/>
<polygon fill="#000000" fill-opacity="0.200000" stroke="#000000" stroke-width="2" stroke-opacity="0.200000" points="207.27,-261.9 212.95,-259.04 206.73,-257.73 207.27,-261.9"/>
</g>
<!-- src/misc/ExhaustiveCodePathChecking.ts -->
<g id="node24" class="node">
<title>src/misc/ExhaustiveCodePathChecking.ts</title>
<g id="a_node24"><a xlink:href="src/misc/ExhaustiveCodePathChecking.ts" xlink:title="ExhaustiveCodePathChecking.ts">
<path fill="#ccffcc" stroke="black" d="M632.08,-396.25C632.08,-396.25 494.17,-396.25 494.17,-396.25 491.08,-396.25 488,-393.17 488,-390.08 488,-390.08 488,-383.92 488,-383.92 488,-380.83 491.08,-377.75 494.17,-377.75 494.17,-377.75 632.08,-377.75 632.08,-377.75 635.17,-377.75 638.25,-380.83 638.25,-383.92 638.25,-383.92 638.25,-390.08 638.25,-390.08 638.25,-393.17 635.17,-396.25 632.08,-396.25"/>
<text text-anchor="start" x="496" y="-383.7" font-family="Helvetica,sans-Serif" font-size="9.00">ExhaustiveCodePathChecking.ts</text>
</a>
</g>
</g>
<!-- src/misc/Guid.ts -->
<g id="node25" class="node">
<title>src/misc/Guid.ts</title>
<g id="a_node25"><a xlink:href="src/misc/Guid.ts" xlink:title="Guid.ts">
<path fill="#ccffcc" stroke="black" d="M583.96,-365.25C583.96,-365.25 542.29,-365.25 542.29,-365.25 539.21,-365.25 536.12,-362.17 536.12,-359.08 536.12,-359.08 536.12,-352.92 536.12,-352.92 536.12,-349.83 539.21,-346.75 542.29,-346.75 542.29,-346.75 583.96,-346.75 583.96,-346.75 587.04,-346.75 590.12,-349.83 590.12,-352.92 590.12,-352.92 590.12,-359.08 590.12,-359.08 590.12,-362.17 587.04,-365.25 583.96,-365.25"/>
<text text-anchor="start" x="548.88" y="-352.7" font-family="Helvetica,sans-Serif" font-size="9.00">Guid.ts</text>
</a>
</g>
</g>
<!-- src/misc/WaitFor.ts -->
<g id="node26" class="node">
<title>src/misc/WaitFor.ts</title>
<g id="a_node26"><a xlink:href="src/misc/WaitFor.ts" xlink:title="WaitFor.ts">
<path fill="#ddfeff" stroke="black" d="M584.83,-427.25C584.83,-427.25 541.42,-427.25 541.42,-427.25 538.33,-427.25 535.25,-424.17 535.25,-421.08 535.25,-421.08 535.25,-414.92 535.25,-414.92 535.25,-411.83 538.33,-408.75 541.42,-408.75 541.42,-408.75 584.83,-408.75 584.83,-408.75 587.92,-408.75 591,-411.83 591,-414.92 591,-414.92 591,-421.08 591,-421.08 591,-424.17 587.92,-427.25 584.83,-427.25"/>
<text text-anchor="start" x="543.25" y="-414.7" font-family="Helvetica,sans-Serif" font-size="9.00">WaitFor.ts</text>
</a>
</g>
</g>
<!-- src/misc/yieldExecution.ts -->
<g id="node27" class="node">
<title>src/misc/yieldExecution.ts</title>
<g id="a_node27"><a xlink:href="src/misc/yieldExecution.ts" xlink:title="yieldExecution.ts">
<path fill="#ddfeff" stroke="black" d="M730.08,-427.25C730.08,-427.25 657.42,-427.25 657.42,-427.25 654.33,-427.25 651.25,-424.17 651.25,-421.08 651.25,-421.08 651.25,-414.92 651.25,-414.92 651.25,-411.83 654.33,-408.75 657.42,-408.75 657.42,-408.75 730.08,-408.75 730.08,-408.75 733.17,-408.75 736.25,-411.83 736.25,-414.92 736.25,-414.92 736.25,-421.08 736.25,-421.08 736.25,-424.17 733.17,-427.25 730.08,-427.25"/>
<text text-anchor="start" x="659.25" y="-414.7" font-family="Helvetica,sans-Serif" font-size="9.00">yieldExecution.ts</text>
</a>
</g>
</g>
<!-- src/misc/WaitFor.ts&#45;&gt;src/misc/yieldExecution.ts -->
<g id="edge23" class="edge">
<title>src/misc/WaitFor.ts&#45;&gt;src/misc/yieldExecution.ts</title>
<path fill="none" stroke="#000000" stroke-width="2" stroke-opacity="0.200000" d="M591.4,-418C606.1,-418 624.71,-418 641.95,-418"/>
<polygon fill="#000000" fill-opacity="0.200000" stroke="#000000" stroke-width="2" stroke-opacity="0.200000" points="641.8,-420.1 647.8,-418 641.8,-415.9 641.8,-420.1"/>
</g>
<!-- src/misc/delay.ts -->
<g id="node28" class="node">
<title>src/misc/delay.ts</title>
<g id="a_node28"><a xlink:href="src/misc/delay.ts" xlink:title="delay.ts">
<path fill="#ccffcc" stroke="black" d="M583.96,-303.25C583.96,-303.25 542.29,-303.25 542.29,-303.25 539.21,-303.25 536.12,-300.17 536.12,-297.08 536.12,-297.08 536.12,-290.92 536.12,-290.92 536.12,-287.83 539.21,-284.75 542.29,-284.75 542.29,-284.75 583.96,-284.75 583.96,-284.75 587.04,-284.75 590.12,-287.83 590.12,-290.92 590.12,-290.92 590.12,-297.08 590.12,-297.08 590.12,-300.17 587.04,-303.25 583.96,-303.25"/>
<text text-anchor="start" x="547.75" y="-290.7" font-family="Helvetica,sans-Serif" font-size="9.00">delay.ts</text>
</a>
</g>
</g>
<!-- src/misc/hash.ts -->
<g id="node29" class="node">
<title>src/misc/hash.ts</title>
<g id="a_node29"><a xlink:href="src/misc/hash.ts" xlink:title="hash.ts">
<path fill="#ddfeff" stroke="black" d="M583.96,-334.25C583.96,-334.25 542.29,-334.25 542.29,-334.25 539.21,-334.25 536.12,-331.17 536.12,-328.08 536.12,-328.08 536.12,-321.92 536.12,-321.92 536.12,-318.83 539.21,-315.75 542.29,-315.75 542.29,-315.75 583.96,-315.75 583.96,-315.75 587.04,-315.75 590.12,-318.83 590.12,-321.92 590.12,-321.92 590.12,-328.08 590.12,-328.08 590.12,-331.17 587.04,-334.25 583.96,-334.25"/>
<text text-anchor="start" x="548.5" y="-321.7" font-family="Helvetica,sans-Serif" font-size="9.00">hash.ts</text>
</a>
</g>
</g>
<!-- src/misc/hash.ts&#45;&gt;crypto -->
<g id="edge24" class="edge">
<title>src/misc/hash.ts&#45;&gt;crypto</title>
<path fill="none" stroke="#000000" stroke-dasharray="5,2" stroke-opacity="0.200000" d="M590.52,-326.12C606.45,-325.32 625.98,-321.49 638.25,-309 659.2,-287.67 636.26,-268.87 651.25,-243 656.28,-234.32 664.18,-226.7 671.75,-220.72"/>
<polygon fill="#000000" fill-opacity="0.200000" stroke="#000000" stroke-opacity="0.200000" points="672.65,-222.67 676.2,-217.4 670.14,-219.31 672.65,-222.67"/>
</g>
</g>
</svg>
