<?xml version="1.0" encoding="UTF-8" standalone="no"?>
<!DOCTYPE svg PUBLIC "-//W3C//DTD SVG 1.1//EN"
 "http://www.w3.org/Graphics/SVG/1.1/DTD/svg11.dtd">
<!-- Generated by graphviz version 9.0.0 (0)
 -->
<!-- Title: root Pages: 1 -->
<svg width="799pt" height="1344pt"
 viewBox="0.00 0.00 799.12 1344.00" xmlns="http://www.w3.org/2000/svg" xmlns:xlink="http://www.w3.org/1999/xlink">
<g id="graph0" class="graph" transform="scale(1 1) rotate(0) translate(4 1340)">
<title>root</title>
<polygon fill="white" stroke="none" points="-4,4 -4,-1340 795.12,-1340 795.12,4 -4,4"/>
<g id="clust2" class="cluster">
<title>cluster_node_modules</title>
<path fill="#ffffff" stroke="black" stroke-width="2" d="M551,-8C551,-8 615.25,-8 615.25,-8 621.25,-8 627.25,-14 627.25,-20 627.25,-20 627.25,-142 627.25,-142 627.25,-148 621.25,-154 615.25,-154 615.25,-154 551,-154 551,-154 545,-154 539,-148 539,-142 539,-142 539,-20 539,-20 539,-14 545,-8 551,-8"/>
<text text-anchor="middle" x="583.12" y="-141.45" font-family="Helvetica,sans-Serif" font-weight="bold" font-size="9.00">node_modules</text>
</g>
<g id="clust3" class="cluster">
<title>cluster_src</title>
<path fill="#ffffff" stroke="black" stroke-width="2" d="M20,-122C20,-122 502.38,-122 502.38,-122 508.38,-122 514.38,-128 514.38,-134 514.38,-134 514.38,-408 514.38,-408 514.38,-414 508.38,-420 502.38,-420 502.38,-420 20,-420 20,-420 14,-420 8,-414 8,-408 8,-408 8,-134 8,-134 8,-128 14,-122 20,-122"/>
<text text-anchor="middle" x="261.19" y="-407.45" font-family="Helvetica,sans-Serif" font-weight="bold" font-size="9.00">src</text>
</g>
<g id="clust4" class="cluster">
<title>cluster_src/clientShared</title>
<path fill="#ffffff" stroke="black" stroke-width="2" d="M52,-340C52,-340 123.75,-340 123.75,-340 129.75,-340 135.75,-346 135.75,-352 135.75,-352 135.75,-381 135.75,-381 135.75,-387 129.75,-393 123.75,-393 123.75,-393 52,-393 52,-393 46,-393 40,-387 40,-381 40,-381 40,-352 40,-352 40,-346 46,-340 52,-340"/>
<text text-anchor="middle" x="87.88" y="-380.45" font-family="Helvetica,sans-Serif" font-weight="bold" font-size="9.00">clientShared</text>
</g>
<g id="clust5" class="cluster">
<title>cluster_src/controller</title>
<path fill="#ffffff" stroke="black" stroke-width="2" d="M30.62,-248C30.62,-248 145.12,-248 145.12,-248 151.12,-248 157.12,-254 157.12,-260 157.12,-260 157.12,-320 157.12,-320 157.12,-326 151.12,-332 145.12,-332 145.12,-332 30.62,-332 30.62,-332 24.62,-332 18.62,-326 18.62,-320 18.62,-320 18.62,-260 18.62,-260 18.62,-254 24.62,-248 30.62,-248"/>
<text text-anchor="middle" x="87.88" y="-319.45" font-family="Helvetica,sans-Serif" font-weight="bold" font-size="9.00">controller</text>
</g>
<g id="clust6" class="cluster">
<title>cluster_src/core</title>
<path fill="#ffffff" stroke="black" stroke-width="2" d="M179.75,-130C179.75,-130 304.25,-130 304.25,-130 310.25,-130 316.25,-136 316.25,-142 316.25,-142 316.25,-294 316.25,-294 316.25,-300 310.25,-306 304.25,-306 304.25,-306 179.75,-306 179.75,-306 173.75,-306 167.75,-300 167.75,-294 167.75,-294 167.75,-142 167.75,-142 167.75,-136 173.75,-130 179.75,-130"/>
<text text-anchor="middle" x="242" y="-293.45" font-family="Helvetica,sans-Serif" font-weight="bold" font-size="9.00">core</text>
</g>
<g id="clust7" class="cluster">
<title>cluster_src/core/configuration</title>
<path fill="#ffffff" stroke="black" stroke-width="2" d="M187.75,-226C187.75,-226 296.25,-226 296.25,-226 302.25,-226 308.25,-232 308.25,-238 308.25,-238 308.25,-267 308.25,-267 308.25,-273 302.25,-279 296.25,-279 296.25,-279 187.75,-279 187.75,-279 181.75,-279 175.75,-273 175.75,-267 175.75,-267 175.75,-238 175.75,-238 175.75,-232 181.75,-226 187.75,-226"/>
<text text-anchor="middle" x="242" y="-266.45" font-family="Helvetica,sans-Serif" font-weight="bold" font-size="9.00">configuration</text>
</g>
<g id="clust8" class="cluster">
<title>cluster_src/data</title>
<path fill="#ffffff" stroke="black" stroke-width="2" d="M358.88,-148C358.88,-148 487.62,-148 487.62,-148 493.62,-148 499.62,-154 499.62,-160 499.62,-160 499.62,-189 499.62,-189 499.62,-195 493.62,-201 487.62,-201 487.62,-201 358.88,-201 358.88,-201 352.88,-201 346.88,-195 346.88,-189 346.88,-189 346.88,-160 346.88,-160 346.88,-154 352.88,-148 358.88,-148"/>
<text text-anchor="middle" x="423.25" y="-188.45" font-family="Helvetica,sans-Serif" font-weight="bold" font-size="9.00">data</text>
</g>
<g id="clust9" class="cluster">
<title>cluster_src/middleware</title>
<path fill="#ffffff" stroke="black" stroke-width="2" d="M28,-156C28,-156 147.75,-156 147.75,-156 153.75,-156 159.75,-162 159.75,-168 159.75,-168 159.75,-228 159.75,-228 159.75,-234 153.75,-240 147.75,-240 147.75,-240 28,-240 28,-240 22,-240 16,-234 16,-228 16,-228 16,-168 16,-168 16,-162 22,-156 28,-156"/>
<text text-anchor="middle" x="87.88" y="-227.45" font-family="Helvetica,sans-Serif" font-weight="bold" font-size="9.00">middleware</text>
</g>
<g id="clust10" class="cluster">
<title>cluster_src/misc</title>
<path fill="#ffffff" stroke="black" stroke-width="2" d="M352.12,-209C352.12,-209 494.38,-209 494.38,-209 500.38,-209 506.38,-215 506.38,-221 506.38,-221 506.38,-312 506.38,-312 506.38,-318 500.38,-324 494.38,-324 494.38,-324 352.12,-324 352.12,-324 346.12,-324 340.12,-318 340.12,-312 340.12,-312 340.12,-221 340.12,-221 340.12,-215 346.12,-209 352.12,-209"/>
<text text-anchor="middle" x="423.25" y="-311.45" font-family="Helvetica,sans-Serif" font-weight="bold" font-size="9.00">misc</text>
</g>
<g id="clust12" class="cluster">
<title>cluster_node_modules_gv1</title>
<path fill="#ffffff" stroke="black" stroke-width="2" d="M679.88,-444C679.88,-444 771.12,-444 771.12,-444 777.12,-444 783.12,-450 783.12,-456 783.12,-456 783.12,-943 783.12,-943 783.12,-949 777.12,-955 771.12,-955 771.12,-955 679.88,-955 679.88,-955 673.88,-955 667.88,-949 667.88,-943 667.88,-943 667.88,-456 667.88,-456 667.88,-450 673.88,-444 679.88,-444"/>
<text text-anchor="middle" x="725.5" y="-942.45" font-family="Helvetica,sans-Serif" font-weight="bold" font-size="9.00">node_modules</text>
</g>
<g id="clust13" class="cluster">
<title>cluster_node_modules/@mui</title>
<path fill="#ffffff" stroke="black" stroke-width="2" d="M692.62,-844C692.62,-844 758.38,-844 758.38,-844 764.38,-844 770.38,-850 770.38,-856 770.38,-856 770.38,-916 770.38,-916 770.38,-922 764.38,-928 758.38,-928 758.38,-928 692.62,-928 692.62,-928 686.62,-928 680.62,-922 680.62,-916 680.62,-916 680.62,-856 680.62,-856 680.62,-850 686.62,-844 692.62,-844"/>
<text text-anchor="middle" x="725.5" y="-915.45" font-family="Helvetica,sans-Serif" font-weight="bold" font-size="9.00">@mui</text>
</g>
<g id="clust14" class="cluster">
<title>cluster_node_modules/@testing&#45;library</title>
<path fill="#ffffff" stroke="black" stroke-width="2" d="M695.5,-571C695.5,-571 756.5,-571 756.5,-571 762.5,-571 768.5,-577 768.5,-583 768.5,-583 768.5,-643 768.5,-643 768.5,-649 762.5,-655 756.5,-655 756.5,-655 695.5,-655 695.5,-655 689.5,-655 683.5,-649 683.5,-643 683.5,-643 683.5,-583 683.5,-583 683.5,-577 689.5,-571 695.5,-571"/>
<text text-anchor="middle" x="726" y="-642.45" font-family="Helvetica,sans-Serif" font-weight="bold" font-size="9.00">@testing&#45;library</text>
</g>
<g id="clust15" class="cluster">
<title>cluster_src_gv1</title>
<path fill="#ffffff" stroke="black" stroke-width="2" d="M28.5,-870C28.5,-870 647.88,-870 647.88,-870 653.88,-870 659.88,-876 659.88,-882 659.88,-882 659.88,-1316 659.88,-1316 659.88,-1322 653.88,-1328 647.88,-1328 647.88,-1328 28.5,-1328 28.5,-1328 22.5,-1328 16.5,-1322 16.5,-1316 16.5,-1316 16.5,-882 16.5,-882 16.5,-876 22.5,-870 28.5,-870"/>
<text text-anchor="middle" x="338.19" y="-1315.45" font-family="Helvetica,sans-Serif" font-weight="bold" font-size="9.00">src</text>
</g>
<g id="clust16" class="cluster">
<title>cluster_src/clientShared_gv1</title>
<path fill="#ffffff" stroke="black" stroke-width="2" d="M52,-1232C52,-1232 123.75,-1232 123.75,-1232 129.75,-1232 135.75,-1238 135.75,-1244 135.75,-1244 135.75,-1273 135.75,-1273 135.75,-1279 129.75,-1285 123.75,-1285 123.75,-1285 52,-1285 52,-1285 46,-1285 40,-1279 40,-1273 40,-1273 40,-1244 40,-1244 40,-1238 46,-1232 52,-1232"/>
<text text-anchor="middle" x="87.88" y="-1272.45" font-family="Helvetica,sans-Serif" font-weight="bold" font-size="9.00">clientShared</text>
</g>
<g id="clust17" class="cluster">
<title>cluster_src/components</title>
<path fill="#ffffff" stroke="black" stroke-width="2" d="M336.25,-878C336.25,-878 639.88,-878 639.88,-878 645.88,-878 651.88,-884 651.88,-890 651.88,-890 651.88,-1263 651.88,-1263 651.88,-1269 645.88,-1275 639.88,-1275 639.88,-1275 336.25,-1275 336.25,-1275 330.25,-1275 324.25,-1269 324.25,-1263 324.25,-1263 324.25,-890 324.25,-890 324.25,-884 330.25,-878 336.25,-878"/>
<text text-anchor="middle" x="488.06" y="-1262.45" font-family="Helvetica,sans-Serif" font-weight="bold" font-size="9.00">components</text>
</g>
<g id="clust18" class="cluster">
<title>cluster_src/components/buildingblocks</title>
<path fill="#ffffff" stroke="black" stroke-width="2" d="M534.38,-1078C534.38,-1078 631.88,-1078 631.88,-1078 637.88,-1078 643.88,-1084 643.88,-1090 643.88,-1090 643.88,-1180 643.88,-1180 643.88,-1186 637.88,-1192 631.88,-1192 631.88,-1192 534.38,-1192 534.38,-1192 528.38,-1192 522.38,-1186 522.38,-1180 522.38,-1180 522.38,-1090 522.38,-1090 522.38,-1084 528.38,-1078 534.38,-1078"/>
<text text-anchor="middle" x="583.12" y="-1179.45" font-family="Helvetica,sans-Serif" font-weight="bold" font-size="9.00">buildingblocks</text>
</g>
<g id="clust19" class="cluster">
<title>cluster_src/components/buildingblocks/layout</title>
<path fill="#ffffff" stroke="black" stroke-width="2" d="M542.38,-1112C542.38,-1112 623.88,-1112 623.88,-1112 629.88,-1112 635.88,-1118 635.88,-1124 635.88,-1124 635.88,-1153 635.88,-1153 635.88,-1159 629.88,-1165 623.88,-1165 623.88,-1165 542.38,-1165 542.38,-1165 536.38,-1165 530.38,-1159 530.38,-1153 530.38,-1153 530.38,-1124 530.38,-1124 530.38,-1118 536.38,-1112 542.38,-1112"/>
<text text-anchor="middle" x="583.12" y="-1152.45" font-family="Helvetica,sans-Serif" font-weight="bold" font-size="9.00">layout</text>
</g>
<g id="clust20" class="cluster">
<title>cluster_src/components/hooks</title>
<path fill="#ffffff" stroke="black" stroke-width="2" d="M344.25,-886C344.25,-886 502.25,-886 502.25,-886 508.25,-886 514.25,-892 514.25,-898 514.25,-898 514.25,-1175 514.25,-1175 514.25,-1181 508.25,-1187 502.25,-1187 502.25,-1187 344.25,-1187 344.25,-1187 338.25,-1187 332.25,-1181 332.25,-1175 332.25,-1175 332.25,-898 332.25,-898 332.25,-892 338.25,-886 344.25,-886"/>
<text text-anchor="middle" x="423.25" y="-1174.45" font-family="Helvetica,sans-Serif" font-weight="bold" font-size="9.00">hooks</text>
</g>
<g id="clust21" class="cluster">
<title>cluster_src/components/pages</title>
<path fill="#ffffff" stroke="black" stroke-width="2" d="M389.25,-1195C389.25,-1195 457.25,-1195 457.25,-1195 463.25,-1195 469.25,-1201 469.25,-1207 469.25,-1207 469.25,-1236 469.25,-1236 469.25,-1242 463.25,-1248 457.25,-1248 457.25,-1248 389.25,-1248 389.25,-1248 383.25,-1248 377.25,-1242 377.25,-1236 377.25,-1236 377.25,-1207 377.25,-1207 377.25,-1201 383.25,-1195 389.25,-1195"/>
<text text-anchor="middle" x="423.25" y="-1235.45" font-family="Helvetica,sans-Serif" font-weight="bold" font-size="9.00">pages</text>
</g>
<g id="clust22" class="cluster">
<title>cluster_src/global</title>
<path fill="#ffffff" stroke="black" stroke-width="2" d="M36.5,-1059C36.5,-1059 139.25,-1059 139.25,-1059 145.25,-1059 151.25,-1065 151.25,-1071 151.25,-1071 151.25,-1197 151.25,-1197 151.25,-1203 145.25,-1209 139.25,-1209 139.25,-1209 36.5,-1209 36.5,-1209 30.5,-1209 24.5,-1203 24.5,-1197 24.5,-1197 24.5,-1071 24.5,-1071 24.5,-1065 30.5,-1059 36.5,-1059"/>
<text text-anchor="middle" x="87.88" y="-1196.45" font-family="Helvetica,sans-Serif" font-weight="bold" font-size="9.00">global</text>
</g>
<g id="clust23" class="cluster">
<title>cluster_src/global/navigator</title>
<path fill="#ffffff" stroke="black" stroke-width="2" d="M44.5,-1067C44.5,-1067 131.25,-1067 131.25,-1067 137.25,-1067 143.25,-1073 143.25,-1079 143.25,-1079 143.25,-1170 143.25,-1170 143.25,-1176 137.25,-1182 131.25,-1182 131.25,-1182 44.5,-1182 44.5,-1182 38.5,-1182 32.5,-1176 32.5,-1170 32.5,-1170 32.5,-1079 32.5,-1079 32.5,-1073 38.5,-1067 44.5,-1067"/>
<text text-anchor="middle" x="87.88" y="-1169.45" font-family="Helvetica,sans-Serif" font-weight="bold" font-size="9.00">navigator</text>
</g>
<!-- node_modules/cookie&#45;parser -->
<g id="node1" class="node">
<title>node_modules/cookie&#45;parser</title>
<g id="a_node1"><a xlink:href="node_modules/cookie-parser" xlink:title="cookie&#45;parser">
<polygon fill="#c40b0a" fill-opacity="0.101961" stroke="black" points="619.25,-96.25 549.06,-96.25 547,-94.19 547,-77.75 617.19,-77.75 619.25,-79.81 619.25,-96.25"/>
<polyline fill="none" stroke="black" points="617.19,-94.19 547,-94.19"/>
<polyline fill="none" stroke="black" points="617.19,-94.19 617.19,-77.75"/>
<polyline fill="none" stroke="black" points="617.19,-94.19 619.25,-96.25"/>
<text text-anchor="start" x="555" y="-83.7" font-family="Helvetica,sans-Serif" font-size="9.00" fill="#c40b0a">cookie&#45;parser</text>
</a>
</g>
</g>
<!-- node_modules/express -->
<g id="node2" class="node">
<title>node_modules/express</title>
<g id="a_node2"><a xlink:href="node_modules/express" xlink:title="express">
<polygon fill="#c40b0a" fill-opacity="0.101961" stroke="black" points="610.12,-65.25 558.18,-65.25 556.12,-63.19 556.12,-46.75 608.07,-46.75 610.12,-48.81 610.12,-65.25"/>
<polyline fill="none" stroke="black" points="608.07,-63.19 556.12,-63.19"/>
<polyline fill="none" stroke="black" points="608.07,-63.19 608.07,-46.75"/>
<polyline fill="none" stroke="black" points="608.07,-63.19 610.12,-65.25"/>
<text text-anchor="start" x="567" y="-52.7" font-family="Helvetica,sans-Serif" font-size="9.00" fill="#c40b0a">express</text>
</a>
</g>
</g>
<!-- node_modules/mongodb -->
<g id="node3" class="node">
<title>node_modules/mongodb</title>
<g id="a_node3"><a xlink:href="node_modules/mongodb" xlink:title="mongodb">
<polygon fill="#c40b0a" fill-opacity="0.101961" stroke="black" points="610.62,-127.25 557.68,-127.25 555.62,-125.19 555.62,-108.75 608.57,-108.75 610.62,-110.81 610.62,-127.25"/>
<polyline fill="none" stroke="black" points="608.57,-125.19 555.62,-125.19"/>
<polyline fill="none" stroke="black" points="608.57,-125.19 608.57,-108.75"/>
<polyline fill="none" stroke="black" points="608.57,-125.19 610.62,-127.25"/>
<text text-anchor="start" x="563.62" y="-114.7" font-family="Helvetica,sans-Serif" font-size="9.00" fill="#c40b0a">mongodb</text>
</a>
</g>
</g>
<!-- node_modules/pino -->
<g id="node4" class="node">
<title>node_modules/pino</title>
<g id="a_node4"><a xlink:href="node_modules/pino" xlink:title="pino">
<polygon fill="#c40b0a" fill-opacity="0.101961" stroke="black" points="610.12,-34.25 558.18,-34.25 556.12,-32.19 556.12,-15.75 608.07,-15.75 610.12,-17.81 610.12,-34.25"/>
<polyline fill="none" stroke="black" points="608.07,-32.19 556.12,-32.19"/>
<polyline fill="none" stroke="black" points="608.07,-32.19 608.07,-15.75"/>
<polyline fill="none" stroke="black" points="608.07,-32.19 610.12,-34.25"/>
<text text-anchor="start" x="574.12" y="-21.7" font-family="Helvetica,sans-Serif" font-size="9.00" fill="#c40b0a">pino</text>
</a>
</g>
</g>
<!-- src/clientShared/UserInterface.ts -->
<g id="node5" class="node">
<title>src/clientShared/UserInterface.ts</title>
<g id="a_node5"><a xlink:href="src/clientShared/UserInterface.ts" xlink:title="UserInterface.ts">
<path fill="#ccffcc" stroke="black" d="M121.58,-366.25C121.58,-366.25 54.17,-366.25 54.17,-366.25 51.08,-366.25 48,-363.17 48,-360.08 48,-360.08 48,-353.92 48,-353.92 48,-350.83 51.08,-347.75 54.17,-347.75 54.17,-347.75 121.58,-347.75 121.58,-347.75 124.67,-347.75 127.75,-350.83 127.75,-353.92 127.75,-353.92 127.75,-360.08 127.75,-360.08 127.75,-363.17 124.67,-366.25 121.58,-366.25"/>
<text text-anchor="start" x="56" y="-353.7" font-family="Helvetica,sans-Serif" font-size="9.00">UserInterface.ts</text>
</a>
</g>
</g>
<!-- src/controller/authenticationController.ts -->
<g id="node6" class="node">
<title>src/controller/authenticationController.ts</title>
<g id="a_node6"><a xlink:href="src/controller/authenticationController.ts" xlink:title="authenticationController.ts">
<path fill="#ddfeff" stroke="black" d="M142.96,-274.25C142.96,-274.25 32.79,-274.25 32.79,-274.25 29.71,-274.25 26.62,-271.17 26.62,-268.08 26.62,-268.08 26.62,-261.92 26.62,-261.92 26.62,-258.83 29.71,-255.75 32.79,-255.75 32.79,-255.75 142.96,-255.75 142.96,-255.75 146.04,-255.75 149.12,-258.83 149.12,-261.92 149.12,-261.92 149.12,-268.08 149.12,-268.08 149.12,-271.17 146.04,-274.25 142.96,-274.25"/>
<text text-anchor="start" x="34.62" y="-261.7" font-family="Helvetica,sans-Serif" font-size="9.00">authenticationController.ts</text>
</a>
</g>
</g>
<!-- src/core/express.ts -->
<g id="node9" class="node">
<title>src/core/express.ts</title>
<g id="a_node9"><a xlink:href="src/core/express.ts" xlink:title="express.ts">
<path fill="#ddfeff" stroke="black" d="M264.46,-187.25C264.46,-187.25 219.54,-187.25 219.54,-187.25 216.46,-187.25 213.38,-184.17 213.38,-181.08 213.38,-181.08 213.38,-174.92 213.38,-174.92 213.38,-171.83 216.46,-168.75 219.54,-168.75 219.54,-168.75 264.46,-168.75 264.46,-168.75 267.54,-168.75 270.62,-171.83 270.62,-174.92 270.62,-174.92 270.62,-181.08 270.62,-181.08 270.62,-184.17 267.54,-187.25 264.46,-187.25"/>
<text text-anchor="start" x="221.38" y="-174.7" font-family="Helvetica,sans-Serif" font-size="9.00">express.ts</text>
</a>
</g>
</g>
<!-- src/controller/authenticationController.ts&#45;&gt;src/core/express.ts -->
<g id="edge1" class="edge">
<title>src/controller/authenticationController.ts&#45;&gt;src/core/express.ts</title>
<path fill="none" stroke="#000000" stroke-width="2" stroke-opacity="0.200000" d="M143.09,-255.33C149.39,-252.26 155.18,-248.25 159.75,-243 174.23,-226.35 152.57,-210.01 167.75,-194 177.06,-184.18 190.9,-179.69 204.05,-177.83"/>
<polygon fill="#000000" fill-opacity="0.200000" stroke="#000000" stroke-width="2" stroke-opacity="0.200000" points="204.2,-179.93 209.96,-177.24 203.78,-175.75 204.2,-179.93"/>
</g>
<!-- src/controller/testController.ts -->
<g id="node7" class="node">
<title>src/controller/testController.ts</title>
<g id="a_node7"><a xlink:href="src/controller/testController.ts" xlink:title="testController.ts">
<path fill="#ddfeff" stroke="black" d="M121.21,-305.25C121.21,-305.25 54.54,-305.25 54.54,-305.25 51.46,-305.25 48.38,-302.17 48.38,-299.08 48.38,-299.08 48.38,-292.92 48.38,-292.92 48.38,-289.83 51.46,-286.75 54.54,-286.75 54.54,-286.75 121.21,-286.75 121.21,-286.75 124.29,-286.75 127.38,-289.83 127.38,-292.92 127.38,-292.92 127.38,-299.08 127.38,-299.08 127.38,-302.17 124.29,-305.25 121.21,-305.25"/>
<text text-anchor="start" x="56.38" y="-292.7" font-family="Helvetica,sans-Serif" font-size="9.00">testController.ts</text>
</a>
</g>
</g>
<!-- src/controller/testController.ts&#45;&gt;src/core/express.ts -->
<g id="edge4" class="edge">
<title>src/controller/testController.ts&#45;&gt;src/core/express.ts</title>
<path fill="none" stroke="#000000" stroke-width="2" stroke-opacity="0.200000" d="M127.59,-295.79C139.54,-293.72 151.67,-289.19 159.75,-280 172.42,-265.58 155.03,-208.38 167.75,-194 176.88,-183.68 190.97,-179.16 204.37,-177.41"/>
<polygon fill="#000000" fill-opacity="0.200000" stroke="#000000" stroke-width="2" stroke-opacity="0.200000" points="204.22,-179.53 210,-176.89 203.84,-175.35 204.22,-179.53"/>
</g>
<!-- src/core/timeMetrics.ts -->
<g id="node10" class="node">
<title>src/core/timeMetrics.ts</title>
<g id="a_node10"><a xlink:href="src/core/timeMetrics.ts" xlink:title="timeMetrics.ts">
<path fill="#ddfeff" stroke="black" d="M271.58,-218.25C271.58,-218.25 212.42,-218.25 212.42,-218.25 209.33,-218.25 206.25,-215.17 206.25,-212.08 206.25,-212.08 206.25,-205.92 206.25,-205.92 206.25,-202.83 209.33,-199.75 212.42,-199.75 212.42,-199.75 271.58,-199.75 271.58,-199.75 274.67,-199.75 277.75,-202.83 277.75,-205.92 277.75,-205.92 277.75,-212.08 277.75,-212.08 277.75,-215.17 274.67,-218.25 271.58,-218.25"/>
<text text-anchor="start" x="214.25" y="-205.7" font-family="Helvetica,sans-Serif" font-size="9.00">timeMetrics.ts</text>
</a>
</g>
</g>
<!-- src/controller/testController.ts&#45;&gt;src/core/timeMetrics.ts -->
<g id="edge5" class="edge">
<title>src/controller/testController.ts&#45;&gt;src/core/timeMetrics.ts</title>
<path fill="none" stroke="#000000" stroke-width="2" stroke-opacity="0.200000" d="M127.71,-295.5C139.53,-293.39 151.55,-288.91 159.75,-280 177.08,-261.18 150.11,-241.53 167.75,-223 175.43,-214.93 186.21,-210.71 197.15,-208.65"/>
<polygon fill="#000000" fill-opacity="0.200000" stroke="#000000" stroke-width="2" stroke-opacity="0.200000" points="197.25,-210.76 202.91,-207.85 196.67,-206.6 197.25,-210.76"/>
</g>
<!-- src/core/configuration/ConfigurationManager.ts -->
<g id="node8" class="node">
<title>src/core/configuration/ConfigurationManager.ts</title>
<g id="a_node8"><a xlink:href="src/core/configuration/ConfigurationManager.ts" xlink:title="ConfigurationManager.ts">
<path fill="#ddfeff" stroke="black" d="M294.08,-252.25C294.08,-252.25 189.92,-252.25 189.92,-252.25 186.83,-252.25 183.75,-249.17 183.75,-246.08 183.75,-246.08 183.75,-239.92 183.75,-239.92 183.75,-236.83 186.83,-233.75 189.92,-233.75 189.92,-233.75 294.08,-233.75 294.08,-233.75 297.17,-233.75 300.25,-236.83 300.25,-239.92 300.25,-239.92 300.25,-246.08 300.25,-246.08 300.25,-249.17 297.17,-252.25 294.08,-252.25"/>
<text text-anchor="start" x="191.75" y="-239.7" font-family="Helvetica,sans-Serif" font-size="9.00">ConfigurationManager.ts</text>
</a>
</g>
</g>
<!-- src/core/configuration/ConfigurationManager.ts&#45;&gt;node_modules/mongodb -->
<g id="edge7" class="edge">
<title>src/core/configuration/ConfigurationManager.ts&#45;&gt;node_modules/mongodb</title>
<path fill="none" stroke="#000000" stroke-opacity="0.200000" d="M300.46,-240.52C306.41,-238.14 311.87,-234.75 316.25,-230 329.11,-216.05 310.9,-158.49 324.25,-145 339.68,-129.4 481.21,-121.9 547.79,-119.21"/>
<polygon fill="#000000" fill-opacity="0.200000" stroke="#000000" stroke-opacity="0.200000" points="547.72,-121.32 553.63,-118.98 547.55,-117.12 547.72,-121.32"/>
</g>
<!-- src/data/MongoConnectionManager.ts -->
<g id="node12" class="node">
<title>src/data/MongoConnectionManager.ts</title>
<g id="a_node12"><a xlink:href="src/data/MongoConnectionManager.ts" xlink:title="MongoConnectionManager.ts">
<path fill="#ddfeff" stroke="black" d="M485.46,-174.25C485.46,-174.25 361.04,-174.25 361.04,-174.25 357.96,-174.25 354.88,-171.17 354.88,-168.08 354.88,-168.08 354.88,-161.92 354.88,-161.92 354.88,-158.83 357.96,-155.75 361.04,-155.75 361.04,-155.75 485.46,-155.75 485.46,-155.75 488.54,-155.75 491.62,-158.83 491.62,-161.92 491.62,-161.92 491.62,-168.08 491.62,-168.08 491.62,-171.17 488.54,-174.25 485.46,-174.25"/>
<text text-anchor="start" x="362.88" y="-161.7" font-family="Helvetica,sans-Serif" font-size="9.00">MongoConnectionManager.ts</text>
</a>
</g>
</g>
<!-- src/core/configuration/ConfigurationManager.ts&#45;&gt;src/data/MongoConnectionManager.ts -->
<g id="edge8" class="edge">
<title>src/core/configuration/ConfigurationManager.ts&#45;&gt;src/data/MongoConnectionManager.ts</title>
<path fill="none" stroke="#000000" stroke-width="2" stroke-opacity="0.200000" d="M300.56,-239.09C306.28,-236.92 311.66,-233.97 316.25,-230 324.76,-222.65 316.6,-214.24 324.25,-206 336.54,-192.76 353.78,-183.65 370.37,-177.44"/>
<polygon fill="#000000" fill-opacity="0.200000" stroke="#000000" stroke-width="2" stroke-opacity="0.200000" points="370.61,-179.58 375.59,-175.62 369.23,-175.62 370.61,-179.58"/>
</g>
<!-- src/misc/ExhaustiveCodePathChecking.ts -->
<g id="node15" class="node">
<title>src/misc/ExhaustiveCodePathChecking.ts</title>
<g id="a_node15"><a xlink:href="src/misc/ExhaustiveCodePathChecking.ts" xlink:title="ExhaustiveCodePathChecking.ts">
<path fill="#ddfeff" stroke="black" d="M492.21,-297.25C492.21,-297.25 354.29,-297.25 354.29,-297.25 351.21,-297.25 348.12,-294.17 348.12,-291.08 348.12,-291.08 348.12,-284.92 348.12,-284.92 348.12,-281.83 351.21,-278.75 354.29,-278.75 354.29,-278.75 492.21,-278.75 492.21,-278.75 495.29,-278.75 498.38,-281.83 498.38,-284.92 498.38,-284.92 498.38,-291.08 498.38,-291.08 498.38,-294.17 495.29,-297.25 492.21,-297.25"/>
<text text-anchor="start" x="356.12" y="-284.7" font-family="Helvetica,sans-Serif" font-size="9.00">ExhaustiveCodePathChecking.ts</text>
</a>
</g>
</g>
<!-- src/core/configuration/ConfigurationManager.ts&#45;&gt;src/misc/ExhaustiveCodePathChecking.ts -->
<g id="edge9" class="edge">
<title>src/core/configuration/ConfigurationManager.ts&#45;&gt;src/misc/ExhaustiveCodePathChecking.ts</title>
<path fill="none" stroke="#000000" stroke-width="2" stroke-opacity="0.200000" d="M266.47,-252.65C282.51,-258.93 304.38,-266.88 324.25,-272 330.71,-273.66 337.45,-275.19 344.24,-276.58"/>
<polygon fill="#000000" fill-opacity="0.200000" stroke="#000000" stroke-width="2" stroke-opacity="0.200000" points="343.59,-278.6 349.89,-277.69 344.4,-274.48 343.59,-278.6"/>
</g>
<!-- src/core/express.ts&#45;&gt;node_modules/cookie&#45;parser -->
<g id="edge2" class="edge">
<title>src/core/express.ts&#45;&gt;node_modules/cookie&#45;parser</title>
<path fill="none" stroke="#000000" stroke-opacity="0.200000" d="M270.9,-179.31C286.5,-178.44 305.01,-174.48 316.25,-162 327.02,-150.04 312.32,-100.81 324.25,-90 354.77,-62.36 474.53,-72.89 539.56,-81.01"/>
<polygon fill="#000000" fill-opacity="0.200000" stroke="#000000" stroke-opacity="0.200000" points="539.1,-83.06 545.32,-81.74 539.63,-78.9 539.1,-83.06"/>
</g>
<!-- src/core/express.ts&#45;&gt;node_modules/express -->
<g id="edge3" class="edge">
<title>src/core/express.ts&#45;&gt;node_modules/express</title>
<path fill="none" stroke="#000000" stroke-opacity="0.200000" d="M271.01,-179.4C286.65,-178.57 305.16,-174.61 316.25,-162 329.8,-146.59 309.51,-84.27 324.25,-70 355.36,-39.88 486.32,-47.24 548.75,-52.67"/>
<polygon fill="#000000" fill-opacity="0.200000" stroke="#000000" stroke-opacity="0.200000" points="548.34,-54.74 554.51,-53.19 548.72,-50.56 548.34,-54.74"/>
</g>
<!-- process -->
<g id="node20" class="node">
<title>process</title>
<g id="a_node20"><a xlink:title="process">
<path fill="#ffffcc" stroke="grey" d="M444.08,-114.25C444.08,-114.25 402.42,-114.25 402.42,-114.25 399.33,-114.25 396.25,-111.17 396.25,-108.08 396.25,-108.08 396.25,-101.92 396.25,-101.92 396.25,-98.83 399.33,-95.75 402.42,-95.75 402.42,-95.75 444.08,-95.75 444.08,-95.75 447.17,-95.75 450.25,-98.83 450.25,-101.92 450.25,-101.92 450.25,-108.08 450.25,-108.08 450.25,-111.17 447.17,-114.25 444.08,-114.25"/>
<text text-anchor="middle" x="423.25" y="-101.7" font-family="Helvetica,sans-Serif" font-size="9.00" fill="grey">process</text>
</a>
</g>
</g>
<!-- src/core/timeMetrics.ts&#45;&gt;process -->
<g id="edge6" class="edge">
<title>src/core/timeMetrics.ts&#45;&gt;process</title>
<path fill="none" stroke="#000000" stroke-dasharray="5,2" stroke-opacity="0.200000" d="M277.93,-209.69C291.78,-208.07 306.65,-203.62 316.25,-193 337.24,-169.77 302.87,-145.88 324.25,-123 340.31,-105.81 366.95,-101.81 388.41,-101.83"/>
<polygon fill="#000000" fill-opacity="0.200000" stroke="#000000" stroke-opacity="0.200000" points="388.2,-103.92 394.24,-101.95 388.29,-99.72 388.2,-103.92"/>
</g>
<!-- src/core/logging.ts -->
<g id="node11" class="node">
<title>src/core/logging.ts</title>
<g id="a_node11"><a xlink:href="src/core/logging.ts" xlink:title="logging.ts">
<path fill="#ddfeff" stroke="black" d="M263.71,-156.25C263.71,-156.25 220.29,-156.25 220.29,-156.25 217.21,-156.25 214.12,-153.17 214.12,-150.08 214.12,-150.08 214.12,-143.92 214.12,-143.92 214.12,-140.83 217.21,-137.75 220.29,-137.75 220.29,-137.75 263.71,-137.75 263.71,-137.75 266.79,-137.75 269.88,-140.83 269.88,-143.92 269.88,-143.92 269.88,-150.08 269.88,-150.08 269.88,-153.17 266.79,-156.25 263.71,-156.25"/>
<text text-anchor="start" x="222.12" y="-143.7" font-family="Helvetica,sans-Serif" font-size="9.00">logging.ts</text>
</a>
</g>
</g>
<!-- src/core/logging.ts&#45;&gt;node_modules/pino -->
<g id="edge11" class="edge">
<title>src/core/logging.ts&#45;&gt;node_modules/pino</title>
<path fill="none" stroke="#000000" stroke-opacity="0.200000" d="M270.17,-144.07C286.12,-140.85 305.25,-134.11 316.25,-120 326.55,-106.78 312.23,-56.68 324.25,-45 384.36,13.4 493.87,-2.72 548.81,-15.74"/>
<polygon fill="#000000" fill-opacity="0.200000" stroke="#000000" stroke-opacity="0.200000" points="548.08,-17.73 554.41,-17.11 549.08,-13.65 548.08,-17.73"/>
</g>
<!-- src/data/MongoConnectionManager.ts&#45;&gt;node_modules/mongodb -->
<g id="edge10" class="edge">
<title>src/data/MongoConnectionManager.ts&#45;&gt;node_modules/mongodb</title>
<path fill="none" stroke="#000000" stroke-opacity="0.200000" d="M468.53,-155.25C483.22,-151.74 499.59,-147.52 514.38,-143 526.49,-139.3 539.59,-134.63 551.02,-130.32"/>
<polygon fill="#000000" fill-opacity="0.200000" stroke="#000000" stroke-opacity="0.200000" points="551.62,-132.34 556.48,-128.24 550.12,-128.42 551.62,-132.34"/>
</g>
<!-- src/middleware/expressPinoLogger.ts -->
<g id="node13" class="node">
<title>src/middleware/expressPinoLogger.ts</title>
<g id="a_node13"><a xlink:href="src/middleware/expressPinoLogger.ts" xlink:title="expressPinoLogger.ts">
<path fill="#ddfeff" stroke="black" d="M133.96,-182.25C133.96,-182.25 41.79,-182.25 41.79,-182.25 38.71,-182.25 35.62,-179.17 35.62,-176.08 35.62,-176.08 35.62,-169.92 35.62,-169.92 35.62,-166.83 38.71,-163.75 41.79,-163.75 41.79,-163.75 133.96,-163.75 133.96,-163.75 137.04,-163.75 140.12,-166.83 140.12,-169.92 140.12,-169.92 140.12,-176.08 140.12,-176.08 140.12,-179.17 137.04,-182.25 133.96,-182.25"/>
<text text-anchor="start" x="43.62" y="-169.7" font-family="Helvetica,sans-Serif" font-size="9.00">expressPinoLogger.ts</text>
</a>
</g>
</g>
<!-- src/middleware/expressPinoLogger.ts&#45;&gt;src/core/express.ts -->
<g id="edge15" class="edge">
<title>src/middleware/expressPinoLogger.ts&#45;&gt;src/core/express.ts</title>
<path fill="none" stroke="#000000" stroke-width="2" stroke-opacity="0.200000" d="M140.38,-174.69C161.27,-175.38 184.92,-176.16 204.05,-176.79"/>
<polygon fill="#000000" fill-opacity="0.200000" stroke="#000000" stroke-width="2" stroke-opacity="0.200000" points="203.95,-178.88 210.02,-176.98 204.09,-174.69 203.95,-178.88"/>
</g>
<!-- src/middleware/expressPinoLogger.ts&#45;&gt;src/core/logging.ts -->
<g id="edge16" class="edge">
<title>src/middleware/expressPinoLogger.ts&#45;&gt;src/core/logging.ts</title>
<path fill="none" stroke="#000000" stroke-width="2" stroke-opacity="0.200000" d="M140.38,-164.2C161.66,-160.56 185.81,-156.43 205.12,-153.13"/>
<polygon fill="#000000" fill-opacity="0.200000" stroke="#000000" stroke-width="2" stroke-opacity="0.200000" points="205.36,-155.22 210.92,-152.14 204.65,-151.08 205.36,-155.22"/>
</g>
<!-- src/middleware/responseStandardization.ts -->
<g id="node14" class="node">
<title>src/middleware/responseStandardization.ts</title>
<g id="a_node14"><a xlink:href="src/middleware/responseStandardization.ts" xlink:title="responseStandardization.ts">
<path fill="#ddfeff" stroke="black" d="M145.58,-213.25C145.58,-213.25 30.17,-213.25 30.17,-213.25 27.08,-213.25 24,-210.17 24,-207.08 24,-207.08 24,-200.92 24,-200.92 24,-197.83 27.08,-194.75 30.17,-194.75 30.17,-194.75 145.58,-194.75 145.58,-194.75 148.67,-194.75 151.75,-197.83 151.75,-200.92 151.75,-200.92 151.75,-207.08 151.75,-207.08 151.75,-210.17 148.67,-213.25 145.58,-213.25"/>
<text text-anchor="start" x="32" y="-200.7" font-family="Helvetica,sans-Serif" font-size="9.00">responseStandardization.ts</text>
</a>
</g>
</g>
<!-- src/middleware/responseStandardization.ts&#45;&gt;src/core/express.ts -->
<g id="edge17" class="edge">
<title>src/middleware/responseStandardization.ts&#45;&gt;src/core/express.ts</title>
<path fill="none" stroke="#000000" stroke-width="2" stroke-opacity="0.200000" d="M145.52,-194.32C165.09,-190.97 186.49,-187.32 204.07,-184.31"/>
<polygon fill="#000000" fill-opacity="0.200000" stroke="#000000" stroke-width="2" stroke-opacity="0.200000" points="204.33,-186.4 209.89,-183.32 203.62,-182.26 204.33,-186.4"/>
</g>
<!-- src/misc/delay.ts -->
<g id="node16" class="node">
<title>src/misc/delay.ts</title>
<g id="a_node16"><a xlink:href="src/misc/delay.ts" xlink:title="delay.ts">
<path fill="#ccffcc" stroke="black" d="M444.08,-266.25C444.08,-266.25 402.42,-266.25 402.42,-266.25 399.33,-266.25 396.25,-263.17 396.25,-260.08 396.25,-260.08 396.25,-253.92 396.25,-253.92 396.25,-250.83 399.33,-247.75 402.42,-247.75 402.42,-247.75 444.08,-247.75 444.08,-247.75 447.17,-247.75 450.25,-250.83 450.25,-253.92 450.25,-253.92 450.25,-260.08 450.25,-260.08 450.25,-263.17 447.17,-266.25 444.08,-266.25"/>
<text text-anchor="start" x="407.88" y="-253.7" font-family="Helvetica,sans-Serif" font-size="9.00">delay.ts</text>
</a>
</g>
</g>
<!-- src/misc/yieldExecution.ts -->
<g id="node17" class="node">
<title>src/misc/yieldExecution.ts</title>
<g id="a_node17"><a xlink:href="src/misc/yieldExecution.ts" xlink:title="yieldExecution.ts">
<path fill="#ccffcc" stroke="black" d="M459.58,-235.25C459.58,-235.25 386.92,-235.25 386.92,-235.25 383.83,-235.25 380.75,-232.17 380.75,-229.08 380.75,-229.08 380.75,-222.92 380.75,-222.92 380.75,-219.83 383.83,-216.75 386.92,-216.75 386.92,-216.75 459.58,-216.75 459.58,-216.75 462.67,-216.75 465.75,-219.83 465.75,-222.92 465.75,-222.92 465.75,-229.08 465.75,-229.08 465.75,-232.17 462.67,-235.25 459.58,-235.25"/>
<text text-anchor="start" x="388.75" y="-222.7" font-family="Helvetica,sans-Serif" font-size="9.00">yieldExecution.ts</text>
</a>
</g>
</g>
<!-- src/entryPoint.ts -->
<g id="node18" class="node">
<title>src/entryPoint.ts</title>
<g id="a_node18"><a xlink:href="src/entryPoint.ts" xlink:title="entryPoint.ts">
<path fill="#ddfeff" stroke="black" d="M114.83,-148.25C114.83,-148.25 60.92,-148.25 60.92,-148.25 57.83,-148.25 54.75,-145.17 54.75,-142.08 54.75,-142.08 54.75,-135.92 54.75,-135.92 54.75,-132.83 57.83,-129.75 60.92,-129.75 60.92,-129.75 114.83,-129.75 114.83,-129.75 117.92,-129.75 121,-132.83 121,-135.92 121,-135.92 121,-142.08 121,-142.08 121,-145.17 117.92,-148.25 114.83,-148.25"/>
<text text-anchor="start" x="62.75" y="-135.7" font-family="Helvetica,sans-Serif" font-size="9.00">entryPoint.ts</text>
</a>
</g>
</g>
<!-- src/entryPoint.ts&#45;&gt;src/core/express.ts -->
<g id="edge13" class="edge">
<title>src/entryPoint.ts&#45;&gt;src/core/express.ts</title>
<path fill="none" stroke="#000000" stroke-width="2" stroke-opacity="0.200000" d="M121.47,-140.99C134.07,-142.86 148.21,-146.4 159.75,-153 164.4,-155.66 163.13,-159.3 167.75,-162 178.78,-168.46 192.12,-172.31 204.38,-174.62"/>
<polygon fill="#000000" fill-opacity="0.200000" stroke="#000000" stroke-width="2" stroke-opacity="0.200000" points="203.82,-176.65 210.08,-175.55 204.5,-172.51 203.82,-176.65"/>
</g>
<!-- src/entryPoint.ts&#45;&gt;src/core/logging.ts -->
<g id="edge14" class="edge">
<title>src/entryPoint.ts&#45;&gt;src/core/logging.ts</title>
<path fill="none" stroke="#000000" stroke-width="2" stroke-opacity="0.200000" d="M121.14,-140.7C145.68,-141.99 179.46,-143.76 204.9,-145.1"/>
<polygon fill="#000000" fill-opacity="0.200000" stroke="#000000" stroke-width="2" stroke-opacity="0.200000" points="204.74,-147.2 210.85,-145.41 204.96,-143 204.74,-147.2"/>
</g>
<!-- fs -->
<g id="node19" class="node">
<title>fs</title>
<g id="a_node19"><a xlink:title="fs">
<path fill="#ffffcc" stroke="grey" d="M262.83,-114.25C262.83,-114.25 221.17,-114.25 221.17,-114.25 218.08,-114.25 215,-111.17 215,-108.08 215,-108.08 215,-101.92 215,-101.92 215,-98.83 218.08,-95.75 221.17,-95.75 221.17,-95.75 262.83,-95.75 262.83,-95.75 265.92,-95.75 269,-98.83 269,-101.92 269,-101.92 269,-108.08 269,-108.08 269,-111.17 265.92,-114.25 262.83,-114.25"/>
<text text-anchor="middle" x="242" y="-101.7" font-family="Helvetica,sans-Serif" font-size="9.00" fill="grey">fs</text>
</a>
</g>
</g>
<!-- src/entryPoint.ts&#45;&gt;fs -->
<g id="edge12" class="edge">
<title>src/entryPoint.ts&#45;&gt;fs</title>
<path fill="none" stroke="#000000" stroke-dasharray="5,2" stroke-opacity="0.200000" d="M121.14,-131.79C146.54,-126.11 181.83,-118.23 207.53,-112.48"/>
<polygon fill="#000000" fill-opacity="0.200000" stroke="#000000" stroke-opacity="0.200000" points="207.97,-114.53 213.37,-111.17 207.06,-110.43 207.97,-114.53"/>
</g>
<!-- node_modules/@mui/icons&#45;material -->
<g id="node21" class="node">
<title>node_modules/@mui/icons&#45;material</title>
<g id="a_node21"><a xlink:href="node_modules/@mui/icons-material" xlink:title="icons&#45;material">
<polygon fill="#c40b0a" fill-opacity="0.101961" stroke="black" points="762.38,-870.25 690.68,-870.25 688.62,-868.19 688.62,-851.75 760.32,-851.75 762.38,-853.81 762.38,-870.25"/>
<polyline fill="none" stroke="black" points="760.32,-868.19 688.62,-868.19"/>
<polyline fill="none" stroke="black" points="760.32,-868.19 760.32,-851.75"/>
<polyline fill="none" stroke="black" points="760.32,-868.19 762.38,-870.25"/>
<text text-anchor="start" x="696.62" y="-857.7" font-family="Helvetica,sans-Serif" font-size="9.00" fill="#c40b0a">icons&#45;material</text>
</a>
</g>
</g>
<!-- node_modules/@mui/material -->
<g id="node22" class="node">
<title>node_modules/@mui/material</title>
<g id="a_node22"><a xlink:href="node_modules/@mui/material" xlink:title="material">
<polygon fill="#c40b0a" fill-opacity="0.101961" stroke="black" points="752.5,-901.25 700.56,-901.25 698.5,-899.19 698.5,-882.75 750.44,-882.75 752.5,-884.81 752.5,-901.25"/>
<polyline fill="none" stroke="black" points="750.44,-899.19 698.5,-899.19"/>
<polyline fill="none" stroke="black" points="750.44,-899.19 750.44,-882.75"/>
<polyline fill="none" stroke="black" points="750.44,-899.19 752.5,-901.25"/>
<text text-anchor="start" x="709" y="-888.7" font-family="Helvetica,sans-Serif" font-size="9.00" fill="#c40b0a">material</text>
</a>
</g>
</g>
<!-- node_modules/@testing&#45;library/jest&#45;dom -->
<g id="node23" class="node">
<title>node_modules/@testing&#45;library/jest&#45;dom</title>
<g id="a_node23"><a xlink:href="node_modules/@testing-library/jest-dom" xlink:title="jest&#45;dom">
<polygon fill="#c40b0a" fill-opacity="0.101961" stroke="black" points="752.5,-597.25 700.56,-597.25 698.5,-595.19 698.5,-578.75 750.44,-578.75 752.5,-580.81 752.5,-597.25"/>
<polyline fill="none" stroke="black" points="750.44,-595.19 698.5,-595.19"/>
<polyline fill="none" stroke="black" points="750.44,-595.19 750.44,-578.75"/>
<polyline fill="none" stroke="black" points="750.44,-595.19 752.5,-597.25"/>
<text text-anchor="start" x="707.88" y="-584.7" font-family="Helvetica,sans-Serif" font-size="9.00" fill="#c40b0a">jest&#45;dom</text>
</a>
</g>
</g>
<!-- node_modules/@testing&#45;library/react -->
<g id="node24" class="node">
<title>node_modules/@testing&#45;library/react</title>
<g id="a_node24"><a xlink:href="node_modules/@testing-library/react" xlink:title="react">
<polygon fill="#c40b0a" fill-opacity="0.101961" stroke="black" points="752.5,-628.25 700.56,-628.25 698.5,-626.19 698.5,-609.75 750.44,-609.75 752.5,-611.81 752.5,-628.25"/>
<polyline fill="none" stroke="black" points="750.44,-626.19 698.5,-626.19"/>
<polyline fill="none" stroke="black" points="750.44,-626.19 750.44,-609.75"/>
<polyline fill="none" stroke="black" points="750.44,-626.19 752.5,-628.25"/>
<text text-anchor="start" x="715.38" y="-615.7" font-family="Helvetica,sans-Serif" font-size="9.00" fill="#c40b0a">react</text>
</a>
</g>
</g>
<!-- node_modules/react -->
<g id="node25" class="node">
<title>node_modules/react</title>
<g id="a_node25"><a xlink:href="node_modules/react" xlink:title="react">
<polygon fill="#c40b0a" fill-opacity="0.101961" stroke="black" points="752.5,-836.25 700.56,-836.25 698.5,-834.19 698.5,-817.75 750.44,-817.75 752.5,-819.81 752.5,-836.25"/>
<polyline fill="none" stroke="black" points="750.44,-834.19 698.5,-834.19"/>
<polyline fill="none" stroke="black" points="750.44,-834.19 750.44,-817.75"/>
<polyline fill="none" stroke="black" points="750.44,-834.19 752.5,-836.25"/>
<text text-anchor="start" x="715.38" y="-823.7" font-family="Helvetica,sans-Serif" font-size="9.00" fill="#c40b0a">react</text>
</a>
</g>
</g>
<!-- node_modules/react&#45;dom -->
<g id="node26" class="node">
<title>node_modules/react&#45;dom</title>
<g id="a_node26"><a xlink:href="node_modules/react-dom" xlink:title="react&#45;dom">
<polygon fill="#c40b0a" fill-opacity="0.101961" stroke="black" points="754.12,-743.25 698.93,-743.25 696.88,-741.19 696.88,-724.75 752.07,-724.75 754.12,-726.81 754.12,-743.25"/>
<polyline fill="none" stroke="black" points="752.07,-741.19 696.88,-741.19"/>
<polyline fill="none" stroke="black" points="752.07,-741.19 752.07,-724.75"/>
<polyline fill="none" stroke="black" points="752.07,-741.19 754.12,-743.25"/>
<text text-anchor="start" x="704.88" y="-730.7" font-family="Helvetica,sans-Serif" font-size="9.00" fill="#c40b0a">react&#45;dom</text>
</a>
</g>
</g>
<!-- node_modules/react&#45;router&#45;dom -->
<g id="node27" class="node">
<title>node_modules/react&#45;router&#45;dom</title>
<g id="a_node27"><a xlink:href="node_modules/react-router-dom" xlink:title="react&#45;router&#45;dom">
<polygon fill="#c40b0a" fill-opacity="0.101961" stroke="black" points="767.62,-805.25 685.43,-805.25 683.38,-803.19 683.38,-786.75 765.57,-786.75 767.62,-788.81 767.62,-805.25"/>
<polyline fill="none" stroke="black" points="765.57,-803.19 683.38,-803.19"/>
<polyline fill="none" stroke="black" points="765.57,-803.19 765.57,-786.75"/>
<polyline fill="none" stroke="black" points="765.57,-803.19 767.62,-805.25"/>
<text text-anchor="start" x="691.38" y="-792.7" font-family="Helvetica,sans-Serif" font-size="9.00" fill="#c40b0a">react&#45;router&#45;dom</text>
</a>
</g>
</g>
<!-- node_modules/react&#45;scripts -->
<g id="node28" class="node">
<title>node_modules/react&#45;scripts</title>
<g id="a_node28"><a xlink:href="node_modules/react-scripts" xlink:title="react&#45;scripts">
<polygon fill="#c40b0a" fill-opacity="0.101961" stroke="black" points="758.25,-712.25 694.81,-712.25 692.75,-710.19 692.75,-693.75 756.19,-693.75 758.25,-695.81 758.25,-712.25"/>
<polyline fill="none" stroke="black" points="756.19,-710.19 692.75,-710.19"/>
<polyline fill="none" stroke="black" points="756.19,-710.19 756.19,-693.75"/>
<polyline fill="none" stroke="black" points="756.19,-710.19 758.25,-712.25"/>
<text text-anchor="start" x="700.75" y="-699.7" font-family="Helvetica,sans-Serif" font-size="9.00" fill="#c40b0a">react&#45;scripts</text>
</a>
</g>
</g>
<!-- node_modules/web&#45;vitals -->
<g id="node29" class="node">
<title>node_modules/web&#45;vitals</title>
<g id="a_node29"><a xlink:href="node_modules/web-vitals" xlink:title="web&#45;vitals">
<polygon fill="#c40b0a" fill-opacity="0.101961" stroke="black" points="754.12,-774.25 698.93,-774.25 696.88,-772.19 696.88,-755.75 752.07,-755.75 754.12,-757.81 754.12,-774.25"/>
<polyline fill="none" stroke="black" points="752.07,-772.19 696.88,-772.19"/>
<polyline fill="none" stroke="black" points="752.07,-772.19 752.07,-755.75"/>
<polyline fill="none" stroke="black" points="752.07,-772.19 754.12,-774.25"/>
<text text-anchor="start" x="704.88" y="-761.7" font-family="Helvetica,sans-Serif" font-size="9.00" fill="#c40b0a">web&#45;vitals</text>
</a>
</g>
</g>
<!-- node_modules/workbox&#45;core -->
<g id="node30" class="node">
<title>node_modules/workbox&#45;core</title>
<g id="a_node30"><a xlink:href="node_modules/workbox-core" xlink:title="workbox&#45;core">
<polygon fill="#c40b0a" fill-opacity="0.101961" stroke="black" points="761.25,-681.25 691.81,-681.25 689.75,-679.19 689.75,-662.75 759.19,-662.75 761.25,-664.81 761.25,-681.25"/>
<polyline fill="none" stroke="black" points="759.19,-679.19 689.75,-679.19"/>
<polyline fill="none" stroke="black" points="759.19,-679.19 759.19,-662.75"/>
<polyline fill="none" stroke="black" points="759.19,-679.19 761.25,-681.25"/>
<text text-anchor="start" x="697.75" y="-668.7" font-family="Helvetica,sans-Serif" font-size="9.00" fill="#c40b0a">workbox&#45;core</text>
</a>
</g>
</g>
<!-- node_modules/workbox&#45;expiration -->
<g id="node31" class="node">
<title>node_modules/workbox&#45;expiration</title>
<g id="a_node31"><a xlink:href="node_modules/workbox-expiration" xlink:title="workbox&#45;expiration">
<polygon fill="#c40b0a" fill-opacity="0.101961" stroke="black" points="772.5,-563.25 680.56,-563.25 678.5,-561.19 678.5,-544.75 770.44,-544.75 772.5,-546.81 772.5,-563.25"/>
<polyline fill="none" stroke="black" points="770.44,-561.19 678.5,-561.19"/>
<polyline fill="none" stroke="black" points="770.44,-561.19 770.44,-544.75"/>
<polyline fill="none" stroke="black" points="770.44,-561.19 772.5,-563.25"/>
<text text-anchor="start" x="686.5" y="-550.7" font-family="Helvetica,sans-Serif" font-size="9.00" fill="#c40b0a">workbox&#45;expiration</text>
</a>
</g>
</g>
<!-- node_modules/workbox&#45;precaching -->
<g id="node32" class="node">
<title>node_modules/workbox&#45;precaching</title>
<g id="a_node32"><a xlink:href="node_modules/workbox-precaching" xlink:title="workbox&#45;precaching">
<polygon fill="#c40b0a" fill-opacity="0.101961" stroke="black" points="775.12,-532.25 677.93,-532.25 675.88,-530.19 675.88,-513.75 773.07,-513.75 775.12,-515.81 775.12,-532.25"/>
<polyline fill="none" stroke="black" points="773.07,-530.19 675.88,-530.19"/>
<polyline fill="none" stroke="black" points="773.07,-530.19 773.07,-513.75"/>
<polyline fill="none" stroke="black" points="773.07,-530.19 775.12,-532.25"/>
<text text-anchor="start" x="683.88" y="-519.7" font-family="Helvetica,sans-Serif" font-size="9.00" fill="#c40b0a">workbox&#45;precaching</text>
</a>
</g>
</g>
<!-- node_modules/workbox&#45;routing -->
<g id="node33" class="node">
<title>node_modules/workbox&#45;routing</title>
<g id="a_node33"><a xlink:href="node_modules/workbox-routing" xlink:title="workbox&#45;routing">
<polygon fill="#c40b0a" fill-opacity="0.101961" stroke="black" points="766.5,-501.25 686.56,-501.25 684.5,-499.19 684.5,-482.75 764.44,-482.75 766.5,-484.81 766.5,-501.25"/>
<polyline fill="none" stroke="black" points="764.44,-499.19 684.5,-499.19"/>
<polyline fill="none" stroke="black" points="764.44,-499.19 764.44,-482.75"/>
<polyline fill="none" stroke="black" points="764.44,-499.19 766.5,-501.25"/>
<text text-anchor="start" x="692.5" y="-488.7" font-family="Helvetica,sans-Serif" font-size="9.00" fill="#c40b0a">workbox&#45;routing</text>
</a>
</g>
</g>
<!-- node_modules/workbox&#45;strategies -->
<g id="node34" class="node">
<title>node_modules/workbox&#45;strategies</title>
<g id="a_node34"><a xlink:href="node_modules/workbox-strategies" xlink:title="workbox&#45;strategies">
<polygon fill="#c40b0a" fill-opacity="0.101961" stroke="black" points="772.12,-470.25 680.93,-470.25 678.88,-468.19 678.88,-451.75 770.07,-451.75 772.12,-453.81 772.12,-470.25"/>
<polyline fill="none" stroke="black" points="770.07,-468.19 678.88,-468.19"/>
<polyline fill="none" stroke="black" points="770.07,-468.19 770.07,-451.75"/>
<polyline fill="none" stroke="black" points="770.07,-468.19 772.12,-470.25"/>
<text text-anchor="start" x="686.88" y="-457.7" font-family="Helvetica,sans-Serif" font-size="9.00" fill="#c40b0a">workbox&#45;strategies</text>
</a>
</g>
</g>
<!-- src/clientShared/UserInterface.ts_gv1 -->
<g id="node35" class="node">
<title>src/clientShared/UserInterface.ts_gv1</title>
<g id="a_node35"><a xlink:href="src/clientShared/UserInterface.ts" xlink:title="UserInterface.ts">
<path fill="#ccffcc" stroke="black" d="M121.58,-1258.25C121.58,-1258.25 54.17,-1258.25 54.17,-1258.25 51.08,-1258.25 48,-1255.17 48,-1252.08 48,-1252.08 48,-1245.92 48,-1245.92 48,-1242.83 51.08,-1239.75 54.17,-1239.75 54.17,-1239.75 121.58,-1239.75 121.58,-1239.75 124.67,-1239.75 127.75,-1242.83 127.75,-1245.92 127.75,-1245.92 127.75,-1252.08 127.75,-1252.08 127.75,-1255.17 124.67,-1258.25 121.58,-1258.25"/>
<text text-anchor="start" x="56" y="-1245.7" font-family="Helvetica,sans-Serif" font-size="9.00">UserInterface.ts</text>
</a>
</g>
</g>
<!-- src/components/buildingblocks/layout/HorizontalSplit.tsx -->
<g id="node36" class="node">
<title>src/components/buildingblocks/layout/HorizontalSplit.tsx</title>
<g id="a_node36"><a xlink:href="src/components/buildingblocks/layout/HorizontalSplit.tsx" xlink:title="HorizontalSplit.tsx">
<path fill="#bbfeff" stroke="black" d="M621.71,-1138.25C621.71,-1138.25 544.54,-1138.25 544.54,-1138.25 541.46,-1138.25 538.38,-1135.17 538.38,-1132.08 538.38,-1132.08 538.38,-1125.92 538.38,-1125.92 538.38,-1122.83 541.46,-1119.75 544.54,-1119.75 544.54,-1119.75 621.71,-1119.75 621.71,-1119.75 624.79,-1119.75 627.88,-1122.83 627.88,-1125.92 627.88,-1125.92 627.88,-1132.08 627.88,-1132.08 627.88,-1135.17 624.79,-1138.25 621.71,-1138.25"/>
<text text-anchor="start" x="546.38" y="-1125.7" font-family="Helvetica,sans-Serif" font-size="9.00">HorizontalSplit.tsx</text>
</a>
</g>
</g>
<!-- src/components/buildingblocks/layout/HorizontalSplit.tsx&#45;&gt;node_modules/@mui/material -->
<g id="edge28" class="edge">
<title>src/components/buildingblocks/layout/HorizontalSplit.tsx&#45;&gt;node_modules/@mui/material</title>
<path fill="none" stroke="#000000" stroke-opacity="0.200000" d="M628.26,-1129.6C639.7,-1127.72 651.22,-1123.74 659.88,-1116 721.52,-1060.84 725.93,-950.99 725.2,-908.92"/>
<polygon fill="#000000" fill-opacity="0.200000" stroke="#000000" stroke-opacity="0.200000" points="727.3,-908.91 725.04,-902.97 723.1,-909.02 727.3,-908.91"/>
</g>
<!-- src/components/buildingblocks/Header.tsx -->
<g id="node37" class="node">
<title>src/components/buildingblocks/Header.tsx</title>
<g id="a_node37"><a xlink:href="src/components/buildingblocks/Header.tsx" xlink:title="Header.tsx">
<path fill="#bbfeff" stroke="black" d="M606.71,-1104.25C606.71,-1104.25 559.54,-1104.25 559.54,-1104.25 556.46,-1104.25 553.38,-1101.17 553.38,-1098.08 553.38,-1098.08 553.38,-1091.92 553.38,-1091.92 553.38,-1088.83 556.46,-1085.75 559.54,-1085.75 559.54,-1085.75 606.71,-1085.75 606.71,-1085.75 609.79,-1085.75 612.88,-1088.83 612.88,-1091.92 612.88,-1091.92 612.88,-1098.08 612.88,-1098.08 612.88,-1101.17 609.79,-1104.25 606.71,-1104.25"/>
<text text-anchor="start" x="561.38" y="-1091.7" font-family="Helvetica,sans-Serif" font-size="9.00">Header.tsx</text>
</a>
</g>
</g>
<!-- src/components/buildingblocks/Header.tsx&#45;&gt;node_modules/@mui/icons&#45;material -->
<g id="edge25" class="edge">
<title>src/components/buildingblocks/Header.tsx&#45;&gt;node_modules/@mui/icons&#45;material</title>
<path fill="none" stroke="#000000" stroke-opacity="0.200000" d="M613.13,-1094.44C629.53,-1092.47 648.9,-1087.02 659.88,-1073 673.32,-1055.84 654.37,-894.11 667.88,-877 671.43,-872.49 676.16,-869.19 681.38,-866.78"/>
<polygon fill="#000000" fill-opacity="0.200000" stroke="#000000" stroke-opacity="0.200000" points="681.91,-868.83 686.77,-864.73 680.42,-864.9 681.91,-868.83"/>
</g>
<!-- src/components/buildingblocks/Header.tsx&#45;&gt;node_modules/@mui/material -->
<g id="edge26" class="edge">
<title>src/components/buildingblocks/Header.tsx&#45;&gt;node_modules/@mui/material</title>
<path fill="none" stroke="#000000" stroke-opacity="0.200000" d="M613.17,-1092.89C628.77,-1090.34 647.31,-1084.83 659.88,-1073 707.98,-1027.71 720.33,-944.18 723.46,-908.68"/>
<polygon fill="#000000" fill-opacity="0.200000" stroke="#000000" stroke-opacity="0.200000" points="725.53,-909.14 723.9,-902.99 721.34,-908.81 725.53,-909.14"/>
</g>
<!-- src/components/buildingblocks/Header.tsx&#45;&gt;node_modules/react -->
<g id="edge27" class="edge">
<title>src/components/buildingblocks/Header.tsx&#45;&gt;node_modules/react</title>
<path fill="none" stroke="#000000" stroke-opacity="0.200000" d="M613.17,-1094.47C629.58,-1092.5 648.94,-1087.05 659.88,-1073 675.72,-1052.64 651.63,-861.03 667.88,-841 673.56,-834 682.14,-830.17 690.91,-828.16"/>
<polygon fill="#000000" fill-opacity="0.200000" stroke="#000000" stroke-opacity="0.200000" points="691.24,-830.24 696.78,-827.13 690.51,-826.1 691.24,-830.24"/>
</g>
<!-- src/components/hooks/Battery.ts -->
<g id="node38" class="node">
<title>src/components/hooks/Battery.ts</title>
<g id="a_node38"><a xlink:href="src/components/hooks/Battery.ts" xlink:title="Battery.ts">
<path fill="#ddfeff" stroke="black" d="M444.08,-1160.25C444.08,-1160.25 402.42,-1160.25 402.42,-1160.25 399.33,-1160.25 396.25,-1157.17 396.25,-1154.08 396.25,-1154.08 396.25,-1147.92 396.25,-1147.92 396.25,-1144.83 399.33,-1141.75 402.42,-1141.75 402.42,-1141.75 444.08,-1141.75 444.08,-1141.75 447.17,-1141.75 450.25,-1144.83 450.25,-1147.92 450.25,-1147.92 450.25,-1154.08 450.25,-1154.08 450.25,-1157.17 447.17,-1160.25 444.08,-1160.25"/>
<text text-anchor="start" x="404.88" y="-1147.7" font-family="Helvetica,sans-Serif" font-size="9.00">Battery.ts</text>
</a>
</g>
</g>
<!-- src/components/hooks/Battery.ts&#45;&gt;node_modules/react -->
<g id="edge29" class="edge">
<title>src/components/hooks/Battery.ts&#45;&gt;node_modules/react</title>
<path fill="none" stroke="#000000" stroke-opacity="0.200000" d="M450.56,-1153.94C470.9,-1154.64 498.22,-1151.87 514.38,-1135 532.98,-1115.57 504.01,-1094.66 522.38,-1075 564.94,-1029.42 619.49,-1094.52 659.88,-1047 674.71,-1029.54 653.41,-858.76 667.88,-841 673.57,-834.01 682.16,-830.19 690.93,-828.18"/>
<polygon fill="#000000" fill-opacity="0.200000" stroke="#000000" stroke-opacity="0.200000" points="691.25,-830.25 696.8,-827.14 690.53,-826.11 691.25,-830.25"/>
</g>
<!-- src/components/hooks/GPSPosition.ts -->
<g id="node39" class="node">
<title>src/components/hooks/GPSPosition.ts</title>
<g id="a_node39"><a xlink:href="src/components/hooks/GPSPosition.ts" xlink:title="GPSPosition.ts">
<path fill="#ddfeff" stroke="black" d="M455.46,-1129.25C455.46,-1129.25 391.04,-1129.25 391.04,-1129.25 387.96,-1129.25 384.88,-1126.17 384.88,-1123.08 384.88,-1123.08 384.88,-1116.92 384.88,-1116.92 384.88,-1113.83 387.96,-1110.75 391.04,-1110.75 391.04,-1110.75 455.46,-1110.75 455.46,-1110.75 458.54,-1110.75 461.62,-1113.83 461.62,-1116.92 461.62,-1116.92 461.62,-1123.08 461.62,-1123.08 461.62,-1126.17 458.54,-1129.25 455.46,-1129.25"/>
<text text-anchor="start" x="392.88" y="-1116.7" font-family="Helvetica,sans-Serif" font-size="9.00">GPSPosition.ts</text>
</a>
</g>
</g>
<!-- src/components/hooks/GPSPosition.ts&#45;&gt;node_modules/react -->
<g id="edge30" class="edge">
<title>src/components/hooks/GPSPosition.ts&#45;&gt;node_modules/react</title>
<path fill="none" stroke="#000000" stroke-opacity="0.200000" d="M461.78,-1122.8C480.05,-1122.06 500.92,-1117.73 514.38,-1104 530.43,-1087.61 506.75,-1069.81 522.38,-1053 565.09,-1007.04 619.78,-1069.26 659.88,-1021 672.67,-1005.6 655.19,-856.49 667.88,-841 673.54,-834.08 682.03,-830.27 690.73,-828.25"/>
<polygon fill="#000000" fill-opacity="0.200000" stroke="#000000" stroke-opacity="0.200000" points="691,-830.33 696.53,-827.21 690.26,-826.2 691,-830.33"/>
</g>
<!-- src/components/hooks/NetworkConnectionInfo.ts -->
<g id="node40" class="node">
<title>src/components/hooks/NetworkConnectionInfo.ts</title>
<g id="a_node40"><a xlink:href="src/components/hooks/NetworkConnectionInfo.ts" xlink:title="NetworkConnectionInfo.ts">
<path fill="#ddfeff" stroke="black" d="M477.58,-1098.25C477.58,-1098.25 368.92,-1098.25 368.92,-1098.25 365.83,-1098.25 362.75,-1095.17 362.75,-1092.08 362.75,-1092.08 362.75,-1085.92 362.75,-1085.92 362.75,-1082.83 365.83,-1079.75 368.92,-1079.75 368.92,-1079.75 477.58,-1079.75 477.58,-1079.75 480.67,-1079.75 483.75,-1082.83 483.75,-1085.92 483.75,-1085.92 483.75,-1092.08 483.75,-1092.08 483.75,-1095.17 480.67,-1098.25 477.58,-1098.25"/>
<text text-anchor="start" x="370.75" y="-1085.7" font-family="Helvetica,sans-Serif" font-size="9.00">NetworkConnectionInfo.ts</text>
</a>
</g>
</g>
<!-- src/components/hooks/NetworkConnectionInfo.ts&#45;&gt;node_modules/react -->
<g id="edge31" class="edge">
<title>src/components/hooks/NetworkConnectionInfo.ts&#45;&gt;node_modules/react</title>
<path fill="none" stroke="#000000" stroke-opacity="0.200000" d="M484.02,-1088.76C495.34,-1086.05 506.19,-1081.22 514.38,-1073 529.02,-1058.3 508.12,-1042.08 522.38,-1027 565.47,-981.4 619.6,-1043.11 659.88,-995 681.87,-968.72 646.06,-867.43 667.88,-841 673.57,-834.11 682.07,-830.3 690.76,-828.28"/>
<polygon fill="#000000" fill-opacity="0.200000" stroke="#000000" stroke-opacity="0.200000" points="691.03,-830.36 696.56,-827.23 690.29,-826.23 691.03,-830.36"/>
</g>
<!-- src/components/hooks/Promise.ts -->
<g id="node41" class="node">
<title>src/components/hooks/Promise.ts</title>
<g id="a_node41"><a xlink:href="src/components/hooks/Promise.ts" xlink:title="Promise.ts">
<path fill="#ddfeff" stroke="black" d="M446.46,-1067.25C446.46,-1067.25 400.04,-1067.25 400.04,-1067.25 396.96,-1067.25 393.88,-1064.17 393.88,-1061.08 393.88,-1061.08 393.88,-1054.92 393.88,-1054.92 393.88,-1051.83 396.96,-1048.75 400.04,-1048.75 400.04,-1048.75 446.46,-1048.75 446.46,-1048.75 449.54,-1048.75 452.62,-1051.83 452.62,-1054.92 452.62,-1054.92 452.62,-1061.08 452.62,-1061.08 452.62,-1064.17 449.54,-1067.25 446.46,-1067.25"/>
<text text-anchor="start" x="401.88" y="-1054.7" font-family="Helvetica,sans-Serif" font-size="9.00">Promise.ts</text>
</a>
</g>
</g>
<!-- src/components/hooks/Promise.ts&#45;&gt;node_modules/react -->
<g id="edge32" class="edge">
<title>src/components/hooks/Promise.ts&#45;&gt;node_modules/react</title>
<path fill="none" stroke="#000000" stroke-opacity="0.200000" d="M452.8,-1060.72C472.68,-1060.97 498.4,-1057.71 514.38,-1042 527.61,-1028.98 509.49,-1014.36 522.38,-1001 565.94,-955.84 619.34,-1016.9 659.88,-969 678.28,-947.24 649.61,-862.88 667.88,-841 673.6,-834.14 682.11,-830.34 690.81,-828.32"/>
<polygon fill="#000000" fill-opacity="0.200000" stroke="#000000" stroke-opacity="0.200000" points="691.08,-830.4 696.61,-827.27 690.33,-826.27 691.08,-830.4"/>
</g>
<!-- src/components/hooks/SecureContext.ts -->
<g id="node42" class="node">
<title>src/components/hooks/SecureContext.ts</title>
<g id="a_node42"><a xlink:href="src/components/hooks/SecureContext.ts" xlink:title="SecureContext.ts">
<path fill="#ddfeff" stroke="black" d="M459.96,-1036.25C459.96,-1036.25 386.54,-1036.25 386.54,-1036.25 383.46,-1036.25 380.38,-1033.17 380.38,-1030.08 380.38,-1030.08 380.38,-1023.92 380.38,-1023.92 380.38,-1020.83 383.46,-1017.75 386.54,-1017.75 386.54,-1017.75 459.96,-1017.75 459.96,-1017.75 463.04,-1017.75 466.12,-1020.83 466.12,-1023.92 466.12,-1023.92 466.12,-1030.08 466.12,-1030.08 466.12,-1033.17 463.04,-1036.25 459.96,-1036.25"/>
<text text-anchor="start" x="388.38" y="-1023.7" font-family="Helvetica,sans-Serif" font-size="9.00">SecureContext.ts</text>
</a>
</g>
</g>
<!-- src/components/hooks/SecureContext.ts&#45;&gt;node_modules/react -->
<g id="edge33" class="edge">
<title>src/components/hooks/SecureContext.ts&#45;&gt;node_modules/react</title>
<path fill="none" stroke="#000000" stroke-opacity="0.200000" d="M466.44,-1029.12C483.34,-1027.75 501.75,-1023.09 514.38,-1011 526.21,-999.66 510.84,-986.65 522.38,-975 566.52,-930.41 618.97,-990.57 659.88,-943 674.7,-925.76 653.17,-858.34 667.88,-841 673.66,-834.18 682.19,-830.4 690.88,-828.37"/>
<polygon fill="#000000" fill-opacity="0.200000" stroke="#000000" stroke-opacity="0.200000" points="691.14,-830.46 696.67,-827.32 690.39,-826.33 691.14,-830.46"/>
</g>
<!-- src/components/hooks/SessionStorage.ts -->
<g id="node43" class="node">
<title>src/components/hooks/SessionStorage.ts</title>
<g id="a_node43"><a xlink:href="src/components/hooks/SessionStorage.ts" xlink:title="SessionStorage.ts">
<path fill="#ddfeff" stroke="black" d="M462.21,-1005.25C462.21,-1005.25 384.29,-1005.25 384.29,-1005.25 381.21,-1005.25 378.12,-1002.17 378.12,-999.08 378.12,-999.08 378.12,-992.92 378.12,-992.92 378.12,-989.83 381.21,-986.75 384.29,-986.75 384.29,-986.75 462.21,-986.75 462.21,-986.75 465.29,-986.75 468.38,-989.83 468.38,-992.92 468.38,-992.92 468.38,-999.08 468.38,-999.08 468.38,-1002.17 465.29,-1005.25 462.21,-1005.25"/>
<text text-anchor="start" x="386.12" y="-992.7" font-family="Helvetica,sans-Serif" font-size="9.00">SessionStorage.ts</text>
</a>
</g>
</g>
<!-- src/components/hooks/SessionStorage.ts&#45;&gt;node_modules/react -->
<g id="edge34" class="edge">
<title>src/components/hooks/SessionStorage.ts&#45;&gt;node_modules/react</title>
<path fill="none" stroke="#000000" stroke-opacity="0.200000" d="M468.55,-997.7C484.77,-996.07 502.13,-991.34 514.38,-980 524.82,-970.33 512.19,-958.94 522.38,-949 567.27,-905.17 618.34,-964.03 659.88,-917 682.36,-891.54 645.57,-866.61 667.88,-841 673.75,-834.26 682.3,-830.5 690.99,-828.47"/>
<polygon fill="#000000" fill-opacity="0.200000" stroke="#000000" stroke-opacity="0.200000" points="691.25,-830.56 696.78,-827.42 690.5,-826.43 691.25,-830.56"/>
</g>
<!-- src/components/hooks/URLMappedStateValue.ts -->
<g id="node44" class="node">
<title>src/components/hooks/URLMappedStateValue.ts</title>
<g id="a_node44"><a xlink:href="src/components/hooks/URLMappedStateValue.ts" xlink:title="URLMappedStateValue.ts">
<path fill="#ddfeff" stroke="black" d="M477.96,-974.25C477.96,-974.25 368.54,-974.25 368.54,-974.25 365.46,-974.25 362.38,-971.17 362.38,-968.08 362.38,-968.08 362.38,-961.92 362.38,-961.92 362.38,-958.83 365.46,-955.75 368.54,-955.75 368.54,-955.75 477.96,-955.75 477.96,-955.75 481.04,-955.75 484.12,-958.83 484.12,-961.92 484.12,-961.92 484.12,-968.08 484.12,-968.08 484.12,-971.17 481.04,-974.25 477.96,-974.25"/>
<text text-anchor="start" x="370.38" y="-961.7" font-family="Helvetica,sans-Serif" font-size="9.00">URLMappedStateValue.ts</text>
</a>
</g>
</g>
<!-- src/components/hooks/URLMappedStateValue.ts&#45;&gt;node_modules/react -->
<g id="edge36" class="edge">
<title>src/components/hooks/URLMappedStateValue.ts&#45;&gt;node_modules/react</title>
<path fill="none" stroke="#000000" stroke-opacity="0.200000" d="M484.18,-963.72C495.23,-961.03 505.92,-956.47 514.38,-949 523.43,-940.99 513.53,-931.25 522.38,-923 568.26,-880.21 617.09,-936.89 659.88,-891 675.22,-874.54 652.64,-857.57 667.88,-841 673.87,-834.48 682.39,-830.78 690.99,-828.73"/>
<polygon fill="#000000" fill-opacity="0.200000" stroke="#000000" stroke-opacity="0.200000" points="691.2,-830.83 696.71,-827.66 690.42,-826.71 691.2,-830.83"/>
</g>
<!-- src/components/hooks/URLMappedStateValue.ts&#45;&gt;node_modules/react&#45;router&#45;dom -->
<g id="edge37" class="edge">
<title>src/components/hooks/URLMappedStateValue.ts&#45;&gt;node_modules/react&#45;router&#45;dom</title>
<path fill="none" stroke="#000000" stroke-opacity="0.200000" d="M484.22,-964.96C495.53,-962.24 506.32,-957.35 514.38,-949 532.13,-930.59 504.59,-910.39 522.38,-892 565.5,-847.41 616.69,-912.54 659.88,-868 677.38,-849.95 651.32,-830.92 667.88,-812 670.44,-809.07 673.5,-806.66 676.84,-804.67"/>
<polygon fill="#000000" fill-opacity="0.200000" stroke="#000000" stroke-opacity="0.200000" points="677.34,-806.77 681.77,-802.22 675.47,-803.01 677.34,-806.77"/>
</g>
<!-- buffer -->
<g id="node61" class="node">
<title>buffer</title>
<g id="a_node61"><a xlink:title="buffer">
<path fill="#ffffcc" stroke="grey" d="M603.96,-862.25C603.96,-862.25 562.29,-862.25 562.29,-862.25 559.21,-862.25 556.12,-859.17 556.12,-856.08 556.12,-856.08 556.12,-849.92 556.12,-849.92 556.12,-846.83 559.21,-843.75 562.29,-843.75 562.29,-843.75 603.96,-843.75 603.96,-843.75 607.04,-843.75 610.12,-846.83 610.12,-849.92 610.12,-849.92 610.12,-856.08 610.12,-856.08 610.12,-859.17 607.04,-862.25 603.96,-862.25"/>
<text text-anchor="middle" x="583.12" y="-849.7" font-family="Helvetica,sans-Serif" font-size="9.00" fill="grey">buffer</text>
</a>
</g>
</g>
<!-- src/components/hooks/URLMappedStateValue.ts&#45;&gt;buffer -->
<g id="edge35" class="edge">
<title>src/components/hooks/URLMappedStateValue.ts&#45;&gt;buffer</title>
<path fill="none" stroke="#000000" stroke-dasharray="5,2" stroke-opacity="0.200000" d="M484.46,-965.19C495.76,-962.45 506.48,-957.5 514.38,-949 526.23,-936.23 511.28,-884.44 522.38,-871 528.92,-863.07 538.84,-858.54 548.71,-855.99"/>
<polygon fill="#000000" fill-opacity="0.200000" stroke="#000000" stroke-opacity="0.200000" points="548.95,-858.09 554.37,-854.78 548.06,-853.98 548.95,-858.09"/>
</g>
<!-- src/components/hooks/UseEvent.ts -->
<g id="node45" class="node">
<title>src/components/hooks/UseEvent.ts</title>
<g id="a_node45"><a xlink:href="src/components/hooks/UseEvent.ts" xlink:title="UseEvent.ts">
<path fill="#ddfeff" stroke="black" d="M449.46,-943.25C449.46,-943.25 397.04,-943.25 397.04,-943.25 393.96,-943.25 390.88,-940.17 390.88,-937.08 390.88,-937.08 390.88,-930.92 390.88,-930.92 390.88,-927.83 393.96,-924.75 397.04,-924.75 397.04,-924.75 449.46,-924.75 449.46,-924.75 452.54,-924.75 455.62,-927.83 455.62,-930.92 455.62,-930.92 455.62,-937.08 455.62,-937.08 455.62,-940.17 452.54,-943.25 449.46,-943.25"/>
<text text-anchor="start" x="398.88" y="-930.7" font-family="Helvetica,sans-Serif" font-size="9.00">UseEvent.ts</text>
</a>
</g>
</g>
<!-- src/components/hooks/UseEvent.ts&#45;&gt;node_modules/react -->
<g id="edge38" class="edge">
<title>src/components/hooks/UseEvent.ts&#45;&gt;node_modules/react</title>
<path fill="none" stroke="#000000" stroke-opacity="0.200000" d="M455.85,-937.2C475.53,-937.32 499.79,-933.74 514.38,-918 526.52,-904.9 509.46,-850.34 522.38,-838 545.74,-815.67 639.89,-819.75 691.04,-823.82"/>
<polygon fill="#000000" fill-opacity="0.200000" stroke="#000000" stroke-opacity="0.200000" points="690.59,-825.89 696.75,-824.29 690.94,-821.7 690.59,-825.89"/>
</g>
<!-- src/components/hooks/UseWorkerServiceCommunication.ts -->
<g id="node46" class="node">
<title>src/components/hooks/UseWorkerServiceCommunication.ts</title>
<g id="a_node46"><a xlink:href="src/components/hooks/UseWorkerServiceCommunication.ts" xlink:title="UseWorkerServiceCommunication.ts">
<path fill="#ddfeff" stroke="black" d="M500.08,-912.25C500.08,-912.25 346.42,-912.25 346.42,-912.25 343.33,-912.25 340.25,-909.17 340.25,-906.08 340.25,-906.08 340.25,-899.92 340.25,-899.92 340.25,-896.83 343.33,-893.75 346.42,-893.75 346.42,-893.75 500.08,-893.75 500.08,-893.75 503.17,-893.75 506.25,-896.83 506.25,-899.92 506.25,-899.92 506.25,-906.08 506.25,-906.08 506.25,-909.17 503.17,-912.25 500.08,-912.25"/>
<text text-anchor="start" x="348.25" y="-899.7" font-family="Helvetica,sans-Serif" font-size="9.00">UseWorkerServiceCommunication.ts</text>
</a>
</g>
</g>
<!-- src/components/hooks/UseWorkerServiceCommunication.ts&#45;&gt;node_modules/react -->
<g id="edge39" class="edge">
<title>src/components/hooks/UseWorkerServiceCommunication.ts&#45;&gt;node_modules/react</title>
<path fill="none" stroke="#000000" stroke-opacity="0.200000" d="M430.99,-893.41C445.22,-874.1 480.49,-831.03 522.38,-815 578.59,-793.49 650.02,-806.12 691.17,-816.84"/>
<polygon fill="#000000" fill-opacity="0.200000" stroke="#000000" stroke-opacity="0.200000" points="690.45,-818.82 696.79,-818.36 691.54,-814.77 690.45,-818.82"/>
</g>
<!-- src/components/pages/HomePage.tsx -->
<g id="node47" class="node">
<title>src/components/pages/HomePage.tsx</title>
<g id="a_node47"><a xlink:href="src/components/pages/HomePage.tsx" xlink:title="HomePage.tsx">
<path fill="#bbfeff" stroke="black" d="M455.08,-1221.25C455.08,-1221.25 391.42,-1221.25 391.42,-1221.25 388.33,-1221.25 385.25,-1218.17 385.25,-1215.08 385.25,-1215.08 385.25,-1208.92 385.25,-1208.92 385.25,-1205.83 388.33,-1202.75 391.42,-1202.75 391.42,-1202.75 455.08,-1202.75 455.08,-1202.75 458.17,-1202.75 461.25,-1205.83 461.25,-1208.92 461.25,-1208.92 461.25,-1215.08 461.25,-1215.08 461.25,-1218.17 458.17,-1221.25 455.08,-1221.25"/>
<text text-anchor="start" x="393.25" y="-1208.7" font-family="Helvetica,sans-Serif" font-size="9.00">HomePage.tsx</text>
</a>
</g>
</g>
<!-- src/components/pages/HomePage.tsx&#45;&gt;src/components/buildingblocks/Header.tsx -->
<g id="edge24" class="edge">
<title>src/components/pages/HomePage.tsx&#45;&gt;src/components/buildingblocks/Header.tsx</title>
<path fill="none" stroke="#000000" stroke-width="2" stroke-opacity="0.200000" d="M461.44,-1212.47C480.08,-1210.62 501.39,-1204.96 514.38,-1190 538.09,-1162.68 498.53,-1136.21 522.38,-1109 528,-1102.58 535.96,-1098.8 544.25,-1096.65"/>
<polygon fill="#000000" fill-opacity="0.200000" stroke="#000000" stroke-width="2" stroke-opacity="0.200000" points="544.46,-1098.75 549.94,-1095.53 543.65,-1094.63 544.46,-1098.75"/>
</g>
<!-- src/global/navigator/Battery.d.ts -->
<g id="node48" class="node">
<title>src/global/navigator/Battery.d.ts</title>
<g id="a_node48"><a xlink:href="src/global/navigator/Battery.d.ts" xlink:title="Battery.d.ts">
<path fill="#ccffcc" stroke="black" d="M111.83,-1155.25C111.83,-1155.25 63.92,-1155.25 63.92,-1155.25 60.83,-1155.25 57.75,-1152.17 57.75,-1149.08 57.75,-1149.08 57.75,-1142.92 57.75,-1142.92 57.75,-1139.83 60.83,-1136.75 63.92,-1136.75 63.92,-1136.75 111.83,-1136.75 111.83,-1136.75 114.92,-1136.75 118,-1139.83 118,-1142.92 118,-1142.92 118,-1149.08 118,-1149.08 118,-1152.17 114.92,-1155.25 111.83,-1155.25"/>
<text text-anchor="start" x="65.75" y="-1142.7" font-family="Helvetica,sans-Serif" font-size="9.00">Battery.d.ts</text>
</a>
</g>
</g>
<!-- src/global/navigator/ConnectionInfo.d.ts -->
<g id="node49" class="node">
<title>src/global/navigator/ConnectionInfo.d.ts</title>
<g id="a_node49"><a xlink:href="src/global/navigator/ConnectionInfo.d.ts" xlink:title="ConnectionInfo.d.ts">
<path fill="#ccffcc" stroke="black" d="M129.08,-1124.25C129.08,-1124.25 46.67,-1124.25 46.67,-1124.25 43.58,-1124.25 40.5,-1121.17 40.5,-1118.08 40.5,-1118.08 40.5,-1111.92 40.5,-1111.92 40.5,-1108.83 43.58,-1105.75 46.67,-1105.75 46.67,-1105.75 129.08,-1105.75 129.08,-1105.75 132.17,-1105.75 135.25,-1108.83 135.25,-1111.92 135.25,-1111.92 135.25,-1118.08 135.25,-1118.08 135.25,-1121.17 132.17,-1124.25 129.08,-1124.25"/>
<text text-anchor="start" x="48.5" y="-1111.7" font-family="Helvetica,sans-Serif" font-size="9.00">ConnectionInfo.d.ts</text>
</a>
</g>
</g>
<!-- src/global/navigator/GPSPosition.d.ts -->
<g id="node50" class="node">
<title>src/global/navigator/GPSPosition.d.ts</title>
<g id="a_node50"><a xlink:href="src/global/navigator/GPSPosition.d.ts" xlink:title="GPSPosition.d.ts">
<path fill="#ccffcc" stroke="black" d="M123.83,-1093.25C123.83,-1093.25 51.92,-1093.25 51.92,-1093.25 48.83,-1093.25 45.75,-1090.17 45.75,-1087.08 45.75,-1087.08 45.75,-1080.92 45.75,-1080.92 45.75,-1077.83 48.83,-1074.75 51.92,-1074.75 51.92,-1074.75 123.83,-1074.75 123.83,-1074.75 126.92,-1074.75 130,-1077.83 130,-1080.92 130,-1080.92 130,-1087.08 130,-1087.08 130,-1090.17 126.92,-1093.25 123.83,-1093.25"/>
<text text-anchor="start" x="53.75" y="-1080.7" font-family="Helvetica,sans-Serif" font-size="9.00">GPSPosition.d.ts</text>
</a>
</g>
</g>
<!-- src/App.css -->
<g id="node51" class="node">
<title>src/App.css</title>
<g id="a_node51"><a xlink:href="src/App.css" xlink:title="App.css">
<path fill="#ffffcc" stroke="black" d="M444.08,-1301.25C444.08,-1301.25 402.42,-1301.25 402.42,-1301.25 399.33,-1301.25 396.25,-1298.17 396.25,-1295.08 396.25,-1295.08 396.25,-1288.92 396.25,-1288.92 396.25,-1285.83 399.33,-1282.75 402.42,-1282.75 402.42,-1282.75 444.08,-1282.75 444.08,-1282.75 447.17,-1282.75 450.25,-1285.83 450.25,-1288.92 450.25,-1288.92 450.25,-1295.08 450.25,-1295.08 450.25,-1298.17 447.17,-1301.25 444.08,-1301.25"/>
<text text-anchor="start" x="407.12" y="-1288.7" font-family="Helvetica,sans-Serif" font-size="9.00">App.css</text>
</a>
</g>
</g>
<!-- src/App.test.tsx -->
<g id="node52" class="node">
<title>src/App.test.tsx</title>
<g id="a_node52"><a xlink:href="src/App.test.tsx" xlink:title="App.test.tsx">
<path fill="#bbfeff" stroke="black" d="M112.96,-1020.25C112.96,-1020.25 62.79,-1020.25 62.79,-1020.25 59.71,-1020.25 56.62,-1017.17 56.62,-1014.08 56.62,-1014.08 56.62,-1007.92 56.62,-1007.92 56.62,-1004.83 59.71,-1001.75 62.79,-1001.75 62.79,-1001.75 112.96,-1001.75 112.96,-1001.75 116.04,-1001.75 119.12,-1004.83 119.12,-1007.92 119.12,-1007.92 119.12,-1014.08 119.12,-1014.08 119.12,-1017.17 116.04,-1020.25 112.96,-1020.25"/>
<text text-anchor="start" x="64.62" y="-1007.7" font-family="Helvetica,sans-Serif" font-size="9.00">App.test.tsx</text>
</a>
</g>
</g>
<!-- src/App.test.tsx&#45;&gt;node_modules/@testing&#45;library/react -->
<g id="edge18" class="edge">
<title>src/App.test.tsx&#45;&gt;node_modules/@testing&#45;library/react</title>
<path fill="none" stroke="#000000" stroke-opacity="0.200000" d="M119.62,-1011.92C133.94,-1010.62 149.95,-1006.37 159.75,-995 175.32,-976.94 157.22,-909.39 167.75,-888 206.89,-808.51 275.3,-833.57 316.25,-755 323.08,-741.9 314.08,-699.72 324.25,-689 422.09,-585.89 613.88,-601.73 691.11,-613.15"/>
<polygon fill="#000000" fill-opacity="0.200000" stroke="#000000" stroke-opacity="0.200000" points="690.47,-615.17 696.72,-614 691.1,-611.02 690.47,-615.17"/>
</g>
<!-- src/App.tsx -->
<g id="node53" class="node">
<title>src/App.tsx</title>
<g id="a_node53"><a xlink:href="src/App.tsx" xlink:title="App.tsx">
<path fill="#bbfeff" stroke="black" d="M262.83,-1020.25C262.83,-1020.25 221.17,-1020.25 221.17,-1020.25 218.08,-1020.25 215,-1017.17 215,-1014.08 215,-1014.08 215,-1007.92 215,-1007.92 215,-1004.83 218.08,-1001.75 221.17,-1001.75 221.17,-1001.75 262.83,-1001.75 262.83,-1001.75 265.92,-1001.75 269,-1004.83 269,-1007.92 269,-1007.92 269,-1014.08 269,-1014.08 269,-1017.17 265.92,-1020.25 262.83,-1020.25"/>
<text text-anchor="start" x="227" y="-1007.7" font-family="Helvetica,sans-Serif" font-size="9.00">App.tsx</text>
</a>
</g>
</g>
<!-- src/App.test.tsx&#45;&gt;src/App.tsx -->
<g id="edge19" class="edge">
<title>src/App.test.tsx&#45;&gt;src/App.tsx</title>
<path fill="none" stroke="#000000" stroke-width="2" stroke-opacity="0.200000" d="M119.29,-1011C144.27,-1011 179.66,-1011 205.85,-1011"/>
<polygon fill="#000000" fill-opacity="0.200000" stroke="#000000" stroke-width="2" stroke-opacity="0.200000" points="205.67,-1013.1 211.67,-1011 205.67,-1008.9 205.67,-1013.1"/>
</g>
<!-- src/App.tsx&#45;&gt;node_modules/react -->
<g id="edge20" class="edge">
<title>src/App.tsx&#45;&gt;node_modules/react</title>
<path fill="none" stroke="#000000" stroke-opacity="0.200000" d="M269.27,-1012.55C285.3,-1011.95 304.83,-1008.19 316.25,-995 332.58,-976.13 309.7,-903.27 324.25,-883 379.93,-805.45 428.78,-818.81 522.38,-800 582.29,-787.96 605.42,-772.27 659.88,-800 665.26,-802.74 662.92,-807.54 667.88,-811 674.68,-815.74 682.86,-819.08 690.86,-821.44"/>
<polygon fill="#000000" fill-opacity="0.200000" stroke="#000000" stroke-opacity="0.200000" points="690.31,-823.47 696.65,-822.95 691.37,-819.4 690.31,-823.47"/>
</g>
<!-- src/App.tsx&#45;&gt;node_modules/react&#45;router&#45;dom -->
<g id="edge21" class="edge">
<title>src/App.tsx&#45;&gt;node_modules/react&#45;router&#45;dom</title>
<path fill="none" stroke="#000000" stroke-opacity="0.200000" d="M269.41,-1012.66C285.49,-1012.12 305.04,-1008.36 316.25,-995 330.26,-978.31 309.23,-814.79 324.25,-799 427.22,-690.77 511.46,-764 659.88,-781 667.08,-781.83 674.66,-783.15 681.98,-784.69"/>
<polygon fill="#000000" fill-opacity="0.200000" stroke="#000000" stroke-opacity="0.200000" points="681.41,-786.71 687.72,-785.95 682.31,-782.61 681.41,-786.71"/>
</g>
<!-- src/App.tsx&#45;&gt;src/components/pages/HomePage.tsx -->
<g id="edge23" class="edge">
<title>src/App.tsx&#45;&gt;src/components/pages/HomePage.tsx</title>
<path fill="none" stroke="#000000" stroke-width="2" stroke-dasharray="5,2" stroke-opacity="0.200000" d="M244.33,-1020.57C249.06,-1050.67 267.85,-1144.14 324.25,-1190 338.78,-1201.82 358.37,-1207.59 376.22,-1210.31"/>
<polygon fill="#000000" fill-opacity="0.200000" stroke="#000000" stroke-width="2" stroke-opacity="0.200000" points="375.59,-1212.35 381.81,-1211.03 376.13,-1208.18 375.59,-1212.35"/>
</g>
<!-- src/App.tsx&#45;&gt;src/App.css -->
<g id="edge22" class="edge">
<title>src/App.tsx&#45;&gt;src/App.css</title>
<path fill="none" stroke="#000000" stroke-width="2" stroke-opacity="0.200000" d="M243.52,-1020.66C245.91,-1056.14 258.85,-1180.87 324.25,-1251 340.87,-1268.82 366.44,-1279.17 387.29,-1285.01"/>
<polygon fill="#000000" fill-opacity="0.200000" stroke="#000000" stroke-width="2" stroke-opacity="0.200000" points="386.64,-1287.01 392.97,-1286.48 387.69,-1282.94 386.64,-1287.01"/>
</g>
<!-- src/index.css -->
<g id="node54" class="node">
<title>src/index.css</title>
<g id="a_node54"><a xlink:href="src/index.css" xlink:title="index.css">
<path fill="#ffffcc" stroke="black" d="M262.96,-989.25C262.96,-989.25 221.04,-989.25 221.04,-989.25 217.96,-989.25 214.88,-986.17 214.88,-983.08 214.88,-983.08 214.88,-976.92 214.88,-976.92 214.88,-973.83 217.96,-970.75 221.04,-970.75 221.04,-970.75 262.96,-970.75 262.96,-970.75 266.04,-970.75 269.12,-973.83 269.12,-976.92 269.12,-976.92 269.12,-983.08 269.12,-983.08 269.12,-986.17 266.04,-989.25 262.96,-989.25"/>
<text text-anchor="start" x="222.88" y="-976.7" font-family="Helvetica,sans-Serif" font-size="9.00">index.css</text>
</a>
</g>
</g>
<!-- src/index.tsx -->
<g id="node55" class="node">
<title>src/index.tsx</title>
<g id="a_node55"><a xlink:href="src/index.tsx" xlink:title="index.tsx">
<path fill="#bbfeff" stroke="black" d="M108.71,-989.25C108.71,-989.25 67.04,-989.25 67.04,-989.25 63.96,-989.25 60.88,-986.17 60.88,-983.08 60.88,-983.08 60.88,-976.92 60.88,-976.92 60.88,-973.83 63.96,-970.75 67.04,-970.75 67.04,-970.75 108.71,-970.75 108.71,-970.75 111.79,-970.75 114.88,-973.83 114.88,-976.92 114.88,-976.92 114.88,-983.08 114.88,-983.08 114.88,-986.17 111.79,-989.25 108.71,-989.25"/>
<text text-anchor="start" x="69.88" y="-976.7" font-family="Helvetica,sans-Serif" font-size="9.00">index.tsx</text>
</a>
</g>
</g>
<!-- src/index.tsx&#45;&gt;node_modules/react -->
<g id="edge40" class="edge">
<title>src/index.tsx&#45;&gt;node_modules/react</title>
<path fill="none" stroke="#000000" stroke-opacity="0.200000" d="M115.21,-981.11C130.47,-980.25 148.77,-976.35 159.75,-964 171.03,-951.31 158.45,-902.21 167.75,-888 211.55,-821.04 247.9,-822.94 324.25,-799 466.79,-754.31 541.42,-689.99 659.88,-781 670.82,-789.41 658.19,-801.17 667.88,-811 674.09,-817.31 682.6,-821.18 691.12,-823.54"/>
<polygon fill="#000000" fill-opacity="0.200000" stroke="#000000" stroke-opacity="0.200000" points="690.45,-825.54 696.77,-824.85 691.39,-821.45 690.45,-825.54"/>
</g>
<!-- src/index.tsx&#45;&gt;node_modules/react&#45;dom -->
<g id="edge41" class="edge">
<title>src/index.tsx&#45;&gt;node_modules/react&#45;dom</title>
<path fill="none" stroke="#000000" stroke-opacity="0.200000" d="M115.11,-981.35C130.53,-980.61 149.04,-976.75 159.75,-964 171.55,-949.94 158.9,-815.08 167.75,-799 208.76,-724.52 243.19,-714.64 324.25,-689 466.47,-644.02 541.1,-599.76 659.88,-690 670.18,-697.83 658.71,-708.86 667.88,-718 673.69,-723.8 681.44,-727.53 689.33,-729.93"/>
<polygon fill="#000000" fill-opacity="0.200000" stroke="#000000" stroke-opacity="0.200000" points="688.77,-731.95 695.1,-731.4 689.8,-727.88 688.77,-731.95"/>
</g>
<!-- src/index.tsx&#45;&gt;src/App.tsx -->
<g id="edge42" class="edge">
<title>src/index.tsx&#45;&gt;src/App.tsx</title>
<path fill="none" stroke="#000000" stroke-width="2" stroke-opacity="0.200000" d="M115.37,-985.4C140.49,-990.52 178.38,-998.24 205.98,-1003.86"/>
<polygon fill="#000000" fill-opacity="0.200000" stroke="#000000" stroke-width="2" stroke-opacity="0.200000" points="205.29,-1005.87 211.58,-1005.01 206.12,-1001.75 205.29,-1005.87"/>
</g>
<!-- src/index.tsx&#45;&gt;src/index.css -->
<g id="edge43" class="edge">
<title>src/index.tsx&#45;&gt;src/index.css</title>
<path fill="none" stroke="#000000" stroke-width="2" stroke-opacity="0.200000" d="M115.37,-980C140.38,-980 178.05,-980 205.62,-980"/>
<polygon fill="#000000" fill-opacity="0.200000" stroke="#000000" stroke-width="2" stroke-opacity="0.200000" points="205.52,-982.1 211.52,-980 205.52,-977.9 205.52,-982.1"/>
</g>
<!-- src/reportWebVitals.ts -->
<g id="node56" class="node">
<title>src/reportWebVitals.ts</title>
<g id="a_node56"><a xlink:href="src/reportWebVitals.ts" xlink:title="reportWebVitals.ts">
<path fill="#ddfeff" stroke="black" d="M280.96,-912.25C280.96,-912.25 203.04,-912.25 203.04,-912.25 199.96,-912.25 196.88,-909.17 196.88,-906.08 196.88,-906.08 196.88,-899.92 196.88,-899.92 196.88,-896.83 199.96,-893.75 203.04,-893.75 203.04,-893.75 280.96,-893.75 280.96,-893.75 284.04,-893.75 287.12,-896.83 287.12,-899.92 287.12,-899.92 287.12,-906.08 287.12,-906.08 287.12,-909.17 284.04,-912.25 280.96,-912.25"/>
<text text-anchor="start" x="204.88" y="-899.7" font-family="Helvetica,sans-Serif" font-size="9.00">reportWebVitals.ts</text>
</a>
</g>
</g>
<!-- src/index.tsx&#45;&gt;src/reportWebVitals.ts -->
<g id="edge44" class="edge">
<title>src/index.tsx&#45;&gt;src/reportWebVitals.ts</title>
<path fill="none" stroke="#000000" stroke-width="2" stroke-opacity="0.200000" d="M115.24,-980.42C130.12,-979.26 148.02,-975.28 159.75,-964 169.69,-954.43 158.7,-944.41 167.75,-934 174.41,-926.34 183.28,-920.53 192.54,-916.13"/>
<polygon fill="#000000" fill-opacity="0.200000" stroke="#000000" stroke-width="2" stroke-opacity="0.200000" points="193.27,-918.1 197.95,-913.81 191.61,-914.24 193.27,-918.1"/>
</g>
<!-- src/serviceWorkerRegistration.ts -->
<g id="node57" class="node">
<title>src/serviceWorkerRegistration.ts</title>
<g id="a_node57"><a xlink:href="src/serviceWorkerRegistration.ts" xlink:title="serviceWorkerRegistration.ts">
<path fill="#ddfeff" stroke="black" d="M302.33,-958.25C302.33,-958.25 181.67,-958.25 181.67,-958.25 178.58,-958.25 175.5,-955.17 175.5,-952.08 175.5,-952.08 175.5,-945.92 175.5,-945.92 175.5,-942.83 178.58,-939.75 181.67,-939.75 181.67,-939.75 302.33,-939.75 302.33,-939.75 305.42,-939.75 308.5,-942.83 308.5,-945.92 308.5,-945.92 308.5,-952.08 308.5,-952.08 308.5,-955.17 305.42,-958.25 302.33,-958.25"/>
<text text-anchor="start" x="183.5" y="-945.7" font-family="Helvetica,sans-Serif" font-size="9.00">serviceWorkerRegistration.ts</text>
</a>
</g>
</g>
<!-- src/index.tsx&#45;&gt;src/serviceWorkerRegistration.ts -->
<g id="edge45" class="edge">
<title>src/index.tsx&#45;&gt;src/serviceWorkerRegistration.ts</title>
<path fill="none" stroke="#000000" stroke-width="2" stroke-opacity="0.200000" d="M115.37,-974.6C134.48,-970.71 160.97,-965.31 184.71,-960.47"/>
<polygon fill="#000000" fill-opacity="0.200000" stroke="#000000" stroke-width="2" stroke-opacity="0.200000" points="184.88,-962.58 190.34,-959.32 184.05,-958.46 184.88,-962.58"/>
</g>
<!-- src/reportWebVitals.ts&#45;&gt;node_modules/web&#45;vitals -->
<g id="edge46" class="edge">
<title>src/reportWebVitals.ts&#45;&gt;node_modules/web&#45;vitals</title>
<path fill="none" stroke="#000000" stroke-opacity="0.200000" d="M250.87,-893.48C266.41,-874.09 300.86,-828.04 316.25,-783 321.46,-767.77 312.25,-721.74 324.25,-711 352.04,-686.13 630.92,-687.5 659.88,-711 673.28,-721.87 656.09,-736.39 667.88,-749 673.65,-755.18 681.61,-759.04 689.75,-761.43"/>
<polygon fill="#000000" fill-opacity="0.200000" stroke="#000000" stroke-opacity="0.200000" points="688.78,-763.35 695.1,-762.75 689.78,-759.27 688.78,-763.35"/>
</g>
<!-- src/react&#45;app&#45;env.d.ts -->
<g id="node58" class="node">
<title>src/react&#45;app&#45;env.d.ts</title>
<g id="a_node58"><a xlink:href="src/react-app-env.d.ts" xlink:title="react&#45;app&#45;env.d.ts">
<path fill="#ddfeff" stroke="black" d="M126.08,-958.25C126.08,-958.25 49.67,-958.25 49.67,-958.25 46.58,-958.25 43.5,-955.17 43.5,-952.08 43.5,-952.08 43.5,-945.92 43.5,-945.92 43.5,-942.83 46.58,-939.75 49.67,-939.75 49.67,-939.75 126.08,-939.75 126.08,-939.75 129.17,-939.75 132.25,-942.83 132.25,-945.92 132.25,-945.92 132.25,-952.08 132.25,-952.08 132.25,-955.17 129.17,-958.25 126.08,-958.25"/>
<text text-anchor="start" x="51.5" y="-945.7" font-family="Helvetica,sans-Serif" font-size="9.00">react&#45;app&#45;env.d.ts</text>
</a>
</g>
</g>
<!-- src/react&#45;app&#45;env.d.ts&#45;&gt;node_modules/react&#45;scripts -->
<g id="edge47" class="edge">
<title>src/react&#45;app&#45;env.d.ts&#45;&gt;node_modules/react&#45;scripts</title>
<path fill="none" stroke="#000000" stroke-opacity="0.200000" d="M132.72,-948.1C143.05,-945.7 153,-941.17 159.75,-933 177.03,-912.09 151.71,-710.87 167.75,-689 258.47,-565.3 657.74,-632.16 659.88,-634 677.93,-649.54 652.12,-669.13 667.88,-687 672.59,-692.34 678.94,-695.96 685.68,-698.4"/>
<polygon fill="#000000" fill-opacity="0.200000" stroke="#000000" stroke-opacity="0.200000" points="684.71,-700.3 691.06,-700.03 685.92,-696.28 684.71,-700.3"/>
</g>
<!-- src/service&#45;worker.ts -->
<g id="node59" class="node">
<title>src/service&#45;worker.ts</title>
<g id="a_node59"><a xlink:href="src/service-worker.ts" xlink:title="service&#45;worker.ts">
<path fill="#ddfeff" stroke="black" d="M123.83,-927.25C123.83,-927.25 51.92,-927.25 51.92,-927.25 48.83,-927.25 45.75,-924.17 45.75,-921.08 45.75,-921.08 45.75,-914.92 45.75,-914.92 45.75,-911.83 48.83,-908.75 51.92,-908.75 51.92,-908.75 123.83,-908.75 123.83,-908.75 126.92,-908.75 130,-911.83 130,-914.92 130,-914.92 130,-921.08 130,-921.08 130,-924.17 126.92,-927.25 123.83,-927.25"/>
<text text-anchor="start" x="53.75" y="-914.7" font-family="Helvetica,sans-Serif" font-size="9.00">service&#45;worker.ts</text>
</a>
</g>
</g>
<!-- src/service&#45;worker.ts&#45;&gt;node_modules/workbox&#45;core -->
<g id="edge48" class="edge">
<title>src/service&#45;worker.ts&#45;&gt;node_modules/workbox&#45;core</title>
<path fill="none" stroke="#000000" stroke-opacity="0.200000" d="M130.16,-917.67C141.39,-915.45 152.46,-910.86 159.75,-902 179.74,-877.71 145.76,-641.5 167.75,-619 205.97,-579.89 618.26,-578.53 659.88,-614 675,-626.89 654.27,-643.51 667.88,-658 671.87,-662.26 676.94,-665.3 682.4,-667.47"/>
<polygon fill="#000000" fill-opacity="0.200000" stroke="#000000" stroke-opacity="0.200000" points="681.67,-669.45 688.02,-669.31 682.97,-665.45 681.67,-669.45"/>
</g>
<!-- src/service&#45;worker.ts&#45;&gt;node_modules/workbox&#45;expiration -->
<g id="edge49" class="edge">
<title>src/service&#45;worker.ts&#45;&gt;node_modules/workbox&#45;expiration</title>
<path fill="none" stroke="#000000" stroke-opacity="0.200000" d="M130.18,-917.69C141.41,-915.46 152.47,-910.87 159.75,-902 170.82,-888.51 155.63,-600.56 167.75,-588 235.91,-517.38 545.22,-537.28 671.03,-548.63"/>
<polygon fill="#000000" fill-opacity="0.200000" stroke="#000000" stroke-opacity="0.200000" points="670.66,-550.7 676.82,-549.16 671.04,-546.52 670.66,-550.7"/>
</g>
<!-- src/service&#45;worker.ts&#45;&gt;node_modules/workbox&#45;precaching -->
<g id="edge50" class="edge">
<title>src/service&#45;worker.ts&#45;&gt;node_modules/workbox&#45;precaching</title>
<path fill="none" stroke="#000000" stroke-opacity="0.200000" d="M130.19,-917.7C141.43,-915.48 152.48,-910.89 159.75,-902 172.52,-886.38 153.56,-553.33 167.75,-539 202.35,-504.06 533.45,-514.54 668.04,-520.32"/>
<polygon fill="#000000" fill-opacity="0.200000" stroke="#000000" stroke-opacity="0.200000" points="667.86,-522.42 673.94,-520.58 668.04,-518.22 667.86,-522.42"/>
</g>
<!-- src/service&#45;worker.ts&#45;&gt;node_modules/workbox&#45;routing -->
<g id="edge51" class="edge">
<title>src/service&#45;worker.ts&#45;&gt;node_modules/workbox&#45;routing</title>
<path fill="none" stroke="#000000" stroke-opacity="0.200000" d="M130.2,-917.71C141.44,-915.48 152.49,-910.89 159.75,-902 173.45,-885.21 152.54,-527.44 167.75,-512 203.01,-476.19 548.06,-485.35 676.58,-490.06"/>
<polygon fill="#000000" fill-opacity="0.200000" stroke="#000000" stroke-opacity="0.200000" points="676.41,-492.15 682.49,-490.28 676.57,-487.95 676.41,-492.15"/>
</g>
<!-- src/service&#45;worker.ts&#45;&gt;node_modules/workbox&#45;strategies -->
<g id="edge52" class="edge">
<title>src/service&#45;worker.ts&#45;&gt;node_modules/workbox&#45;strategies</title>
<path fill="none" stroke="#000000" stroke-opacity="0.200000" d="M130.21,-917.72C141.44,-915.49 152.5,-910.9 159.75,-902 174.43,-884 151.51,-500.6 167.75,-484 309.96,-338.6 594.09,-416.51 691.12,-449"/>
<polygon fill="#000000" fill-opacity="0.200000" stroke="#000000" stroke-opacity="0.200000" points="690.26,-450.93 696.62,-450.87 691.61,-446.95 690.26,-450.93"/>
</g>
<!-- src/setupTests.ts -->
<g id="node60" class="node">
<title>src/setupTests.ts</title>
<g id="a_node60"><a xlink:href="src/setupTests.ts" xlink:title="setupTests.ts">
<path fill="#ddfeff" stroke="black" d="M115.96,-896.25C115.96,-896.25 59.79,-896.25 59.79,-896.25 56.71,-896.25 53.62,-893.17 53.62,-890.08 53.62,-890.08 53.62,-883.92 53.62,-883.92 53.62,-880.83 56.71,-877.75 59.79,-877.75 59.79,-877.75 115.96,-877.75 115.96,-877.75 119.04,-877.75 122.12,-880.83 122.12,-883.92 122.12,-883.92 122.12,-890.08 122.12,-890.08 122.12,-893.17 119.04,-896.25 115.96,-896.25"/>
<text text-anchor="start" x="61.62" y="-883.7" font-family="Helvetica,sans-Serif" font-size="9.00">setupTests.ts</text>
</a>
</g>
</g>
<!-- src/setupTests.ts&#45;&gt;node_modules/@testing&#45;library/jest&#45;dom -->
<g id="edge53" class="edge">
<title>src/setupTests.ts&#45;&gt;node_modules/@testing&#45;library/jest&#45;dom</title>
<path fill="none" stroke="#000000" stroke-opacity="0.200000" d="M89.87,-877.5C94.99,-830.72 119.94,-625.57 167.75,-588 249.02,-524.14 583.07,-566.98 690.83,-582.81"/>
<polygon fill="#000000" fill-opacity="0.200000" stroke="#000000" stroke-opacity="0.200000" points="690.45,-584.88 696.69,-583.68 691.06,-580.72 690.45,-584.88"/>
</g>
</g>
</svg>
